{
.appVersion = "3108";
.formatVersion = 3;
date = "2022-08-28 13:01:48 +0000";
familyName = "CM Geom";
featurePrefixes = (
{
automatic = 1;
code = "languagesystem DFLT dflt;

languagesystem latn dflt;
languagesystem latn NLD;
";
name = Languagesystems;
}
);
features = (
{
automatic = 1;
code = "feature locl;
feature case;
feature ss01;
feature ss02;
";
tag = aalt;
},
{
automatic = 1;
code = "lookup ccmp_Other_1 {
	@CombiningTopAccents = [acutecomb circumflexcomb dieresiscomb dotaccentcomb gravecomb ringcomb tildecomb];
	@CombiningNonTopAccents = [cedillacomb];
	sub [j]' @CombiningTopAccents by [jdotless];
	sub [j]' @CombiningNonTopAccents @CombiningTopAccents by [jdotless];
} ccmp_Other_1;
";
tag = ccmp;
},
{
automatic = 1;
code = "lookup locl_latn_0 {
	script latn;
	language NLD;
	sub iacute j' by jacute;
	sub Iacute J' by Jacute;
} locl_latn_0;
";
tag = locl;
},
{
automatic = 1;
code = "sub hyphen by hyphen.case;
sub endash by endash.case;
sub emdash by emdash.case;
sub parenleft by parenleft.case;
sub parenright by parenright.case;
sub braceleft by braceleft.case;
sub braceright by braceright.case;
sub bracketleft by bracketleft.case;
sub bracketright by bracketright.case;
sub parenleft.ss02 by parenleft.ss02.case;
sub parenright.ss02 by parenright.ss02.case;
sub guillemetleft by guillemetleft.case;
sub guillemetright by guillemetright.case;
sub guilsinglleft by guilsinglleft.case;
sub guilsinglright by guilsinglright.case;
";
tag = case;
},
{
automatic = 1;
code = "lookupflag IgnoreMarks;
sub f f t by f_f_t;
sub f t t by f_t_t;
sub w w w by w_w_w;
sub S y by S_y;
sub f t by f_t;
sub r t by r_t;
sub s t by s_t;
sub t t by t_t;
";
tag = dlig;
},
{
automatic = 1;
code = "lookupflag IgnoreMarks;
sub f f by f_f;
sub f i by f_i;
sub f l by f_l;
";
tag = liga;
},
{
automatic = 1;
code = "sub R by R.ss01;
sub a by a.ss01;
sub aacute by aacute.ss01;
sub acircumflex by acircumflex.ss01;
sub adieresis by adieresis.ss01;
sub agrave by agrave.ss01;
sub aring by aring.ss01;

glyphs = (
{
glyphname = A;
kernLeft = A;
kernRight = A;
lastChange = "2022-11-12 16:16:46 +0000";
layers = (
{
anchors = (
{
name = bottom;
pos = (322,0);
},
{
name = ogonek;
pos = (573,10);
},
{
name = top;
pos = (322,700);
}
);
background = {
shapes = (
{
closed = 1;
nodes = (
(302,555,l),
(316,615,l),
(326,615,l),
(339,555,l),
(541,0,l),
(616,0,l),
(357,700,l),
(287,700,l),
(18,0,l),
(93,0,l)
);
},
{
closed = 1;
nodes = (
(128,245,l),
(128,180,l),
(518,180,l),
(518,245,l)
);
}
);
};
layerId = m01;
shapes = (
{
closed = 1;
nodes = (
(93,0,l),
(302,555,l),
(316,615,l),
(326,615,l),
(339,555,l),
(541,0,l),
(614,0,l),
(614,5,l),
(357,700,l),
(287,700,l),
(20,5,l),
(20,0,l)
);
},
{
closed = 1;
nodes = (
(518,180,l),
(518,245,l),
(128,245,l),
(128,180,l)
);
}
);
width = 644;
}
);
unicode = 65;
},
{
glyphname = AE;
kernLeft = A;
kernRight = A;
lastChange = "2022-10-24 10:07:12 +0000";
layers = (
{
background = {
shapes = (
{
closed = 1;
nodes = (
(491,700,l),
(227,700,l),
(-40,5,l),
(-40,0,l),
(33,0,l),
(242,555,l),
(256,615,l),
(491,615,l)
);
},
{
closed = 1;
nodes = (
(488,180,l),
(488,245,l),
(68,245,l),
(68,180,l)
);
},
{
closed = 1;
nodes = (
(551,0,l),
(551,700,l),
(481,700,l),
(481,0,l)
);
},
{
closed = 1;
nodes = (
(961,0,l),
(961,65,l),
(481,65,l),
(481,0,l)
);
},
{
closed = 1;
nodes = (
(911,323,l),
(911,388,l),
(481,388,l),
(481,323,l)
);
},
{
closed = 1;
nodes = (
(941,635,l),
(941,700,l),
(481,700,l),
(481,635,l)
);
}
);
};
layerId = m01;
shapes = (
{
closed = 1;
nodes = (
(491,700,l),
(287,700,l),
(20,5,l),
(20,0,l),
(93,0,l),
(309,575,l),
(323,635,l),
(491,635,l)
);
},
{
closed = 1;
nodes = (
(488,180,l),
(488,245,l),
(128,245,l),
(128,180,l)
);
},
{
closed = 1;
nodes = (
(551,0,l),
(551,700,l),
(481,700,l),
(481,0,l)
);
},
{
closed = 1;
nodes = (
(921,0,l),
(921,65,l),
(481,65,l),
(481,0,l)
);
},
{
closed = 1;
nodes = (
(871,323,l),
(871,388,l),
(481,388,l),
(481,323,l)
);
},
{
closed = 1;
nodes = (
(901,635,l),
(901,700,l),
(481,700,l),
(481,635,l)
);
}
);
width = 961;
}
);
metricLeft = A;
metricRight = E;
unicode = 198;
},
{
glyphname = B;
kernLeft = I;
kernRight = B;
lastChange = "2022-10-13 19:37:28 +0000";
layers = (
{
background = {
shapes = (
{
closed = 1;
nodes = (
(495,0,o),
(586,75,o),
(586,200,cs),
(586,324,o),
(494,380,o),
(370,380,c),
(360,330,l),
(445,330,o),
(516,296,o),
(516,200,cs),
(516,109,o),
(445,65,o),
(360,65,c),
(371,0,l)
);
},
{
closed = 1;
nodes = (
(371,0,l),
(361,65,l),
(114,65,l),
(114,0,l)
);
},
{
closed = 1;
nodes = (
(120,0,l),
(120,700,l),
(50,700,l),
(50,0,l)
);
},
{
closed = 1;
nodes = (
(361,330,l),
(371,390,l),
(114,390,l),
(114,330,l)
);
},
{
closed = 1;
nodes = (
(331,635,l),
(341,700,l),
(74,700,l),
(74,635,l)
);
},
{
closed = 1;
nodes = (
(435,355,o),
(546,405,o),
(546,530,cs),
(546,639,o),
(465,700,o),
(341,700,c),
(330,635,l),
(415,635,o),
(476,596,o),
(476,520,cs),
(476,429,o),
(405,390,o),
(320,390,c),
(311,355,l)
);
}
);
};
layerId = m01;
shapes = (
{
closed = 1;
nodes = (
(495,0,o),
(586,75,o),
(586,200,cs),
(586,282,o),
(546,335,o),
(483,361,c),
(424,370,l),
(424,380,l),
(483,401,l),
(522,429,o),
(546,472,o),
(546,530,cs),
(546,639,o),
(465,700,o),
(341,700,cs),
(50,700,l),
(50,0,l),
(371,0,ls)
);
},
{
closed = 1;
nodes = (
(120,330,l),
(360,330,ls),
(445,330,o),
(516,296,o),
(516,200,cs),
(516,109,o),
(445,65,o),
(360,65,cs),
(120,65,l)
);
},
{
closed = 1;
nodes = (
(120,635,l),
(330,635,ls),
(415,635,o),
(476,596,o),
(476,520,cs),
(476,429,o),
(405,390,o),
(320,390,cs),
(120,390,l)
);
}
);
width = 616;
}
);
unicode = 66;
},
{
glyphname = C;
kernLeft = O;
kernRight = O;
lastChange = "2022-11-01 17:41:57 +0000";
layers = (
{
anchors = (
{
name = bottom;
pos = (401,0);
},
{
name = top;
pos = (400,700);
}
);
background = {
shapes = (
{
closed = 1;
nodes = (
(562,-15,o),
(689,82,o),
(738,220,c),
(674,246,l),
(636,128,o),
(533,50,o),
(401,50,cs),
(231,50,o),
(113,176,o),
(113,350,cs),
(113,524,o),
(231,650,o),
(401,650,cs),
(534,650,o),
(637,571,o),
(675,452,c),
(739,477,l),
(690,616,o),
(563,715,o),
(401,715,cs),
(191,715,o),
(40,551,o),
(40,350,cs),
(40,147,o),
(191,-15,o),
(401,-15,cs)
);
}
);
};
layerId = m01;
shapes = (
{
closed = 1;
nodes = (
(562,-15,o),
(689,82,o),
(738,220,c),
(674,246,l),
(636,128,o),
(533,50,o),
(401,50,cs),
(231,50,o),
(113,176,o),
(113,350,cs),
(113,524,o),
(231,650,o),
(401,650,cs),
(534,650,o),
(637,571,o),
(675,452,c),
(739,477,l),
(690,616,o),
(563,715,o),
(401,715,cs),
(191,715,o),
(40,551,o),
(40,350,cs),
(40,147,o),
(191,-15,o),
(401,-15,cs)
);
}
);
width = 789;
}
);
unicode = 67;
},
{
glyphname = D;
kernLeft = I;
kernRight = O;
lastChange = "2022-09-25 08:57:18 +0000";
layers = (
{
background = {
shapes = (
{
closed = 1;
nodes = (
(687,350,l),
(687,550,o),
(536,715,o),
(329,715,cs),
(220,715,o),
(130,670,o),
(65,600,c),
(115,551,l),
(166,612,o),
(241,650,o),
(329,650,cs),
(497,650,o),
(617,508,o),
(617,350,c)
);
},
{
closed = 1;
nodes = (
(130,700,l),
(60,700,l),
(60,0,l),
(130,0,l)
);
},
{
closed = 1;
nodes = (
(617,192,o),
(497,50,o),
(329,50,cs),
(241,50,o),
(166,88,o),
(115,149,c),
(65,100,l),
(130,30,o),
(220,-15,o),
(329,-15,cs),
(536,-15,o),
(687,150,o),
(687,350,c),
(617,350,l)
);
}
);
};
layerId = m01;
shapes = (
{
closed = 1;
nodes = (
(543,0,o),
(696,148,o),
(696,350,cs),
(696,552,o),
(543,700,o),
(341,700,c),
(331,635,l),
(491,635,o),
(626,515,o),
(626,350,cs),
(626,184,o),
(491,65,o),
(331,65,c),
(341,0,l)
);
},
{
closed = 1;
nodes = (
(341,0,l),
(331,65,l),
(64,65,l),
(64,0,l)
);
},
{
closed = 1;
nodes = (
(130,0,l),
(130,700,l),
(60,700,l),
(60,0,l)
);
},
{
closed = 1;
nodes = (
(331,635,l),
(341,700,l),
(64,700,l),
(64,635,l)
);
}
);
width = 736;
}
);
unicode = 68;
},
{
glyphname = Eth;
kernRight = O;
lastChange = "2022-11-20 15:07:09 +0000";
layers = (
{
layerId = m01;
shapes = (
{
closed = 1;
nodes = (
(603,0,o),
(756,148,o),
(756,350,cs),
(756,552,o),
(603,700,o),
(401,700,c),
(391,635,l),
(551,635,o),
(686,515,o),
(686,350,cs),
(686,184,o),
(551,65,o),
(391,65,c),
(401,0,l)
);
},
{
closed = 1;
nodes = (
(401,0,l),
(391,65,l),
(124,65,l),
(124,0,l)
);
},
{
closed = 1;
nodes = (
(190,0,l),
(190,700,l),
(120,700,l),
(120,0,l)
);
},
{
closed = 1;
nodes = (
(391,635,l),
(401,700,l),
(124,700,l),
(124,635,l)
);
},
{
closed = 1;
nodes = (
(70,336,l),
(120,341,l),
(155,336,l),
(190,341,l),
(240,336,l),
(462,336,l),
(462,401,l),
(240,401,l),
(190,396,l),
(155,401,l),
(120,396,l),
(70,401,l),
(10,401,l),
(10,336,l)
);
}
);
width = 796;
}
);
metricRight = D;
unicode = 208;
},
{
glyphname = E;
kernLeft = I;
kernRight = E;
lastChange = "2022-10-29 17:14:40 +0000";
layers = (
{
anchors = (
{
name = bottom;
pos = (275,0);
},
{
name = ogonek;
pos = (495,10);
},
{
name = top;
pos = (275,700);
},
{
name = topleft;
pos = (20,700);
}
);
background = {
shapes = (
{
closed = 1;
nodes = (
(120,0,l),
(120,700,l),
(50,700,l),
(50,0,l)
);
},
{
closed = 1;
nodes = (
(530,0,l),
(530,65,l),
(50,65,l),
(50,0,l)
);
},
{
closed = 1;
nodes = (
(480,320,l),
(480,390,l),
(50,390,l),
(50,320,l)
);
},
{
closed = 1;
nodes = (
(510,635,l),
(510,700,l),
(50,700,l),
(50,635,l)
);
}
);
};
layerId = m01;
shapes = (
{
closed = 1;
nodes = (
(120,0,l),
(120,700,l),
(50,700,l),
(50,0,l)
);
},
{
closed = 1;
nodes = (
(530,0,l),
(530,65,l),
(50,65,l),
(50,0,l)
);
},
{
closed = 1;
nodes = (
(480,323,l),
(480,388,l),
(50,388,l),
(50,323,l)
);
},
{
closed = 1;
nodes = (
(510,635,l),
(510,700,l),
(50,700,l),
(50,635,l)
);
}
);
width = 570;
}
);
unicode = 69;
},
{
glyphname = F;
kernLeft = I;
kernRight = F;
lastChange = "2022-10-26 11:58:16 +0000";
layers = (
{
layerId = m01;
shapes = (
{
closed = 1;
nodes = (
(120,0,l),
(120,700,l),
(50,700,l),
(50,0,l)
);
},
{
closed = 1;
nodes = (
(450,313,l),
(450,378,l),
(50,378,l),
(50,313,l)
);
},
{
closed = 1;
nodes = (
(470,635,l),
(470,700,l),
(50,700,l),
(50,635,l)
);
}
);
width = 510;
}
);
unicode = 70;
},
{
glyphname = G;
kernLeft = O;
kernRight = G;
lastChange = "2022-11-02 14:39:59 +0000";
layers = (
{
background = {
shapes = (
{
closed = 1;
nodes = (
(509,-15,o),
(592,25,o),
(651,89,c),
(684,139,l),
(694,139,l),
(694,89,l),
(702,0,l),
(768,0,l),
(748,218,l),
(748,356,l),
(344,356,l),
(344,291,l),
(682,291,l),
(682,240,l),
(642,125,o),
(536,50,o),
(406,50,cs),
(236,50,o),
(113,176,o),
(113,350,cs),
(113,524,o),
(231,650,o),
(401,650,cs),
(534,650,o),
(637,571,o),
(675,452,c),
(739,477,l),
(690,616,o),
(563,715,o),
(401,715,cs),
(191,715,o),
(40,551,o),
(40,350,cs),
(40,147,o),
(196,-15,o),
(406,-15,cs)
);
}
);
};
layerId = m01;
shapes = (
{
closed = 1;
nodes = (
(509,-15,o),
(592,25,o),
(651,89,c),
(684,139,l),
(694,139,l),
(694,89,l),
(702,0,l),
(768,0,l),
(768,5,l),
(748,218,l),
(748,356,l),
(344,356,l),
(344,291,l),
(682,291,l),
(682,240,l),
(642,125,o),
(536,50,o),
(406,50,cs),
(236,50,o),
(113,176,o),
(113,350,cs),
(113,524,o),
(231,650,o),
(401,650,cs),
(534,650,o),
(637,571,o),
(675,452,c),
(739,477,l),
(690,616,o),
(563,715,o),
(401,715,cs),
(191,715,o),
(40,551,o),
(40,350,cs),
(40,147,o),
(196,-15,o),
(406,-15,cs)
);
}
);
width = 828;
}
);
unicode = 71;
},
{
glyphname = H;
lastChange = "2022-11-11 14:57:16 +0000";
layers = (
{
layerId = m01;
shapes = (
{
closed = 1;
nodes = (
(595,0,l),
(595,700,l),
(525,700,l),
(525,0,l)
);
},
{
closed = 1;
nodes = (
(130,0,l),
(130,700,l),
(60,700,l),
(60,0,l)
);
},
{
closed = 1;
nodes = (
(535,332,l),
(535,397,l),
(90,397,l),
(90,332,l)
);
}
);
width = 665;
}
);
unicode = 72;
},
{
glyphname = I;
kernLeft = I;
kernRight = I;
lastChange = "2022-10-13 19:37:53 +0000";
layers = (
{
anchors = (
{
name = bottom;
pos = (100,0);
},
{
name = ogonek;
pos = (180,10);
},
{
name = top;
pos = (100,700);
},
{
name = topleft;
pos = (20,700);
}
);
layerId = m01;
shapes = (
{
closed = 1;
nodes = (
(130,0,l),
(130,700,l),
(60,700,l),
(60,0,l)
);
}
);
width = 200;
}
);
unicode = 73;
},
{
glyphname = J;
kernLeft = "-";
kernRight = "-";
lastChange = "2022-11-03 15:57:27 +0000";
layers = (
{
anchors = (
{
name = bottom;
pos = (215,0);
},
{
name = top;
pos = (314,700);
}
);
layerId = m01;
shapes = (
{
closed = 1;
nodes = (
(350,0,l),
(350,700,l),
(280,700,l),
(280,0,l)
);
},
{
closed = 1;
nodes = (
(340,0,l),
(340,65,l),
(40,65,l),
(40,0,l)
);
}
);
width = 430;
}
);
unicode = 74;
},
{
glyphname = K;
kernLeft = I;
kernRight = R;
lastChange = "2022-11-01 17:42:28 +0000";
layers = (
{
layerId = m01;
shapes = (
{
closed = 1;
nodes = (
(605,0,l),
(605,5,l),
(390,309,l),
(344,354,l),
(344,364,l),
(391,409,l),
(604,695,l),
(604,700,l),
(526,700,l),
(268,359,l),
(522,0,l)
);
},
{
closed = 1;
nodes = (
(120,700,l),
(50,700,l),
(50,1,l),
(119,0,l)
);
},
{
closed = 1;
nodes = (
(303,327,l),
(303,392,l),
(69,392,l),
(69,327,l)
);
}
);
width = 625;
}
);
unicode = 75;
},
{
glyphname = L;
kernLeft = I;
kernRight = L;
lastChange = "2022-10-13 20:15:29 +0000";
layers = (
{
layerId = m01;
shapes = (
{
closed = 1;
nodes = (
(140,0,l),
(140,700,l),
(70,700,l),
(70,0,l)
);
},
{
closed = 1;
nodes = (
(470,0,l),
(470,65,l),
(80,65,l),
(80,0,l)
);
}
);
width = 520;
}
);
unicode = 76;
},
{
glyphname = M;
lastChange = "2022-11-02 15:01:22 +0000";
layers = (
{
layerId = m01;
shapes = (
{
closed = 1;
nodes = (
(130,0,l),
(130,490,l),
(125,545,l),
(135,545,l),
(153,490,l),
(380,0,l),
(450,0,l),
(677,490,l),
(695,545,l),
(705,545,l),
(700,490,l),
(700,0,l),
(770,0,l),
(770,700,l),
(700,700,l),
(438,127,l),
(420,67,l),
(410,67,l),
(392,127,l),
(130,700,l),
(60,700,l),
(60,0,l)
);
}
);
width = 840;
}
);
unicode = 77;
},
{
glyphname = N;
lastChange = "2022-10-13 09:29:09 +0000";
layers = (
{
anchors = (
{
name = bottom;
pos = (335,0);
},
{
name = top;
pos = (335,700);
}
);
layerId = m01;
shapes = (
{
closed = 1;
nodes = (
(130,0,l),
(130,529,l),
(125,589,l),
(135,589,l),
(165,529,l),
(530,0,l),
(600,0,l),
(600,700,l),
(530,700,l),
(530,171,l),
(535,111,l),
(525,111,l),
(495,171,l),
(130,700,l),
(60,700,l),
(60,0,l)
);
}
);
width = 670;
}
);
unicode = 78;
},
{
glyphname = O;
kernLeft = O;
kernRight = O;
lastChange = "2022-11-12 16:49:06 +0000";
layers = (
{
anchors = (
{
name = bottom;
pos = (391,0);
},
{
name = center;
pos = (395,350);
},
{
name = ogonek;
pos = (711,10);
},
{
name = top;
pos = (391,700);
},
{
name = topleft;
pos = (20,700);
},
{
name = topright;
pos = (770,700);
}
);
background = {
shapes = (
{
closed = 1;
nodes = (
(751,350,l),
(751,550,o),
(600,715,o),
(393,715,cs),
(284,715,o),
(194,670,o),
(129,600,c),
(179,551,l),
(230,612,o),
(305,650,o),
(393,650,cs),
(561,650,o),
(681,508,o),
(681,350,c)
);
},
{
closed = 1;
nodes = (
(194,700,l),
(128,700,l),
(128,0,l),
(194,0,l)
);
},
{
closed = 1;
nodes = (
(681,192,o),
(561,50,o),
(393,50,cs),
(305,50,o),
(230,88,o),
(179,149,c),
(129,100,l),
(194,30,o),
(284,-15,o),
(393,-15,cs),
(600,-15,o),
(751,150,o),
(751,350,c),
(681,350,l)
);
}
);
};
layerId = m01;
shapes = (
{
closed = 1;
nodes = (
(599,-15,o),
(750,147,o),
(750,349,cs),
(750,551,o),
(599,715,o),
(391,715,cs),
(181,715,o),
(30,551,o),
(30,350,cs),
(30,147,o),
(181,-15,o),
(391,-15,cs)
);
},
{
closed = 1;
nodes = (
(221,50,o),
(103,176,o),
(103,350,cs),
(103,524,o),
(221,650,o),
(391,650,cs),
(559,650,o),
(680,524,o),
(680,349,cs),
(680,176,o),
(559,50,o),
(391,50,cs)
);
}
);
width = 790;
}
);
unicode = 79;
},
{
glyphname = Oslash;
kernLeft = O;
kernRight = O;
lastChange = "2022-10-13 19:38:31 +0000";
layers = (
{
background = {
shapes = (
{
closed = 1;
nodes = (
(553,85,o),
(663,203,o),
(663,349,cs),
(663,496,o),
(553,615,o),
(402,615,cs),
(250,615,o),
(140,496,o),
(140,350,cs),
(140,203,o),
(250,85,o),
(402,85,cs)
);
},
{
closed = 1;
nodes = (
(285,145,o),
(206,238,o),
(206,350,cs),
(206,462,o),
(285,555,o),
(401,555,cs),
(516,555,o),
(597,462,o),
(597,349,cs),
(597,238,o),
(516,145,o),
(401,145,cs)
);
},
{
closed = 1;
nodes = (
(566,520,l),
(634,610,l),
(634,615,l),
(561,615,l),
(522,564,l)
);
},
{
closed = 1;
nodes = (
(224,183,l),
(154,90,l),
(154,85,l),
(227,85,l),
(267,137,l)
);
},
{
closed = 1;
nodes = (
(517,564,l),
(229,183,l),
(272,137,l),
(561,520,l)
);
}
);
};
layerId = m01;
shapes = (
{
closed = 1;
nodes = (
(599,-15,o),
(750,147,o),
(750,349,cs),
(750,551,o),
(599,715,o),
(391,715,cs),
(181,715,o),
(30,551,o),
(30,350,cs),
(30,147,o),
(181,-15,o),
(391,-15,cs)
);
},
{
closed = 1;
nodes = (
(219,50,o),
(101,176,o),
(101,350,cs),
(101,524,o),
(219,650,o),
(389,650,cs),
(557,650,o),
(678,524,o),
(678,349,cs),
(678,176,o),
(557,50,o),
(389,50,cs)
);
},
{
closed = 1;
nodes = (
(629,595,l),
(708,695,l),
(708,700,l),
(627,700,l),
(581,641,l)
);
},
{
closed = 1;
nodes = (
(148,105,l),
(69,5,l),
(69,0,l),
(150,0,l),
(206,72,l)
);
},
{
closed = 1;
nodes = (
(576,641,l),
(153,105,l),
(211,72,l),
(624,595,l)
);
}
);
width = 790;
}
);
metricLeft = O;
metricRight = O;
unicode = 216;
},
{
glyphname = OE;
kernLeft = O;
kernRight = O;
lastChange = "2022-10-24 10:07:04 +0000";
layers = (
{
layerId = m01;
shapes = (
{
closed = 1;
nodes = (
(489,-15,o),
(573,20,o),
(636,79,c),
(680,139,l),
(690,139,l),
(680,79,l),
(680,0,l),
(1160,0,l),
(1160,65,l),
(750,65,l),
(750,323,l),
(1110,323,l),
(1110,388,l),
(750,388,l),
(750,635,l),
(1140,635,l),
(1140,700,l),
(680,700,l),
(680,620,l),
(690,560,l),
(680,560,l),
(636,620,l),
(573,679,o),
(489,715,o),
(391,715,cs),
(181,715,o),
(30,551,o),
(30,350,cs),
(30,147,o),
(181,-15,o),
(391,-15,cs)
);
},
{
closed = 1;
nodes = (
(103,524,o),
(221,650,o),
(391,650,cs),
(559,650,o),
(680,524,o),
(680,349,cs),
(680,176,o),
(559,50,o),
(391,50,cs),
(221,50,o),
(103,176,o),
(103,350,cs)
);
}
);
width = 1200;
}
);
metricRight = E;
unicode = 338;
},
{
glyphname = P;
kernLeft = I;
kernRight = P;
lastChange = "2022-10-26 12:13:53 +0000";
layers = (
{
layerId = m01;
shapes = (
{
closed = 1;
nodes = (
(445,280,o),
(536,365,o),
(536,490,cs),
(536,614,o),
(445,700,o),
(321,700,c),
(310,635,l),
(395,635,o),
(466,581,o),
(466,490,cs),
(466,399,o),
(395,345,o),
(310,345,c),
(321,280,l)
);
},
{
closed = 1;
nodes = (
(130,0,l),
(130,700,l),
(60,700,l),
(60,0,l)
);
},
{
closed = 1;
nodes = (
(321,280,l),
(311,345,l),
(84,345,l),
(84,280,l)
);
},
{
closed = 1;
nodes = (
(311,635,l),
(321,700,l),
(84,700,l),
(84,635,l)
);
}
);
width = 556;
}
);
unicode = 80;
},
{
glyphname = Thorn;
kernLeft = I;
kernRight = F;
lastChange = "2022-11-20 15:14:51 +0000";
layers = (
{
background = {
shapes = (
{
closed = 1;
nodes = (
(440,80,o),
(531,165,o),
(531,290,cs),
(531,414,o),
(440,500,o),
(316,500,c),
(305,435,l),
(390,435,o),
(461,381,o),
(461,290,cs),
(461,199,o),
(390,145,o),
(305,145,c),
(316,80,l)
);
},
{
closed = 1;
nodes = (
(125,0,l),
(125,700,l),
(55,700,l),
(55,0,l)
);
},
{
closed = 1;
nodes = (
(316,80,l),
(306,145,l),
(79,145,l),
(79,80,l)
);
},
{
closed = 1;
nodes = (
(306,435,l),
(316,500,l),
(79,500,l),
(79,435,l)
);
}
);
};
layerId = m01;
shapes = (
{
closed = 1;
nodes = (
(440,100,o),
(531,180,o),
(531,300,cs),
(531,419,o),
(440,500,o),
(316,500,c),
(305,440,l),
(390,440,o),
(466,391,o),
(466,300,cs),
(466,209,o),
(390,160,o),
(305,160,c),
(316,100,l)
);
},
{
closed = 1;
nodes = (
(125,0,l),
(125,700,l),
(60,700,l),
(60,0,l)
);
},
{
closed = 1;
nodes = (
(316,100,l),
(306,160,l),
(79,160,l),
(79,100,l)
);
},
{
closed = 1;
nodes = (
(306,440,l),
(316,500,l),
(79,500,l),
(79,440,l)
);
}
);
width = 551;
}
);
metricLeft = P;
metricRight = P;
unicode = 222;
},
{
glyphname = Q;
kernLeft = O;
kernRight = O;
lastChange = "2022-11-20 15:03:32 +0000";
layers = (
{
background = {
shapes = (
{
closed = 1;
nodes = (
(618,-15,o),
(769,147,o),
(769,349,cs),
(769,551,o),
(618,715,o),
(410,715,cs),
(200,715,o),
(49,551,o),
(49,350,cs),
(49,147,o),
(200,-15,o),
(410,-15,cs)
);
},
{
closed = 1;
nodes = (
(763,32,l),
(410,385,l),
(363,338,l),
(716,-15,l)
);
},
{
closed = 1;
nodes = (
(240,50,o),
(122,176,o),
(122,350,cs),
(122,524,o),
(240,650,o),
(410,650,cs),
(578,650,o),
(699,524,o),
(699,349,cs),
(699,176,o),
(578,50,o),
(410,50,cs)
);
}
);
};
layerId = m01;
shapes = (
{
closed = 1;
nodes = (
(619,-15,o),
(770,147,o),
(770,349,cs),
(770,551,o),
(619,715,o),
(411,715,cs),
(201,715,o),
(50,551,o),
(50,350,cs),
(50,147,o),
(201,-15,o),
(411,-15,cs)
);
},
{
closed = 1;
nodes = (
(764,32,l),
(736,60,l),
(682,107,l),
(659,136,l),
(635,153,l),
(588,208,l),
(411,385,l),
(364,338,l),
(542,160,l),
(596,113,l),
(613,89,l),
(642,67,l),
(688,14,l),
(717,-15,l)
);
},
{
closed = 1;
nodes = (
(241,50,o),
(123,176,o),
(123,350,cs),
(123,524,o),
(241,650,o),
(411,650,cs),
(579,650,o),
(700,524,o),
(700,349,cs),
(700,176,o),
(579,50,o),
(411,50,cs)
);
}
);
width = 825;
}
);
unicode = 81;
},
{
glyphname = R;
kernLeft = I;
kernRight = R;
lastChange = "2022-11-02 18:37:06 +0000";
layers = (
{
background = {
shapes = (
{
closed = 1;
nodes = (
(370,280,l),
(511,0,l),
(585,0,l),
(585,5,l),
(459,248,l),
(423,288,l),
(423,298,l),
(497,329,o),
(556,399,o),
(556,490,cs),
(556,614,o),
(465,700,o),
(341,700,cs),
(50,700,l),
(50,0,l),
(120,0,l),
(120,280,l),
(341,280,l)
);
},
{
closed = 1;
nodes = (
(120,635,l),
(330,635,ls),
(415,635,o),
(486,581,o),
(486,490,cs),
(486,399,o),
(415,345,o),
(330,345,cs),
(120,345,l)
);
}
);
};
layerId = m01;
shapes = (
{
closed = 1;
nodes = (
(370,280,l),
(511,0,l),
(585,0,l),
(585,5,l),
(459,248,l),
(423,288,l),
(423,298,l),
(497,329,o),
(556,399,o),
(556,490,cs),
(556,614,o),
(465,700,o),
(341,700,cs),
(50,700,l),
(50,0,l),
(120,0,l),
(120,280,l),
(341,280,l)
);
},
{
closed = 1;
nodes = (
(120,635,l),
(330,635,ls),
(415,635,o),
(486,581,o),
(486,490,cs),
(486,399,o),
(415,345,o),
(330,345,cs),
(120,345,l)
);
}
);
width = 605;
}
);
unicode = 82;
},
{
glyphname = S;
kernLeft = O;
kernRight = O;
lastChange = "2022-11-02 20:49:31 +0000";
layers = (
{
background = {
shapes = (
{
closed = 1;
nodes = (
(641,201,l),
(641,345,o),
(499,369,o),
(369,391,cs),
(259,409,o),
(158,426,o),
(158,513,c),
(83,513,l),
(83,365,o),
(224,343,o),
(354,323,cs),
(464,307,o),
(565,291,o),
(565,201,c)
);
},
{
closed = 1;
nodes = (
(502,-15,o),
(641,65,o),
(641,201,c),
(565,201,l),
(565,89,o),
(451,50,o),
(371,50,cs),
(215,50,o),
(130,145,o),
(105,253,c),
(40,219,l),
(80,82,o),
(178,-15,o),
(371,-15,cs)
);
},
{
closed = 1;
nodes = (
(642,507,l),
(610,621,o),
(507,715,o),
(343,715,cs),
(208,715,o),
(83,641,o),
(83,513,c),
(158,513,l),
(158,607,o),
(259,650,o),
(343,650,cs),
(468,650,o),
(555,581,o),
(578,480,c)
);
}
);
};
layerId = m01;
shapes = (
{
closed = 1;
nodes = (
(641,201,l),
(641,345,o),
(499,369,o),
(369,391,cs),
(259,409,o),
(158,426,o),
(158,513,c),
(83,513,l),
(83,370,o),
(219,343,o),
(354,323,cs),
(464,307,o),
(565,291,o),
(565,201,c)
);
},
{
closed = 1;
nodes = (
(502,-15,o),
(641,65,o),
(641,201,c),
(565,201,l),
(565,89,o),
(451,50,o),
(371,50,cs),
(215,50,o),
(130,145,o),
(105,253,c),
(40,219,l),
(80,82,o),
(178,-15,o),
(371,-15,cs)
);
},
{
closed = 1;
nodes = (
(642,507,l),
(610,621,o),
(507,715,o),
(343,715,cs),
(208,715,o),
(83,641,o),
(83,513,c),
(158,513,l),
(158,607,o),
(259,650,o),
(343,650,cs),
(468,650,o),
(555,581,o),
(578,480,c)
);
}
);
width = 692;
}
);
unicode = 83;
},
{
glyphname = Germandbls;
kernLeft = I;
kernRight = O;
lastChange = "2022-10-31 11:42:59 +0000";
layers = (
{
background = {
shapes = (
{
closed = 1;
nodes = (
(495,0,o),
(586,75,o),
(586,200,cs),
(586,334,o),
(485,390,o),
(371,390,cs),
(323,390,l),
(546,635,l),
(546,700,l),
(90,700,l),
(90,265,l),
(40,5,l),
(40,0,l),
(112,0,l),
(132,113,l),
(136,163,l),
(146,163,l),
(162,113,l),
(200,44,o),
(270,0,o),
(371,0,cs)
);
},
{
closed = 1;
nodes = (
(160,635,l),
(466,635,l),
(244,390,l),
(244,330,l),
(360,330,ls),
(445,330,o),
(516,296,o),
(516,200,cs),
(516,109,o),
(446,65,o),
(361,65,cs),
(252,65,o),
(160,163,o),
(160,265,cs)
);
}
);
};
layerId = m01;
shapes = (
{
closed = 1;
nodes = (
(495,0,o),
(586,75,o),
(586,200,cs),
(586,334,o),
(484,390,o),
(374,390,cs),
(373,390,l),
(313,385,l),
(313,395,l),
(369,440,l),
(546,635,l),
(546,700,l),
(90,700,l),
(90,265,l),
(40,5,l),
(40,0,l),
(112,0,l),
(132,113,l),
(136,163,l),
(146,163,l),
(162,113,l),
(200,44,o),
(270,0,o),
(371,0,cs)
);
},
{
closed = 1;
nodes = (
(160,635,l),
(466,635,l),
(244,390,l),
(244,330,l),
(360,330,ls),
(445,330,o),
(516,296,o),
(516,200,cs),
(516,109,o),
(446,65,o),
(361,65,cs),
(252,65,o),
(160,163,o),
(160,265,cs)
);
}
);
width = 636;
}
);
unicode = 7838;
},
{
glyphname = T;
kernLeft = T;
kernRight = T;
lastChange = "2022-11-03 17:13:57 +0000";
layers = (
{
layerId = m01;
shapes = (
{
closed = 1;
nodes = (
(305,0,l),
(305,690,l),
(235,690,l),
(235,0,l)
);
},
{
closed = 1;
nodes = (
(530,635,l),
(530,700,l),
(10,700,l),
(10,635,l)
);
}
);
width = 560;
}
);
unicode = 84;
},
{
glyphname = U;
lastChange = "2022-11-11 15:20:35 +0000";
layers = (
{
anchors = (
{
name = bottom;
pos = (336,0);
},
{
name = ogonek;
pos = (616,10);
},
{
name = top;
pos = (336,700);
},
{
name = topright;
pos = (665,700);
}
);
layerId = m01;
shapes = (
{
closed = 1;
nodes = (
(519,-15,o),
(620,112,o),
(620,294,c),
(620,700,l),
(550,700,l),
(550,304,l),
(550,151,o),
(479,50,o),
(336,50,cs),
(191,50,o),
(123,151,o),
(123,305,c),
(123,700,l),
(50,700,l),
(50,295,l),
(50,112,o),
(151,-15,o),
(336,-15,cs)
);
}
);
width = 680;
}
);
unicode = 85;
},
{
glyphname = V;
kernLeft = V;
kernRight = V;
lastChange = "2022-11-12 16:47:20 +0000";
layers = (
{
background = {
shapes = (
{
closed = 1;
nodes = (
(8,700,l),
(282,0,l),
(352,0,l),
(616,700,l),
(536,700,l),
(334,145,l),
(321,85,l),
(311,85,l),
(297,145,l),
(88,700,l)
);
}
);
};
layerId = m01;
shapes = (
{
closed = 1;
nodes = (
(352,0,l),
(614,695,l),
(614,700,l),
(536,700,l),
(334,145,l),
(321,85,l),
(311,85,l),
(297,145,l),
(88,700,l),
(10,700,l),
(10,695,l),
(282,0,l)
);
}
);
width = 634;
}
);
unicode = 86;
},
{
glyphname = W;
kernLeft = V;
kernRight = V;
lastChange = "2022-11-12 16:21:55 +0000";
layers = (
{
anchors = (
{
name = bottom;
pos = (493,0);
},
{
name = top;
pos = (493,700);
}
);
background = {
shapes = (
{
closed = 1;
nodes = (
(10,700,l),
(214,0,l),
(289,0,l),
(471,543,l),
(483,603,l),
(493,603,l),
(504,543,l),
(687,0,l),
(762,0,l),
(966,700,l),
(886,700,l),
(737,175,l),
(723,115,l),
(713,115,l),
(700,175,l),
(523,700,l),
(453,700,l),
(276,175,l),
(263,115,l),
(253,115,l),
(239,175,l),
(90,700,l)
);
}
);
};
layerId = m01;
shapes = (
{
closed = 1;
nodes = (
(289,0,l),
(471,543,l),
(483,603,l),
(493,603,l),
(504,543,l),
(687,0,l),
(762,0,l),
(964,695,l),
(964,700,l),
(886,700,l),
(737,175,l),
(723,115,l),
(713,115,l),
(700,175,l),
(523,700,l),
(453,700,l),
(276,175,l),
(263,115,l),
(253,115,l),
(239,175,l),
(90,700,l),
(15,700,l),
(15,695,l),
(217,0,l)
);
}
);
width = 986;
}
);
unicode = 87;
},
{
glyphname = X;
kernLeft = X;
kernRight = X;
lastChange = "2022-11-12 16:20:26 +0000";
layers = (
{
background = {
shapes = (
{
closed = 1;
nodes = (
(321,316,l),
(582,700,l),
(502,700,l),
(284,378,l)
);
},
{
closed = 1;
nodes = (
(107,700,l),
(27,700,l),
(502,0,l),
(582,0,l)
);
},
{
closed = 1;
nodes = (
(274,378,l),
(17,0,l),
(97,0,l),
(311,316,l)
);
}
);
};
layerId = m01;
shapes = (
{
closed = 1;
nodes = (
(579,0,l),
(579,5,l),
(344,350,l),
(579,695,l),
(579,700,l),
(502,700,l),
(339,459,l),
(310,399,l),
(300,399,l),
(271,459,l),
(107,700,l),
(30,700,l),
(30,695,l),
(260,357,l),
(20,5,l),
(20,0,l),
(97,0,l),
(265,249,l),
(294,309,l),
(304,309,l),
(333,249,l),
(502,0,l)
);
}
);
width = 609;
}
);
unicode = 88;
},
{
glyphname = Y;
kernLeft = V;
kernRight = V;
lastChange = "2022-11-12 16:23:03 +0000";
layers = (
{
anchors = (
{
name = bottom;
pos = (286,0);
},
{
name = top;
pos = (286,700);
},
{
name = topleft;
pos = (17,700);
}
);
background = {
shapes = (
{
closed = 1;
nodes = (
(7,700,l),
(251,270,l),
(251,0,l),
(321,0,l),
(321,270,l),
(555,700,l),
(475,700,l),
(312,389,l),
(290,324,l),
(280,324,l),
(258,389,l),
(87,700,l)
);
}
);
};
layerId = m01;
shapes = (
{
closed = 1;
nodes = (
(321,0,l),
(321,270,l),
(552,695,l),
(552,700,l),
(475,700,l),
(312,389,l),
(290,324,l),
(280,324,l),
(258,389,l),
(87,700,l),
(10,700,l),
(10,695,l),
(251,270,l),
(251,0,l)
);
}
);
width = 572;
}
);
unicode = 89;
},
{
glyphname = Z;
kernLeft = Z;
kernRight = Z;
lastChange = "2022-11-03 16:02:51 +0000";
layers = (
{
background = {
shapes = (
{
closed = 1;
nodes = (
(150,120,l),
(509,630,l),
(510,630,l),
(510,700,l),
(60,700,l),
(60,630,l),
(434,630,l),
(434,620,l),
(389,580,l),
(30,70,l),
(30,0,l),
(530,0,l),
(530,70,l),
(115,70,l)
);
}
);
};
layerId = m01;
shapes = (
{
closed = 1;
nodes = (
(530,0,l),
(530,70,l),
(105,70,l),
(105,80,l),
(150,120,l),
(509,630,l),
(510,630,l),
(510,700,l),
(60,700,l),
(60,630,l),
(434,630,l),
(434,620,l),
(389,580,l),
(30,70,l),
(30,0,l)
);
}
);
width = 570;
}
);
unicode = 90;
},
{
glyphname = R.ss01;
kernLeft = I;
kernRight = R.ss01;
lastChange = "2022-11-02 14:41:14 +0000";
layers = (
{
background = {
shapes = (
{
closed = 1;
nodes = (
(485,0,l),
(575,0,l),
(332,329,l),
(274,291,l)
);
},
{
closed = 1;
nodes = (
(120,0,l),
(120,700,l),
(50,700,l),
(50,0,l)
);
},
{
closed = 1;
nodes = (
(341,280,l),
(465,280,o),
(556,365,o),
(556,490,cs),
(556,614,o),
(465,700,o),
(341,700,c),
(330,635,l),
(415,635,o),
(486,581,o),
(486,490,cs),
(486,399,o),
(415,345,o),
(330,345,c)
);
},
{
closed = 1;
nodes = (
(74,700,l),
(74,635,l),
(331,635,l),
(341,700,l)
);
},
{
closed = 1;
nodes = (
(74,345,l),
(74,280,l),
(341,280,l),
(331,345,l)
);
}
);
};
layerId = m01;
shapes = (
{
closed = 1;
nodes = (
(120,0,l),
(120,260,l),
(473,260,l),
(472,0,l),
(542,0,l),
(542,315,l),
(476,315,l),
(416,310,l),
(416,320,l),
(476,356,l),
(507,391,o),
(526,436,o),
(526,490,cs),
(526,624,o),
(435,700,o),
(301,700,cs),
(50,700,l),
(50,0,l)
);
},
{
closed = 1;
nodes = (
(120,635,l),
(290,635,ls),
(385,635,o),
(456,581,o),
(456,480,cs),
(456,379,o),
(385,325,o),
(300,325,cs),
(120,325,l)
);
}
);
width = 602;
}
);
},
{
glyphname = S_y;
kernLeft = O;
kernRight = v;
lastChange = "2022-11-05 16:23:50 +0000";
layers = (
{
layerId = m01;
shapes = (
{
closed = 1;
nodes = (
(641,201,l),
(641,345,o),
(499,369,o),
(369,391,cs),
(259,409,o),
(158,426,o),
(158,513,c),
(83,513,l),
(83,365,o),
(224,343,o),
(354,323,cs),
(464,307,o),
(565,291,o),
(565,201,c)
);
},
{
closed = 1;
nodes = (
(502,-15,o),
(641,65,o),
(641,201,c),
(565,201,l),
(565,89,o),
(451,50,o),
(371,50,cs),
(215,50,o),
(130,145,o),
(105,253,c),
(40,219,l),
(80,82,o),
(178,-15,o),
(371,-15,cs)
);
},
{
closed = 1;
nodes = (
(644,441,cs),
(828,20,l),
(735,-195,l),
(735,-200,l),
(798,-200,l),
(1100,495,l),
(1100,500,l),
(1029,500,l),
(881,146,l),
(865,86,l),
(855,86,l),
(838,146,l),
(688,496,ls),
(632,624,o),
(537,715,o),
(363,715,cs),
(218,715,o),
(83,641,o),
(83,513,c),
(158,513,l),
(158,607,o),
(269,650,o),
(363,650,cs),
(498,650,o),
(582,584,o)
);
}
);
width = 1130;
}
);
metricLeft = S;
metricRight = y;
},
{
glyphname = a;
kernLeft = a;
kernRight = a;
lastChange = "2022-11-21 18:12:29 +0000";
layers = (
{
background = {
shapes = (
{
closed = 1;
nodes = (
(279,-15,o),
(339,13,o),
(379,57,c),
(408,112,l),
(418,112,l),
(420,57,l),
(428,0,l),
(494,0,l),
(494,5,l),
(464,210,l),
(464,343,l),
(398,358,l),
(398,284,o),
(327,282,o),
(238,276,cs),
(125,269,o),
(40,236,o),
(40,127,cs),
(40,53,o),
(101,-15,o),
(208,-15,cs)
);
},
{
closed = 1;
nodes = (
(110,191,o),
(157,211,o),
(238,216,cs),
(310,221,o),
(364,227,o),
(398,258,c),
(398,220,ls),
(398,122,o),
(330,45,o),
(220,45,cs),
(155,45,o),
(110,80,o),
(110,132,cs)
);
},
{
closed = 1;
nodes = (
(464,456,o),
(376,515,o),
(279,515,cs),
(157,515,o),
(89,446,o),
(59,364,c),
(120,341,l),
(140,401,o),
(185,455,o),
(279,455,cs),
(339,455,o),
(398,422,o),
(398,358,c),
(464,343,l)
);
}
);
};
layerId = m01;
shapes = (
{
closed = 1;
nodes = (
(279,-15,o),
(339,13,o),
(379,57,c),
(408,112,l),
(418,112,l),
(420,57,l),
(428,0,l),
(494,0,l),
(494,5,l),
(464,210,l),
(464,343,l),
(398,358,l),
(398,284,o),
(327,282,o),
(238,276,cs),
(125,269,o),
(40,236,o),
(40,127,cs),
(40,53,o),
(101,-15,o),
(208,-15,cs)
);
},
{
closed = 1;
nodes = (
(107,191,o),
(154,216,o),
(238,221,cs),
(310,225,o),
(364,232,o),
(398,263,c),
(398,220,ls),
(398,122,o),
(330,45,o),
(220,45,cs),
(152,45,o),
(107,80,o),
(107,132,cs)
);
},
{
closed = 1;
nodes = (
(464,456,o),
(376,515,o),
(279,515,cs),
(157,515,o),
(89,446,o),
(59,364,c),
(120,341,l),
(140,401,o),
(185,455,o),
(279,455,cs),
(339,455,o),
(398,422,o),
(398,358,c),
(464,343,l)
);
}
);
width = 544;
}
);
unicode = 97;
},
{
glyphname = ae;
kernLeft = a;
kernRight = o;
lastChange = "2022-11-21 18:11:21 +0000";
layers = (
{
background = {
shapes = (
{
closed = 1;
nodes = (
(279,-15,o),
(339,13,o),
(379,57,c),
(408,112,l),
(418,112,l),
(420,57,l),
(428,0,l),
(494,0,l),
(494,5,l),
(464,210,l),
(464,333,l),
(398,348,l),
(398,284,o),
(327,278,o),
(228,271,cs),
(150,265,o),
(40,246,o),
(40,127,cs),
(40,53,o),
(101,-15,o),
(208,-15,cs)
);
},
{
closed = 1;
nodes = (
(110,206,o),
(182,212,o),
(258,218,cs),
(310,222,o),
(364,227,o),
(398,253,c),
(398,220,ls),
(398,122,o),
(330,45,o),
(220,45,cs),
(155,45,o),
(110,80,o),
(110,132,cs)
);
},
{
closed = 1;
nodes = (
(464,446,o),
(376,515,o),
(279,515,cs),
(157,515,o),
(89,446,o),
(59,364,c),
(120,341,l),
(140,401,o),
(185,455,o),
(279,455,cs),
(339,455,o),
(398,422,o),
(398,348,c),
(464,333,l)
);
},
{
closed = 1;
nodes = (
(780,-15,o),
(859,48,o),
(898,139,c),
(841,168,l),
(812,96,o),
(755,45,o),
(660,45,cs),
(534,45,o),
(464,138,o),
(465,250,c),
(422,219,l),
(899,219,l),
(900,229,o),
(901,239,o),
(901,249,cs),
(901,396,o),
(801,515,o),
(650,515,cs),
(498,515,o),
(398,396,o),
(398,250,cs),
(398,103,o),
(498,-15,o),
(660,-15,cs)
);
},
{
closed = 1;
nodes = (
(463,361,o),
(533,455,o),
(650,455,cs),
(766,455,o),
(837,361,o),
(836,247,c),
(879,279,l),
(422,279,l),
(466,247,l)
);
}
);
};
layerId = m01;
shapes = (
{
closed = 1;
nodes = (
(279,-15,o),
(343,12,o),
(393,77,c),
(417,132,l),
(427,132,l),
(456,77,l),
(501,21,o),
(571,-15,o),
(660,-15,cs),
(780,-15,o),
(859,48,o),
(898,139,c),
(841,168,l),
(812,96,o),
(755,45,o),
(660,45,cs),
(570,45,o),
(505,91,o),
(481,160,cs),
(474,180,ls),
(470,193,o),
(468,206,o),
(467,219,c),
(899,219,l),
(900,229,o),
(901,239,o),
(901,249,cs),
(901,396,o),
(801,515,o),
(650,515,cs),
(589,515,o),
(536,496,o),
(495,463,c),
(452,403,l),
(442,403,l),
(412,463,l),
(377,497,o),
(329,515,o),
(279,515,cs),
(157,515,o),
(89,446,o),
(59,364,c),
(120,341,l),
(140,401,o),
(185,455,o),
(279,455,cs),
(339,455,o),
(398,422,o),
(398,358,cs),
(398,284,o),
(327,278,o),
(228,271,cs),
(140,265,o),
(40,246,o),
(40,127,cs),
(40,53,o),
(101,-15,o),
(208,-15,cs)
);
},
{
closed = 1;
nodes = (
(110,206,o),
(172,216,o),
(258,223,cs),
(310,227,o),
(364,232,o),
(398,258,c),
(398,220,ls),
(398,122,o),
(330,45,o),
(220,45,cs),
(155,45,o),
(110,80,o),
(110,132,cs)
);
},
{
closed = 1;
nodes = (
(477,378,o),
(544,455,o),
(650,455,cs),
(755,455,o),
(823,378,o),
(834,279,c),
(467,279,l)
);
}
);
width = 951;
}
);
metricLeft = a;
metricRight = e;
unicode = 230;
},
{
glyphname = b;
kernLeft = b;
kernRight = o;
lastChange = "2022-11-02 14:40:52 +0000";
layers = (
{
background = {
shapes = (
{
closed = 1;
nodes = (
(516,-15,o),
(631,104,o),
(631,250,cs),
(631,396,o),
(516,515,o),
(364,515,cs),
(281,515,o),
(208,474,o),
(161,411,c),
(161,760,l),
(98,760,l),
(98,249,l),
(30,5,l),
(30,0,l),
(94,0,l),
(118,89,l),
(126,149,l),
(136,149,l),
(160,89,l),
(207,26,o),
(281,-15,o),
(364,-15,cs)
);
},
{
closed = 1;
nodes = (
(162,362,o),
(249,455,o),
(364,455,cs),
(480,455,o),
(566,362,o),
(566,250,cs),
(566,138,o),
(480,45,o),
(364,45,cs),
(249,45,o),
(162,138,o),
(162,250,cs)
);
}
);
};
layerId = m01;
shapes = (
{
closed = 1;
nodes = (
(516,-15,o),
(631,104,o),
(631,250,cs),
(631,396,o),
(516,515,o),
(364,515,cs),
(306,515,o),
(253,495,o),
(210,461,c),
(171,401,l),
(161,401,l),
(161,461,l),
(161,760,l),
(98,760,l),
(98,249,l),
(30,5,l),
(30,0,l),
(94,0,l),
(118,89,l),
(126,149,l),
(136,149,l),
(160,89,l),
(207,26,o),
(281,-15,o),
(364,-15,cs)
);
},
{
closed = 1;
nodes = (
(162,362,o),
(249,455,o),
(364,455,cs),
(480,455,o),
(566,362,o),
(566,250,cs),
(566,138,o),
(480,45,o),
(364,45,cs),
(249,45,o),
(162,138,o),
(162,250,cs)
);
}
);
width = 671;
}
);
unicode = 98;
},
{
glyphname = c;
kernLeft = o;
kernRight = o;
lastChange = "2022-11-02 14:08:55 +0000";
layers = (
{
anchors = (
{
name = bottom;
pos = (294,0);
},
{
name = top;
pos = (292,500);
}
);
background = {
shapes = (
{
closed = 1;
nodes = (
(490,175,l),
(463,89,o),
(388,32,o),
(292,32,cs),
(168,32,o),
(82,123,o),
(82,250,cs),
(82,377,o),
(168,468,o),
(292,468,cs),
(388,468,o),
(463,411,o),
(491,324,c),
(538,342,l),
(502,444,o),
(410,515,o),
(292,515,cs),
(139,515,o),
(29,396,o),
(29,250,cs),
(29,102,o),
(139,-15,o),
(292,-15,cs),
(409,-15,o),
(501,55,o),
(537,156,c)
);
}
);
};
layerId = m01;
shapes = (
{
closed = 1;
nodes = (
(411,-15,o),
(506,56,o),
(541,156,c),
(481,181,l),
(456,102,o),
(384,45,o),
(294,45,cs),
(178,45,o),
(97,138,o),
(97,250,cs),
(97,362,o),
(176,455,o),
(292,455,cs),
(382,455,o),
(451,398,o),
(477,319,c),
(537,342,l),
(502,443,o),
(409,515,o),
(292,515,cs),
(140,515,o),
(30,396,o),
(30,250,cs),
(30,103,o),
(142,-15,o),
(294,-15,cs)
);
}
);
width = 581;
}
);
unicode = 99;
},
{
glyphname = d;
kernLeft = o;
kernRight = d;
lastChange = "2022-11-02 14:36:45 +0000";
layers = (
{
background = {
shapes = (
{
closed = 1;
nodes = (
(380,-15,o),
(454,26,o),
(501,89,c),
(525,149,l),
(535,149,l),
(543,89,l),
(567,0,l),
(629,0,l),
(563,249,l),
(563,760,l),
(500,760,l),
(500,411,l),
(453,474,o),
(380,515,o),
(297,515,cs),
(145,515,o),
(30,396,o),
(30,250,cs),
(30,104,o),
(145,-15,o),
(297,-15,cs)
);
},
{
closed = 1;
nodes = (
(95,362,o),
(181,455,o),
(297,455,cs),
(412,455,o),
(499,362,o),
(499,250,cs),
(499,138,o),
(412,45,o),
(297,45,cs),
(181,45,o),
(95,138,o),
(95,250,cs)
);
}
);
};
layerId = m01;
shapes = (
{
closed = 1;
nodes = (
(380,-15,o),
(454,26,o),
(501,89,c),
(525,149,l),
(535,149,l),
(543,89,l),
(567,0,l),
(629,0,l),
(563,249,l),
(563,760,l),
(500,760,l),
(500,461,l),
(500,401,l),
(490,401,l),
(452,461,l),
(409,495,o),
(355,515,o),
(297,515,cs),
(145,515,o),
(30,396,o),
(30,250,cs),
(30,104,o),
(145,-15,o),
(297,-15,cs)
);
},
{
closed = 1;
nodes = (
(95,362,o),
(181,455,o),
(297,455,cs),
(412,455,o),
(499,362,o),
(499,250,cs),
(499,138,o),
(412,45,o),
(297,45,cs),
(181,45,o),
(95,138,o),
(95,250,cs)
);
}
);
width = 669;
}
);
unicode = 100;
},
{
glyphname = eth;
kernLeft = o;
kernRight = o;
lastChange = "2022-11-20 15:26:47 +0000";
layers = (
{
background = {
shapes = (
{
closed = 1;
nodes = (
(450,-15,o),
(563,107,o),
(563,259,cs),
(563,261,o),
(563,277,o),
(563,279,cs),
(562,379,o),
(535,471,o),
(480,564,cs),
(445,624,o),
(406,692,o),
(363,760,c),
(293,760,l),
(293,755,l),
(349,665,o),
(428,538,o),
(469,462,c),
(495,401,l),
(485,401,l),
(436,461,l),
(398,495,o),
(352,515,o),
(287,515,cs),
(145,515,o),
(30,396,o),
(30,250,cs),
(30,104,o),
(145,-15,o),
(297,-15,cs)
);
},
{
closed = 1;
nodes = (
(95,362,o),
(181,455,o),
(297,455,cs),
(412,455,o),
(499,362,o),
(499,250,cs),
(499,138,o),
(412,45,o),
(297,45,cs),
(181,45,o),
(95,138,o),
(95,250,cs)
);
},
{
closed = 1;
nodes = (
(255,556,l),
(544,702,l),
(544,760,l),
(539,760,l),
(250,615,l),
(250,556,l)
);
}
);
};
layerId = m01;
shapes = (
{
closed = 1;
nodes = (
(450,-15,o),
(563,107,o),
(563,259,cs),
(563,261,o),
(563,277,o),
(563,279,cs),
(562,379,o),
(535,471,o),
(480,564,cs),
(445,624,o),
(406,692,o),
(363,760,c),
(293,760,l),
(293,755,l),
(349,665,o),
(428,538,o),
(469,462,c),
(495,401,l),
(485,401,l),
(436,461,l),
(398,495,o),
(352,515,o),
(287,515,cs),
(145,515,o),
(30,396,o),
(30,250,cs),
(30,104,o),
(145,-15,o),
(297,-15,cs)
);
},
{
closed = 1;
nodes = (
(95,362,o),
(181,455,o),
(297,455,cs),
(412,455,o),
(499,362,o),
(499,250,cs),
(499,138,o),
(412,45,o),
(297,45,cs),
(181,45,o),
(95,138,o),
(95,250,cs)
);
},
{
closed = 1;
nodes = (
(255,556,l),
(328,593,l),
(375,623,l),
(404,631,l),
(429,651,l),
(482,671,l),
(544,702,l),
(544,760,l),
(539,760,l),
(456,718,l),
(408,687,l),
(375,678,l),
(352,660,l),
(299,640,l),
(250,615,l),
(250,556,l)
);
}
);
width = 600;
}
);
unicode = 240;
},
{
glyphname = e;
kernLeft = o;
kernRight = o;
lastChange = "2022-11-05 13:18:17 +0000";
layers = (
{
anchors = (
{
name = bottom;
pos = (302,0);
},
{
name = ogonek;
pos = (534,10);
},
{
name = top;
pos = (292,500);
}
);
background = {
shapes = (
{
closed = 1;
nodes = (
(422,-15,o),
(501,48,o),
(540,139,c),
(483,168,l),
(454,96,o),
(397,45,o),
(302,45,cs),
(176,45,o),
(106,138,o),
(107,250,c),
(64,219,l),
(541,219,l),
(542,229,o),
(543,239,o),
(543,249,cs),
(543,396,o),
(443,515,o),
(292,515,cs),
(140,515,o),
(40,396,o),
(40,250,cs),
(40,103,o),
(140,-15,o),
(302,-15,cs)
);
},
{
closed = 1;
nodes = (
(105,361,o),
(175,455,o),
(292,455,cs),
(408,455,o),
(479,361,o),
(478,247,c),
(521,279,l),
(64,279,l),
(108,247,l)
);
}
);
};
layerId = m01;
shapes = (
{
closed = 1;
nodes = (
(422,-15,o),
(501,48,o),
(540,139,c),
(483,168,l),
(454,96,o),
(397,45,o),
(302,45,cs),
(176,45,o),
(106,138,o),
(107,250,c),
(64,219,l),
(541,219,l),
(542,229,o),
(543,239,o),
(543,249,cs),
(543,396,o),
(443,515,o),
(292,515,cs),
(140,515,o),
(40,396,o),
(40,250,cs),
(40,103,o),
(140,-15,o),
(302,-15,cs)
);
},
{
closed = 1;
nodes = (
(105,361,o),
(175,455,o),
(292,455,cs),
(408,455,o),
(479,361,o),
(478,247,c),
(521,279,l),
(64,279,l),
(108,247,l)
);
}
);
width = 593;
}
);
unicode = 101;
},
{
glyphname = f;
kernLeft = t;
kernRight = f;
lastChange = "2022-11-11 14:57:48 +0000";
layers = (
{
layerId = m01;
shapes = (
{
closed = 1;
nodes = (
(195,0,l),
(195,473,l),
(129,473,l),
(129,0,l)
);
},
{
closed = 1;
nodes = (
(341,440,l),
(341,500,l),
(10,500,l),
(10,440,l)
);
},
{
closed = 1;
nodes = (
(195,756,l),
(130,756,l),
(128,475,l),
(195,473,l)
);
},
{
closed = 1;
nodes = (
(350,700,l),
(350,760,l),
(130,760,l),
(130,700,l)
);
}
);
width = 370;
}
);
unicode = 102;
},
{
glyphname = g;
kernLeft = o;
kernRight = g;
lastChange = "2022-11-07 15:36:01 +0000";
layers = (
{
background = {
shapes = (
{
closed = 1;
nodes = (
(420,7,o),
(530,121,o),
(530,261,cs),
(530,401,o),
(420,515,o),
(285,515,cs),
(141,515,o),
(30,401,o),
(30,261,cs),
(30,121,o),
(141,7,o),
(285,7,cs)
);
},
{
closed = 1;
nodes = (
(430,-215,o),
(540,-126,o),
(540,20,c),
(475,20,l),
(475,-91,o),
(394,-155,o),
(279,-155,cs),
(187,-155,o),
(118,-96,o),
(93,-15,c),
(33,-46,l),
(69,-147,o),
(161,-215,o),
(279,-215,cs)
);
},
{
closed = 1;
nodes = (
(166,65,o),
(94,161,o),
(94,261,cs),
(94,361,o),
(166,457,o),
(285,457,cs),
(403,457,o),
(476,361,o),
(476,261,cs),
(476,161,o),
(403,65,o),
(285,65,cs)
);
},
{
closed = 1;
nodes = (
(540,20,l),
(540,261,l),
(590,500,l),
(525,500,l),
(476,261,l),
(475,158,l),
(475,103,l),
(475,20,l)
);
}
);
};
layerId = m01;
shapes = (
{
closed = 1;
nodes = (
(336,7,o),
(383,23,o),
(422,51,c),
(470,106,l),
(480,106,l),
(475,51,l),
(475,20,ls),
(475,-91,o),
(394,-155,o),
(279,-155,cs),
(187,-155,o),
(118,-96,o),
(93,-15,c),
(33,-46,l),
(69,-147,o),
(161,-215,o),
(279,-215,cs),
(430,-215,o),
(540,-126,o),
(540,20,cs),
(540,261,l),
(590,500,l),
(525,500,l),
(511,431,l),
(506,371,l),
(496,371,l),
(467,431,l),
(422,483,o),
(357,515,o),
(285,515,cs),
(141,515,o),
(30,401,o),
(30,261,cs),
(30,121,o),
(141,7,o),
(285,7,cs)
);
},
{
closed = 1;
nodes = (
(94,359,o),
(166,455,o),
(285,455,cs),
(403,455,o),
(476,356,o),
(476,258,cs),
(476,257,ls),
(476,160,o),
(401,67,o),
(285,67,cs),
(166,67,o),
(94,163,o),
(94,261,cs)
);
}
);
width = 630;
}
);
unicode = 103;
},
{
glyphname = h;
lastChange = "2022-11-02 18:33:49 +0000";
layers = (
{
layerId = m01;
shapes = (
{
closed = 1;
nodes = (
(116,-1,l),
(115,760,l),
(50,760,l),
(50,-1,l)
);
},
{
closed = 1;
nodes = (
(478,-1,l),
(477,500,l),
(412,500,l),
(412,-1,l)
);
},
{
closed = 1;
nodes = (
(447,440,l),
(447,500,l),
(80,499,l),
(81,440,l)
);
}
);
width = 538;
}
);
unicode = 104;
},
{
glyphname = i;
kernLeft = i;
kernRight = i;
lastChange = "2022-11-02 14:16:10 +0000";
layers = (
{
anchors = (
{
name = bottom;
pos = (116,0);
},
{
name = top;
pos = (111,500);
}
);
layerId = m01;
shapes = (
{
closed = 1;
nodes = (
(144,0,l),
(144,500,l),
(78,500,l),
(78,0,l)
);
},
{
closed = 1;
nodes = (
(147,594,o),
(176,623,o),
(176,660,cs),
(176,696,o),
(147,725,o),
(111,725,cs),
(74,725,o),
(45,696,o),
(45,660,cs),
(45,623,o),
(74,594,o),
(111,594,cs)
);
}
);
width = 231;
}
);
unicode = 105;
},
{
glyphname = iacute;
lastChange = "2022-10-06 17:47:04 +0000";
layers = (
{
layerId = m01;
shapes = (
{
closed = 1;
nodes = (
(116,0,l),
(116,500,l),
(50,500,l),
(50,0,l)
);
},
{
closed = 1;
nodes = (
(116,560,l),
(191,755,l),
(191,760,l),
(122,760,l),
(55,565,l),
(55,560,l)
);
}
);
width = 201;
}
);
unicode = 237;
},
{
glyphname = icircumflex;
lastChange = "2022-10-29 20:59:49 +0000";
layers = (
{
layerId = m01;
shapes = (
{
closed = 1;
nodes = (
(189,0,l),
(189,500,l),
(123,500,l),
(123,0,l)
);
},
{
closed = 1;
nodes = (
(302,584,l),
(302,589,l),
(187,760,l),
(126,760,l),
(10,589,l),
(10,584,l),
(82,584,l),
(123,645,l),
(151,706,l),
(161,706,l),
(190,646,l),
(231,584,l)
);
}
);
width = 322;
}
);
unicode = 238;
},
{
glyphname = idieresis;
lastChange = "2022-10-06 17:49:01 +0000";
layers = (
{
anchors = (
{
name = _top;
pos = (297,500);
},
{
name = top;
pos = (297,725);
}
);
layerId = m01;
shapes = (
{
closed = 1;
nodes = (
(207,0,l),
(207,500,l),
(141,500,l),
(141,0,l)
);
},
{
closed = 1;
nodes = (
(303,594,o),
(332,623,o),
(332,660,cs),
(332,696,o),
(303,725,o),
(267,725,cs),
(230,725,o),
(201,696,o),
(201,660,cs),
(201,623,o),
(230,594,o),
(267,594,cs)
);
},
{
closed = 1;
nodes = (
(122,594,o),
(151,623,o),
(151,660,cs),
(151,696,o),
(122,725,o),
(86,725,cs),
(49,725,o),
(20,696,o),
(20,660,cs),
(20,623,o),
(49,594,o),
(86,594,cs)
);
}
);
width = 362;
}
);
unicode = 239;
},
{
glyphname = igrave;
lastChange = "2022-10-06 17:48:55 +0000";
layers = (
{
layerId = m01;
shapes = (
{
closed = 1;
nodes = (
(151,0,l),
(151,500,l),
(85,500,l),
(85,0,l)
);
},
{
closed = 1;
nodes = (
(146,565,l),
(79,760,l),
(10,760,l),
(10,755,l),
(85,560,l),
(146,560,l)
);
}
);
width = 211;
}
);
unicode = 236;
},
{
glyphname = j;
lastChange = "2022-11-02 14:47:21 +0000";
layers = (
{
layerId = m01;
shapes = (
{
closed = 1;
nodes = (
(151,-200,l),
(151,500,l),
(86,500,l),
(86,-200,l)
);
},
{
closed = 1;
nodes = (
(156,594,o),
(185,623,o),
(185,660,cs),
(185,696,o),
(156,725,o),
(120,725,cs),
(83,725,o),
(54,696,o),
(54,660,cs),
(54,623,o),
(83,594,o),
(120,594,cs)
);
},
{
closed = 1;
nodes = (
(-40,-200,l),
(114,-200,l),
(114,-141,l),
(-40,-141,l)
);
}
);
width = 235;
}
);
unicode = 106;
},
{
glyphname = jdotless;
lastChange = "2022-10-26 14:15:18 +0000";
layers = (
{
layerId = m01;
shapes = (
{
closed = 1;
nodes = (
(151,-200,l),
(151,500,l),
(86,500,l),
(86,-200,l)
);
},
{
closed = 1;
nodes = (
(-40,-200,l),
(114,-200,l),
(114,-141,l),
(-40,-141,l)
);
}
);
width = 201;
}
);
metricLeft = j;
metricRight = j;
unicode = 567;
},
{
glyphname = jacute;
lastChange = "2022-10-26 14:15:21 +0000";
layers = (
{
layerId = m01;
shapes = (
{
closed = 1;
nodes = (
(151,560,l),
(226,755,l),
(226,760,l),
(157,760,l),
(90,565,l),
(90,560,l)
);
},
{
closed = 1;
nodes = (
(151,-200,l),
(151,500,l),
(86,500,l),
(86,-200,l)
);
},
{
closed = 1;
nodes = (
(-40,-200,l),
(114,-200,l),
(114,-141,l),
(-40,-141,l)
);
}
);
width = 276;
}
);
metricLeft = j;
},
{
glyphname = k;
kernLeft = i;
kernRight = k;
lastChange = "2022-10-13 19:43:45 +0000";
layers = (
{
layerId = m01;
shapes = (
{
closed = 1;
nodes = (
(481,0,l),
(481,5,l),
(336,209,l),
(290,254,l),
(290,264,l),
(337,309,l),
(476,495,l),
(476,500,l),
(401,500,l),
(217,259,l),
(401,0,l)
);
},
{
closed = 1;
nodes = (
(249,224,l),
(249,284,l),
(75,284,l),
(75,224,l)
);
},
{
closed = 1;
nodes = (
(126,760,l),
(60,760,l),
(60,1,l),
(125,0,l)
);
}
);
width = 501;
}
);
unicode = 107;
},
{
glyphname = l;
kernLeft = i;
kernRight = i;
lastChange = "2022-10-13 19:43:50 +0000";
layers = (
{
layerId = m01;
shapes = (
{
closed = 1;
nodes = (
(126,760,l),
(60,760,l),
(60,1,l),
(125,0,l)
);
}
);
width = 196;
}
);
unicode = 108;
},
{
glyphname = m;
lastChange = "2022-11-02 14:59:18 +0000";
layers = (
{
layerId = m01;
shapes = (
{
closed = 1;
nodes = (
(728,-1,l),
(727,500,l),
(662,500,l),
(662,-1,l)
);
},
{
closed = 1;
nodes = (
(116,-1,l),
(115,500,l),
(50,500,l),
(50,-1,l)
);
},
{
closed = 1;
nodes = (
(116,-1,l),
(115,500,l),
(50,500,l),
(50,-1,l)
);
},
{
closed = 1;
nodes = (
(422,-1,l),
(421,500,l),
(356,500,l),
(356,-1,l)
);
},
{
closed = 1;
nodes = (
(422,-1,l),
(421,500,l),
(356,500,l),
(356,-1,l)
);
},
{
closed = 1;
nodes = (
(391,440,l),
(391,500,l),
(80,500,l),
(81,440,l)
);
},
{
closed = 1;
nodes = (
(391,440,l),
(391,500,l),
(80,500,l),
(81,440,l)
);
},
{
closed = 1;
nodes = (
(697,440,l),
(697,500,l),
(409,500,l),
(410,440,l)
);
}
);
width = 788;
}
);
unicode = 109;
},
{
glyphname = n;
lastChange = "2022-11-01 12:37:30 +0000";
layers = (
{
anchors = (
{
name = bottom;
pos = (267,0);
},
{
name = top;
pos = (267,500);
}
);
layerId = m01;
shapes = (
{
closed = 1;
nodes = (
(473,0,l),
(472,500,l),
(407,500,l),
(407,0,l)
);
},
{
closed = 1;
nodes = (
(116,0,l),
(115,500,l),
(50,500,l),
(50,0,l)
);
},
{
closed = 1;
nodes = (
(442,440,l),
(442,500,l),
(80,500,l),
(81,440,l)
);
}
);
width = 533;
}
);
unicode = 110;
},
{
glyphname = o;
kernLeft = o;
kernRight = o;
lastChange = "2022-11-07 15:35:38 +0000";
layers = (
{
anchors = (
{
name = bottom;
pos = (292,0);
},
{
name = center;
pos = (292,250);
},
{
name = ogonek;
pos = (534,10);
},
{
name = top;
pos = (292,500);
},
{
name = topright;
pos = (573,500);
}
);
layerId = m01;
shapes = (
{
closed = 1;
nodes = (
(443,-15,o),
(553,103,o),
(553,249,cs),
(553,396,o),
(443,515,o),
(292,515,cs),
(140,515,o),
(30,396,o),
(30,250,cs),
(30,103,o),
(140,-15,o),
(292,-15,cs)
);
},
{
closed = 1;
nodes = (
(176,45,o),
(97,138,o),
(97,250,cs),
(97,362,o),
(176,455,o),
(292,455,cs),
(407,455,o),
(488,362,o),
(488,249,cs),
(488,138,o),
(407,45,o),
(292,45,cs)
);
}
);
width = 593;
}
);
unicode = 111;
},
{
glyphname = oslash;
kernLeft = o;
kernRight = o;
lastChange = "2022-10-13 19:44:08 +0000";
layers = (
{
background = {
shapes = (
{
closed = 1;
nodes = (
(443,-15,o),
(553,103,o),
(553,249,cs),
(553,396,o),
(443,515,o),
(292,515,cs),
(140,515,o),
(30,396,o),
(30,250,cs),
(30,103,o),
(140,-15,o),
(292,-15,cs)
);
},
{
closed = 1;
nodes = (
(175,45,o),
(96,138,o),
(96,250,cs),
(96,362,o),
(175,455,o),
(291,455,cs),
(406,455,o),
(487,362,o),
(487,249,cs),
(487,138,o),
(406,45,o),
(291,45,cs)
);
},
{
closed = 1;
nodes = (
(177,-15,l),
(472,515,l),
(396,515,l),
(101,-15,l)
);
}
);
};
layerId = m01;
shapes = (
{
closed = 1;
nodes = (
(443,-15,o),
(553,103,o),
(553,249,cs),
(553,396,o),
(443,515,o),
(292,515,cs),
(140,515,o),
(30,396,o),
(30,250,cs),
(30,103,o),
(140,-15,o),
(292,-15,cs)
);
},
{
closed = 1;
nodes = (
(175,45,o),
(96,138,o),
(96,250,cs),
(96,362,o),
(175,455,o),
(291,455,cs),
(406,455,o),
(487,362,o),
(487,249,cs),
(487,138,o),
(406,45,o),
(291,45,cs)
);
},
{
closed = 1;
nodes = (
(456,420,l),
(524,510,l),
(524,515,l),
(451,515,l),
(412,464,l)
);
},
{
closed = 1;
nodes = (
(114,83,l),
(44,-10,l),
(44,-15,l),
(117,-15,l),
(157,37,l)
);
},
{
closed = 1;
nodes = (
(407,464,l),
(119,83,l),
(162,37,l),
(451,420,l)
);
}
);
width = 593;
}
);
metricLeft = o;
metricRight = o;
unicode = 248;
},
{
glyphname = oe;
kernLeft = o;
kernRight = o;
lastChange = "2022-10-13 19:44:09 +0000";
layers = (
{
background = {
shapes = (
{
closed = 1;
nodes = (
(393,-15,o),
(476,38,o),
(520,117,c),
(561,38,o),
(642,-15,o),
(750,-15,cs),
(870,-15,o),
(949,48,o),
(988,139,c),
(931,168,l),
(902,96,o),
(845,45,o),
(750,45,cs),
(636,45,o),
(568,121,o),
(557,219,c),
(989,219,l),
(990,229,o),
(991,239,o),
(991,249,cs),
(991,396,o),
(891,515,o),
(740,515,cs),
(638,515,o),
(560,462,o),
(519,383,c),
(475,462,o),
(393,515,o),
(292,515,cs),
(140,515,o),
(30,396,o),
(30,250,cs),
(30,103,o),
(140,-15,o),
(292,-15,cs)
);
},
{
closed = 1;
nodes = (
(97,362,o),
(176,455,o),
(292,455,cs),
(407,455,o),
(488,362,o),
(488,249,cs),
(488,138,o),
(407,45,o),
(292,45,cs),
(176,45,o),
(97,138,o),
(97,250,cs)
);
},
{
closed = 1;
nodes = (
(567,378,o),
(634,455,o),
(740,455,cs),
(845,455,o),
(913,378,o),
(924,279,c),
(557,279,l)
);
}
);
};
layerId = m01;
shapes = (
{
closed = 1;
nodes = (
(370,-15,o),
(437,16,o),
(484,67,c),
(515,127,l),
(525,127,l),
(554,67,l),
(599,17,o),
(667,-15,o),
(750,-15,cs),
(870,-15,o),
(949,48,o),
(988,139,c),
(931,168,l),
(902,96,o),
(845,45,o),
(750,45,cs),
(636,45,o),
(568,121,o),
(557,219,c),
(989,219,l),
(990,229,o),
(991,239,o),
(991,249,cs),
(991,396,o),
(891,515,o),
(740,515,cs),
(661,515,o),
(597,484,o),
(553,433,c),
(524,373,l),
(514,373,l),
(483,433,l),
(436,484,o),
(370,515,o),
(292,515,cs),
(140,515,o),
(30,396,o),
(30,250,cs),
(30,103,o),
(140,-15,o),
(292,-15,cs)
);
},
{
closed = 1;
nodes = (
(97,362,o),
(176,455,o),
(292,455,cs),
(407,455,o),
(488,362,o),
(488,249,cs),
(488,138,o),
(407,45,o),
(292,45,cs),
(176,45,o),
(97,138,o),
(97,250,cs)
);
},
{
closed = 1;
nodes = (
(567,378,o),
(634,455,o),
(740,455,cs),
(845,455,o),
(913,378,o),
(924,279,c),
(557,279,l)
);
}
);
width = 1041;
}
);
metricLeft = o;
metricRight = e;
unicode = 339;
},
{
glyphname = p;
kernLeft = p;
kernRight = o;
lastChange = "2022-11-02 14:45:48 +0000";
layers = (
{
background = {
shapes = (
{
closed = 1;
nodes = (
(514,-15,o),
(629,104,o),
(629,250,cs),
(629,396,o),
(514,515,o),
(362,515,cs),
(279,515,o),
(206,474,o),
(159,411,c),
(133,356,l),
(124,356,l),
(116,411,l),
(92,500,l),
(31,500,l),
(31,495,l),
(96,251,l),
(96,-200,l),
(159,-200,l),
(159,89,l),
(206,26,o),
(279,-15,o),
(362,-15,cs)
);
},
{
closed = 1;
nodes = (
(160,362,o),
(247,455,o),
(362,455,cs),
(478,455,o),
(564,362,o),
(564,250,cs),
(564,138,o),
(478,45,o),
(362,45,cs),
(247,45,o),
(160,138,o),
(160,250,cs)
);
}
);
};
layerId = m01;
shapes = (
{
closed = 1;
nodes = (
(514,-15,o),
(629,104,o),
(629,250,cs),
(629,396,o),
(514,515,o),
(362,515,cs),
(279,515,o),
(206,474,o),
(159,411,c),
(133,356,l),
(124,356,l),
(116,411,l),
(92,500,l),
(31,500,l),
(31,495,l),
(96,251,l),
(96,-200,l),
(159,-200,l),
(159,39,l),
(159,99,l),
(169,99,l),
(208,39,l),
(251,5,o),
(304,-15,o),
(362,-15,cs)
);
},
{
closed = 1;
nodes = (
(160,362,o),
(247,455,o),
(362,455,cs),
(478,455,o),
(564,362,o),
(564,250,cs),
(564,138,o),
(478,45,o),
(362,45,cs),
(247,45,o),
(160,138,o),
(160,250,cs)
);
}
);
width = 669;
}
);
unicode = 112;
},
{
glyphname = thorn;
kernRight = o;
lastChange = "2022-10-26 14:15:41 +0000";
layers = (
{
layerId = m01;
shapes = (
{
closed = 1;
nodes = (
(478,-15,o),
(593,104,o),
(593,250,cs),
(593,396,o),
(478,515,o),
(326,515,cs),
(268,515,o),
(210,495,o),
(167,461,c),
(126,401,l),
(116,401,l),
(121,461,l),
(121,760,l),
(60,760,l),
(60,-200,l),
(123,-200,l),
(123,39,l),
(118,99,l),
(128,99,l),
(171,39,l),
(214,5,o),
(268,-15,o),
(326,-15,cs)
);
},
{
closed = 1;
nodes = (
(124,362,o),
(211,455,o),
(326,455,cs),
(442,455,o),
(528,362,o),
(528,250,cs),
(528,138,o),
(442,45,o),
(326,45,cs),
(211,45,o),
(124,138,o),
(124,250,cs)
);
}
);
width = 633;
}
);
metricLeft = l;
metricRight = o;
unicode = 254;
},
{
glyphname = q;
kernLeft = o;
kernRight = q;
lastChange = "2022-11-03 15:50:24 +0000";
layers = (
{
background = {
shapes = (
{
closed = 1;
nodes = (
(380,-15,o),
(453,26,o),
(500,89,c),
(500,-200,l),
(563,-200,l),
(563,251,l),
(629,500,l),
(567,500,l),
(543,411,l),
(535,356,l),
(525,356,l),
(501,411,l),
(454,474,o),
(380,515,o),
(297,515,cs),
(145,515,o),
(30,396,o),
(30,250,cs),
(30,104,o),
(145,-15,o),
(297,-15,cs)
);
},
{
closed = 1;
nodes = (
(95,362,o),
(181,455,o),
(297,455,cs),
(412,455,o),
(499,362,o),
(499,250,cs),
(499,138,o),
(412,45,o),
(297,45,cs),
(181,45,o),
(95,138,o),
(95,250,cs)
);
}
);
};
layerId = m01;
shapes = (
{
closed = 1;
nodes = (
(355,-15,o),
(409,5,o),
(452,39,c),
(490,99,l),
(500,99,l),
(500,39,l),
(500,-200,l),
(563,-200,l),
(563,251,l),
(629,495,l),
(629,500,l),
(567,500,l),
(543,411,l),
(535,356,l),
(525,356,l),
(501,411,l),
(454,474,o),
(380,515,o),
(297,515,cs),
(145,515,o),
(30,396,o),
(30,250,cs),
(30,104,o),
(145,-15,o),
(297,-15,cs)
);
},
{
closed = 1;
nodes = (
(95,362,o),
(181,455,o),
(297,455,cs),
(412,455,o),
(499,362,o),
(499,250,cs),
(499,138,o),
(412,45,o),
(297,45,cs),
(181,45,o),
(95,138,o),
(95,250,cs)
);
}
);
width = 669;
}
);
unicode = 113;
},
{
glyphname = r;
kernLeft = r;
kernRight = r;
lastChange = "2022-10-26 12:26:39 +0000";
layers = (
{
background = {
shapes = (
{
closed = 1;
nodes = (
(126,0,l),
(126,500,l),
(60,500,l),
(60,0,l)
);
},
{
closed = 1;
nodes = (
(300,500,l),
(100,500,l),
(100,441,l),
(300,440,l)
);
}
);
};
layerId = m01;
shapes = (
{
closed = 1;
nodes = (
(126,0,l),
(126,500,l),
(60,500,l),
(60,0,l)
);
},
{
closed = 1;
nodes = (
(300,500,l),
(100,500,l),
(100,441,l),
(300,441,l)
);
}
);
width = 330;
}
);
unicode = 114;
},
{
glyphname = s;
kernLeft = o;
kernRight = o;
lastChange = "2022-11-07 14:57:56 +0000";
layers = (
{
background = {
shapes = (
{
closed = 1;
nodes = (
(495,142,l),
(495,346,o),
(129,234,o),
(129,368,c),
(61,368,l),
(61,159,o),
(427,280,o),
(427,142,c)
);
},
{
closed = 1;
nodes = (
(387,-15,o),
(495,43,o),
(495,142,c),
(427,142,l),
(427,75,o),
(350,45,o),
(285,45,cs),
(175,45,o),
(116,102,o),
(90,180,c),
(30,155,l),
(66,55,o),
(148,-15,o),
(285,-15,cs)
);
},
{
closed = 1;
nodes = (
(496,364,l),
(466,446,o),
(398,515,o),
(261,515,cs),
(159,515,o),
(61,461,o),
(61,368,c),
(129,368,l),
(129,422,o),
(196,455,o),
(261,455,cs),
(370,455,o),
(415,401,o),
(435,341,c)
);
}
);
};
layerId = m01;
shapes = (
{
closed = 1;
nodes = (
(495,142,l),
(495,255,o),
(383,271,o),
(283,286,cs),
(202,297,o),
(129,308,o),
(129,368,c),
(61,368,l),
(61,253,o),
(172,238,o),
(272,225,cs),
(353,214,o),
(427,204,o),
(427,142,c)
);
},
{
closed = 1;
nodes = (
(387,-15,o),
(495,43,o),
(495,142,c),
(427,142,l),
(427,75,o),
(350,45,o),
(285,45,cs),
(175,45,o),
(116,102,o),
(90,180,c),
(30,155,l),
(66,55,o),
(148,-15,o),
(285,-15,cs)
);
},
{
closed = 1;
nodes = (
(496,364,l),
(466,446,o),
(398,515,o),
(261,515,cs),
(159,515,o),
(61,461,o),
(61,368,c),
(129,368,l),
(129,422,o),
(196,455,o),
(261,455,cs),
(370,455,o),
(415,401,o),
(435,341,c)
);
}
);
width = 536;
}
);
unicode = 115;
},
{
glyphname = germandbls;
kernLeft = i;
kernRight = o;
lastChange = "2022-10-31 11:44:59 +0000";
layers = (
{
layerId = m01;
shapes = (
{
closed = 1;
nodes = (
(475,0,o),
(576,75,o),
(576,200,cs),
(576,283,o),
(534,336,o),
(469,362,c),
(409,370,l),
(409,370,o),
(409,380,o),
(409,380,c),
(469,407,l),
(499,435,o),
(516,476,o),
(516,530,cs),
(516,639,o),
(425,715,o),
(311,715,c),
(300,655,l),
(385,655,o),
(446,601,o),
(446,520,cs),
(446,429,o),
(395,390,o),
(310,390,cs),
(244,390,l),
(244,330,l),
(350,330,ls),
(435,330,o),
(506,296,o),
(506,200,cs),
(506,106,o),
(425,60,o),
(340,60,c),
(351,0,l)
);
},
{
closed = 1;
nodes = (
(102,0,l),
(122,106,l),
(126,166,l),
(136,166,l),
(152,106,l),
(187,41,o),
(253,0,o),
(351,0,c),
(341,60,l),
(238,60,o),
(150,135,o),
(150,255,cs),
(150,495,l),
(80,505,l),
(80,260,l),
(30,5,l),
(30,0,l)
);
},
{
closed = 1;
nodes = (
(150,620,o),
(225,655,o),
(301,655,c),
(311,715,l),
(180,715,o),
(80,647,o),
(80,505,c),
(150,495,l)
);
}
);
width = 616;
}
);
unicode = 223;
},
{
glyphname = t;
kernLeft = t;
kernRight = t;
lastChange = "2022-11-11 14:57:39 +0000";
layers = (
{
layerId = m01;
shapes = (
{
closed = 1;
nodes = (
(360,59,l),
(195,59,l),
(196,441,l),
(350,441,l),
(350,500,l),
(196,500,l),
(196,657,l),
(130,657,l),
(130,500,l),
(10,500,l),
(10,441,l),
(130,441,l),
(130,0,l),
(360,0,l)
);
}
);
width = 400;
}
);
unicode = 116;
},
{
glyphname = u;
lastChange = "2022-10-31 13:46:28 +0000";
layers = (
{
anchors = (
{
name = bottom;
pos = (262,0);
},
{
name = ogonek;
pos = (472,10);
},
{
name = top;
pos = (262,500);
},
{
name = topright;
pos = (503,500);
}
);
background = {
shapes = (
{
closed = 1;
nodes = (
(425,-15,o),
(535,103,o),
(535,249,cs),
(535,396,o),
(425,515,o),
(274,515,cs),
(122,515,o),
(12,396,o),
(12,250,cs),
(12,103,o),
(122,-15,o),
(274,-15,cs)
);
},
{
closed = 1;
nodes = (
(158,45,o),
(79,138,o),
(79,250,cs),
(79,362,o),
(158,455,o),
(274,455,cs),
(389,455,o),
(470,362,o),
(470,249,cs),
(470,138,o),
(389,45,o),
(274,45,cs)
);
}
);
};
layerId = m01;
shapes = (
{
closed = 1;
nodes = (
(472,0,l),
(473,500,l),
(407,500,l),
(407,0,l)
);
},
{
closed = 1;
nodes = (
(442,0,l),
(442,59,l),
(81,59,l),
(80,0,l)
);
},
{
closed = 1;
nodes = (
(115,0,l),
(116,500,l),
(50,500,l),
(50,0,l)
);
}
);
width = 533;
}
);
unicode = 117;
},
{
glyphname = v;
kernLeft = v;
kernRight = v;
lastChange = "2022-11-02 14:46:00 +0000";
layers = (
{
background = {
shapes = (
{
closed = 1;
nodes = (
(18,500,l),
(224,0,l),
(289,0,l),
(488,500,l),
(415,500,l),
(275,134,l),
(261,74,l),
(251,74,l),
(236,134,l),
(91,500,l)
);
}
);
};
layerId = m01;
shapes = (
{
closed = 1;
nodes = (
(289,0,l),
(486,495,l),
(486,500,l),
(415,500,l),
(275,134,l),
(261,74,l),
(251,74,l),
(236,134,l),
(91,500,l),
(20,500,l),
(20,495,l),
(224,0,l)
);
}
);
width = 516;
}
);
unicode = 118;
},
{
glyphname = w;
kernLeft = v;
kernRight = v;
lastChange = "2022-11-02 14:46:08 +0000";
layers = (
{
anchors = (
{
name = bottom;
pos = (412,0);
},
{
name = top;
pos = (412,500);
}
);
background = {
shapes = (
{
closed = 1;
nodes = (
(629,0,l),
(805,500,l),
(732,500,l),
(612,143,l),
(600,83,l),
(590,83,l),
(577,143,l),
(448,500,l),
(375,500,l),
(246,143,l),
(233,83,l),
(223,83,l),
(211,143,l),
(91,500,l),
(18,500,l),
(194,0,l),
(259,0,l),
(393,353,l),
(407,413,l),
(417,413,l),
(431,353,l),
(564,0,l)
);
}
);
};
layerId = m01;
shapes = (
{
closed = 1;
nodes = (
(629,0,l),
(803,495,l),
(803,500,l),
(732,500,l),
(612,143,l),
(600,83,l),
(590,83,l),
(577,143,l),
(448,500,l),
(375,500,l),
(246,143,l),
(233,83,l),
(223,83,l),
(211,143,l),
(91,500,l),
(20,500,l),
(20,495,l),
(194,0,l),
(259,0,l),
(393,353,l),
(407,413,l),
(417,413,l),
(431,353,l),
(564,0,l)
);
}
);
width = 833;
}
);
unicode = 119;
},
{
glyphname = x;
kernLeft = x;
kernRight = x;
lastChange = "2022-10-31 12:10:50 +0000";
layers = (
{
background = {
shapes = (
{
closed = 1;
nodes = (
(274,233,l),
(466,500,l),
(390,500,l),
(234,283,l)
);
},
{
closed = 1;
nodes = (
(35,500,l),
(395,0,l),
(471,0,l),
(111,500,l)
);
},
{
closed = 1;
nodes = (
(224,283,l),
(20,0,l),
(96,0,l),
(264,233,l)
);
}
);
};
layerId = m01;
shapes = (
{
closed = 1;
nodes = (
(96,0,l),
(209,156,l),
(240,216,l),
(250,216,l),
(281,156,l),
(395,0,l),
(471,0,l),
(471,5,l),
(290,254,l),
(466,495,l),
(466,500,l),
(390,500,l),
(287,357,l),
(256,297,l),
(246,297,l),
(215,357,l),
(111,500,l),
(35,500,l),
(35,495,l),
(207,259,l),
(20,5,l),
(20,0,l)
);
}
);
width = 501;
}
);
unicode = 120;
},
{
glyphname = y;
kernLeft = v;
kernRight = v;
lastChange = "2022-11-05 12:57:35 +0000";
layers = (
{
anchors = (
{
name = bottom;
pos = (270,0);
},
{
name = top;
pos = (268,500);
}
);
background = {
shapes = (
{
closed = 1;
nodes = (
(209,-200,l),
(511,495,l),
(511,500,l),
(440,500,l),
(292,146,l),
(276,86,l),
(266,86,l),
(249,146,l),
(96,500,l),
(25,500,l),
(25,495,l),
(239,20,l),
(144,-200,l)
);
}
);
};
layerId = m01;
shapes = (
{
closed = 1;
nodes = (
(210,-200,l),
(514,495,l),
(514,500,l),
(440,500,l),
(292,146,l),
(276,86,l),
(266,86,l),
(249,146,l),
(96,500,l),
(20,500,l),
(20,495,l),
(234,20,l),
(141,-195,l),
(141,-200,l)
);
}
);
width = 544;
}
);
unicode = 121;
},
{
glyphname = z;
kernLeft = z;
kernRight = z;
lastChange = "2022-10-31 13:30:27 +0000";
layers = (
{
layerId = m01;
shapes = (
{
closed = 1;
nodes = (
(452,0,l),
(452,60,l),
(112,59,l),
(112,69,l),
(163,109,l),
(435,440,l),
(435,500,l),
(43,499,l),
(44,440,l),
(364,440,l),
(364,430,l),
(313,390,l),
(40,59,l),
(41,0,l)
);
}
);
width = 502;
}
);
unicode = 122;
},
{
glyphname = a.ss01;
kernLeft = o;
kernRight = a;
lastChange = "2022-11-01 18:25:20 +0000";
layers = (
{
anchors = (
{
name = bottom;
pos = (297,0);
},
{
name = ogonek;
pos = (602,10);
},
{
name = top;
pos = (297,500);
}
);
background = {
shapes = (
{
closed = 1;
nodes = (
(380,-15,o),
(454,26,o),
(501,89,c),
(525,149,l),
(535,149,l),
(543,89,l),
(567,0,l),
(628,0,l),
(628,5,l),
(563,249,l),
(615,495,l),
(615,500,l),
(553,500,l),
(525,369,l),
(483,456,o),
(397,515,o),
(297,515,cs),
(145,515,o),
(30,396,o),
(30,250,cs),
(30,104,o),
(145,-15,o),
(297,-15,cs)
);
},
{
closed = 1;
nodes = (
(95,362,o),
(181,455,o),
(297,455,cs),
(412,455,o),
(499,362,o),
(499,250,cs),
(499,138,o),
(412,45,o),
(297,45,cs),
(181,45,o),
(95,138,o),
(95,250,cs)
);
}
);
};
layerId = m01;
shapes = (
{
closed = 1;
nodes = (
(95,362,o),
(181,455,o),
(297,455,cs),
(412,455,o),
(499,362,o),
(499,250,cs),
(499,138,o),
(412,45,o),
(297,45,cs),
(181,45,o),
(95,138,o),
(95,250,cs)
);
},
{
closed = 1;
nodes = (
(380,-15,o),
(454,26,o),
(501,89,c),
(525,149,l),
(535,149,l),
(543,89,l),
(567,0,l),
(629,0,l),
(563,249,l),
(563,500,l),
(500,500,l),
(500,461,l),
(500,401,l),
(490,401,l),
(452,461,l),
(409,495,o),
(355,515,o),
(297,515,cs),
(145,515,o),
(30,396,o),
(30,250,cs),
(30,104,o),
(145,-15,o),
(297,-15,cs)
);
}
);
width = 669;
}
);
},
{
glyphname = g.ss01;
kernLeft = o;
kernRight = g;
lastChange = "2022-11-07 14:50:23 +0000";
layers = (
{
background = {
shapes = (
{
closed = 1;
nodes = (
(354,-15,o),
(407,5,o),
(450,38,c),
(497,97,l),
(507,97,l),
(499,38,l),
(499,-145,l),
(86,-145,l),
(86,-200,l),
(563,-200,l),
(563,249,l),
(615,495,l),
(615,500,l),
(553,500,l),
(525,369,l),
(483,456,o),
(397,515,o),
(297,515,cs),
(145,515,o),
(30,396,o),
(30,250,cs),
(30,104,o),
(145,-15,o),
(297,-15,cs)
);
},
{
closed = 1;
nodes = (
(95,362,o),
(181,455,o),
(297,455,cs),
(412,455,o),
(499,362,o),
(499,250,cs),
(499,138,o),
(412,45,o),
(297,45,cs),
(181,45,o),
(95,138,o),
(95,250,cs)
);
}
);
};
layerId = m01;
shapes = (
{
closed = 1;
nodes = (
(354,-15,o),
(407,5,o),
(450,38,c),
(497,97,l),
(507,97,l),
(499,38,l),
(499,-145,l),
(86,-145,l),
(86,-200,l),
(563,-200,l),
(563,249,l),
(615,495,l),
(615,500,l),
(553,500,l),
(536,419,l),
(530,359,l),
(520,359,l),
(494,419,l),
(447,478,o),
(376,515,o),
(297,515,cs),
(145,515,o),
(30,396,o),
(30,250,cs),
(30,104,o),
(145,-15,o),
(297,-15,cs)
);
},
{
closed = 1;
nodes = (
(95,362,o),
(181,455,o),
(297,455,cs),
(412,455,o),
(499,362,o),
(499,250,cs),
(499,138,o),
(412,45,o),
(297,45,cs),
(181,45,o),
(95,138,o),
(95,250,cs)
);
}
);
width = 655;
}
);
},
{
glyphname = y.ss01;
kernLeft = v;
kernRight = v;
lastChange = "2022-11-05 12:57:07 +0000";
layers = (
{
anchors = (
{
name = bottom;
pos = (268,0);
},
{
name = top;
pos = (268,500);
}
);
background = {
shapes = (
{
closed = 1;
nodes = (
(18,500,l),
(234,20,l),
(234,-215,l),
(299,-215,l),
(299,20,l),
(508,500,l),
(435,500,l),
(287,146,l),
(271,86,l),
(261,86,l),
(244,146,l),
(91,500,l)
);
}
);
};
layerId = m01;
shapes = (
{
closed = 1;
nodes = (
(299,-200,l),
(299,20,l),
(506,495,l),
(506,500,l),
(435,500,l),
(287,146,l),
(271,86,l),
(261,86,l),
(244,146,l),
(91,500,l),
(20,500,l),
(20,495,l),
(234,20,l),
(234,-200,l)
);
},
{
closed = 1;
nodes = (
(269,-145,l),
(36,-145,l),
(36,-200,l),
(269,-200,l)
);
}
);
width = 536;
}
);
},
{
glyphname = yring.ss01;
lastChange = "2022-11-05 12:57:25 +0000";
layers = (
{
anchors = (
{
name = bottom;
pos = (258,0);
},
{
name = top;
pos = (273,760);
}
);
layerId = m01;
shapes = (
{
closed = 1;
nodes = (
(322,549,o),
(369,596,o),
(369,655,cs),
(369,713,o),
(322,760,o),
(259,760,cs),
(195,760,o),
(148,713,o),
(148,655,cs),
(148,596,o),
(195,549,o),
(259,549,cs)
);
},
{
closed = 1;
nodes = (
(229,597,o),
(205,621,o),
(206,655,cs),
(205,688,o),
(229,711,o),
(259,711,cs),
(288,711,o),
(311,688,o),
(311,655,cs),
(311,621,o),
(288,597,o),
(259,597,cs)
);
},
{
pos = (-5,0);
ref = y.ss01;
}
);
width = 516;
}
);
},
{
glyphname = f_f;
kernLeft = t;
kernRight = f;
lastChange = "2022-11-07 15:05:49 +0000";
layers = (
{
layerId = m01;
shapes = (
{
closed = 1;
nodes = (
(506,0,l),
(506,473,l),
(440,473,l),
(440,0,l)
);
},
{
closed = 1;
nodes = (
(195,0,l),
(195,473,l),
(129,473,l),
(129,0,l)
);
},
{
closed = 1;
nodes = (
(341,440,l),
(341,500,l),
(10,500,l),
(10,440,l)
);
},
{
closed = 1;
nodes = (
(195,756,l),
(130,756,l),
(128,475,l),
(195,473,l)
);
},
{
closed = 1;
nodes = (
(652,440,l),
(652,500,l),
(320,500,l),
(321,440,l)
);
},
{
closed = 1;
nodes = (
(349,700,l),
(349,760,l),
(130,760,l),
(130,700,l)
);
},
{
closed = 1;
nodes = (
(506,756,l),
(441,756,l),
(439,475,l),
(506,473,l)
);
},
{
closed = 1;
nodes = (
(660,700,l),
(660,760,l),
(441,760,l),
(441,700,l)
);
}
);
width = 680;
}
);
metricLeft = f;
metricRight = f;
},
{
glyphname = f_f_t;
kernLeft = t;
kernRight = t;
lastChange = "2022-11-07 15:06:03 +0000";
layers = (
{
layerId = m01;
shapes = (
{
closed = 1;
nodes = (
(195,0,l),
(195,473,l),
(129,473,l),
(129,0,l)
);
},
{
closed = 1;
nodes = (
(341,440,l),
(341,500,l),
(10,500,l),
(10,440,l)
);
},
{
closed = 1;
nodes = (
(195,756,l),
(130,756,l),
(128,475,l),
(195,473,l)
);
},
{
closed = 1;
nodes = (
(350,700,l),
(350,760,l),
(130,760,l),
(130,700,l)
);
},
{
closed = 1;
nodes = (
(996,59,l),
(831,59,l),
(832,440,l),
(986,440,l),
(986,500,l),
(832,500,l),
(832,657,l),
(766,657,l),
(766,500,l),
(646,500,l),
(646,440,l),
(766,440,l),
(766,0,l),
(996,0,l)
);
},
{
closed = 1;
nodes = (
(521,0,l),
(521,473,l),
(455,473,l),
(455,0,l)
);
},
{
closed = 1;
nodes = (
(667,440,l),
(667,500,l),
(336,500,l),
(336,440,l)
);
},
{
closed = 1;
nodes = (
(521,757,l),
(456,757,l),
(454,475,l),
(521,473,l)
);
},
{
closed = 1;
nodes = (
(676,701,l),
(676,760,l),
(456,760,l),
(456,701,l)
);
}
);
width = 1036;
}
);
metricLeft = f;
metricRight = t;
},
{
glyphname = f_i;
kernLeft = t;
lastChange = "2022-11-07 15:22:11 +0000";
layers = (
{
background = {
shapes = (
{
closed = 1;
nodes = (
(469,0,l),
(469,500,l),
(403,500,l),
(403,0,l)
);
},
{
closed = 1;
nodes = (
(195,0,l),
(195,473,l),
(129,473,l),
(129,0,l)
);
},
{
closed = 1;
nodes = (
(411,440,l),
(411,500,l),
(10,500,l),
(10,440,l)
);
},
{
closed = 1;
nodes = (
(195,757,l),
(130,757,l),
(128,475,l),
(195,473,l)
);
},
{
closed = 1;
nodes = (
(349,701,l),
(350,760,l),
(130,760,l),
(130,701,l)
);
},
{
closed = 1;
nodes = (
(472,594,o),
(501,623,o),
(501,660,cs),
(501,696,o),
(472,725,o),
(436,725,cs),
(399,725,o),
(370,696,o),
(370,660,cs),
(370,623,o),
(399,594,o),
(436,594,cs)
);
}
);
};
layerId = m01;
shapes = (
{
closed = 1;
nodes = (
(506,0,l),
(506,500,l),
(440,500,l),
(440,0,l)
);
},
{
closed = 1;
nodes = (
(195,0,l),
(195,473,l),
(129,473,l),
(129,0,l)
);
},
{
closed = 1;
nodes = (
(448,440,l),
(448,500,l),
(10,500,l),
(10,440,l)
);
},
{
closed = 1;
nodes = (
(195,757,l),
(130,757,l),
(128,475,l),
(195,473,l)
);
},
{
closed = 1;
nodes = (
(386,701,l),
(386,760,l),
(130,760,l),
(130,701,l)
);
}
);
width = 561;
}
);
metricLeft = f;
metricRight = i;
},
{
glyphname = f_l;
kernLeft = t;
lastChange = "2022-11-07 15:22:09 +0000";
layers = (
{
layerId = m01;
shapes = (
{
closed = 1;
nodes = (
(506,760,l),
(440,760,l),
(440,1,l),
(505,0,l)
);
},
{
closed = 1;
nodes = (
(195,0,l),
(195,473,l),
(129,473,l),
(129,0,l)
);
},
{
closed = 1;
nodes = (
(341,440,l),
(341,500,l),
(10,500,l),
(10,440,l)
);
},
{
closed = 1;
nodes = (
(195,756,l),
(130,756,l),
(128,475,l),
(195,473,l)
);
},
{
closed = 1;
nodes = (
(469,700,l),
(470,760,l),
(130,760,l),
(130,700,l)
);
}
);
width = 576;
}
);
metricLeft = f;
metricRight = l;
},
{
glyphname = f_t;
kernLeft = t;
kernRight = t;
lastChange = "2022-11-07 15:06:26 +0000";
layers = (
{
layerId = m01;
shapes = (
{
closed = 1;
nodes = (
(670,59,l),
(505,59,l),
(506,440,l),
(660,440,l),
(660,500,l),
(506,500,l),
(506,657,l),
(440,657,l),
(440,500,l),
(320,500,l),
(320,440,l),
(440,440,l),
(440,0,l),
(670,0,l)
);
},
{
closed = 1;
nodes = (
(195,0,l),
(195,473,l),
(129,473,l),
(129,0,l)
);
},
{
closed = 1;
nodes = (
(341,440,l),
(341,500,l),
(10,500,l),
(10,440,l)
);
},
{
closed = 1;
nodes = (
(195,757,l),
(130,757,l),
(128,475,l),
(195,473,l)
);
},
{
closed = 1;
nodes = (
(350,701,l),
(350,760,l),
(130,760,l),
(130,701,l)
);
}
);
width = 710;
}
);
metricLeft = f;
metricRight = t;
},
{
glyphname = f_t_t;
kernLeft = t;
kernRight = t;
lastChange = "2022-11-07 15:06:31 +0000";
layers = (
{
layerId = m01;
shapes = (
{
closed = 1;
nodes = (
(195,0,l),
(195,473,l),
(129,473,l),
(129,0,l)
);
},
{
closed = 1;
nodes = (
(341,440,l),
(341,500,l),
(10,500,l),
(10,440,l)
);
},
{
closed = 1;
nodes = (
(195,756,l),
(130,756,l),
(128,475,l),
(195,473,l)
);
},
{
closed = 1;
nodes = (
(350,700,l),
(350,760,l),
(130,760,l),
(130,700,l)
);
},
{
closed = 1;
nodes = (
(985,59,l),
(820,59,l),
(821,440,l),
(975,440,l),
(975,500,l),
(821,500,l),
(821,657,l),
(755,657,l),
(755,500,l),
(635,500,l),
(635,440,l),
(755,440,l),
(755,0,l),
(985,0,l)
);
},
{
closed = 1;
nodes = (
(665,59,l),
(500,59,l),
(501,440,l),
(655,440,l),
(655,500,l),
(501,500,l),
(501,657,l),
(435,657,l),
(435,500,l),
(315,500,l),
(315,440,l),
(435,440,l),
(435,0,l),
(665,0,l)
);
}
);
width = 1025;
}
);
metricLeft = f;
metricRight = t;
},
{
glyphname = r_t;
kernRight = t;
lastChange = "2022-11-07 15:06:36 +0000";
layers = (
{
layerId = m01;
shapes = (
{
closed = 1;
nodes = (
(126,0,l),
(126,500,l),
(60,500,l),
(60,0,l)
);
},
{
closed = 1;
nodes = (
(300,500,l),
(100,500,l),
(100,441,l),
(300,441,l)
);
},
{
closed = 1;
nodes = (
(600,59,l),
(435,59,l),
(436,441,l),
(590,441,l),
(590,500,l),
(436,500,l),
(436,657,l),
(370,657,l),
(370,500,l),
(250,500,l),
(250,441,l),
(370,441,l),
(370,0,l),
(600,0,l)
);
}
);
width = 640;
}
);
metricLeft = r;
metricRight = t;
},
{
glyphname = s_t;
kernRight = t;
lastChange = "2022-11-07 15:06:43 +0000";
layers = (
{
layerId = m01;
shapes = (
{
closed = 1;
nodes = (
(891,59,l),
(726,59,l),
(727,440,l),
(881,440,l),
(881,500,l),
(727,500,l),
(727,627,l),
(661,627,l),
(661,500,l),
(541,500,l),
(541,440,l),
(661,440,l),
(661,0,l),
(891,0,l)
);
},
{
closed = 1;
nodes = (
(387,-15,o),
(495,43,o),
(495,142,c),
(427,142,l),
(427,75,o),
(350,45,o),
(285,45,cs),
(175,45,o),
(116,102,o),
(90,180,c),
(30,155,l),
(66,55,o),
(148,-15,o),
(285,-15,cs)
);
},
{
closed = 1;
nodes = (
(495,142,l),
(495,255,o),
(383,271,o),
(283,286,cs),
(202,297,o),
(129,308,o),
(129,368,c),
(61,368,l),
(61,253,o),
(172,238,o),
(272,225,cs),
(353,214,o),
(427,204,o),
(427,142,c)
);
},
{
closed = 1;
nodes = (
(496,364,l),
(466,446,o),
(398,515,o),
(261,515,cs),
(159,515,o),
(61,461,o),
(61,368,c),
(129,368,l),
(129,422,o),
(196,455,o),
(261,455,cs),
(370,455,o),
(415,401,o),
(435,341,c)
);
},
{
closed = 1;
nodes = (
(322,470,l),
(322,628,l),
(727,627,l),
(727,682,l),
(263,682,l),
(262,565,l),
(262,470,l)
);
}
);
width = 931;
}
);
metricLeft = s;
metricRight = t;
},
{
glyphname = t_t;
kernLeft = t;
kernRight = t;
lastChange = "2022-11-07 15:06:46 +0000";
layers = (
{
layerId = m01;
shapes = (
{
closed = 1;
nodes = (
(680,59,l),
(515,59,l),
(516,440,l),
(670,440,l),
(670,500,l),
(516,500,l),
(516,657,l),
(450,657,l),
(450,500,l),
(330,500,l),
(330,440,l),
(450,440,l),
(450,0,l),
(680,0,l)
);
},
{
closed = 1;
nodes = (
(360,59,l),
(195,59,l),
(196,440,l),
(350,440,l),
(350,500,l),
(196,500,l),
(196,657,l),
(130,657,l),
(130,500,l),
(10,500,l),
(10,440,l),
(130,440,l),
(130,0,l),
(360,0,l)
);
}
);
width = 720;
}
);
metricLeft = t;
metricRight = t;
},
{
glyphname = w_w_w;
kernLeft = v;
kernRight = v;
lastChange = "2022-11-07 15:07:00 +0000";
layers = (
{
background = {
shapes = (
{
closed = 1;
nodes = (
(2057,0,l),
(1876,500,l),
(1803,500,l),
(1992,0,l)
);
},
{
closed = 1;
nodes = (
(259,0,l),
(91,500,l),
(18,500,l),
(194,0,l)
);
},
{
closed = 1;
nodes = (
(259,0,l),
(448,500,l),
(375,500,l),
(194,0,l)
);
},
{
closed = 1;
nodes = (
(629,0,l),
(448,500,l),
(375,500,l),
(564,0,l)
);
},
{
closed = 1;
nodes = (
(629,0,l),
(805,500,l),
(732,500,l),
(564,0,l)
);
},
{
closed = 1;
nodes = (
(973,0,l),
(805,500,l),
(732,500,l),
(908,0,l)
);
},
{
closed = 1;
nodes = (
(973,0,l),
(1162,500,l),
(1089,500,l),
(908,0,l)
);
},
{
closed = 1;
nodes = (
(1343,0,l),
(1162,500,l),
(1089,500,l),
(1278,0,l)
);
},
{
closed = 1;
nodes = (
(1343,0,l),
(1519,500,l),
(1446,500,l),
(1278,0,l)
);
},
{
closed = 1;
nodes = (
(1687,0,l),
(1519,500,l),
(1446,500,l),
(1622,0,l)
);
},
{
closed = 1;
nodes = (
(1687,0,l),
(1876,500,l),
(1803,500,l),
(1622,0,l)
);
},
{
closed = 1;
nodes = (
(2057,0,l),
(2233,500,l),
(2160,500,l),
(1992,0,l)
);
}
);
};
layerId = m01;
shapes = (
{
closed = 1;
nodes = (
(629,0,l),
(750,344,l),
(763,404,l),
(773,404,l),
(785,344,l),
(906,0,l),
(971,0,l),
(1105,353,l),
(1119,413,l),
(1129,413,l),
(1143,353,l),
(1276,0,l),
(1341,0,l),
(1462,344,l),
(1475,404,l),
(1485,404,l),
(1498,344,l),
(1618,0,l),
(1683,0,l),
(1817,353,l),
(1831,413,l),
(1841,413,l),
(1855,353,l),
(1988,0,l),
(2053,0,l),
(2227,495,l),
(2227,500,l),
(2156,500,l),
(2036,143,l),
(2024,83,l),
(2014,83,l),
(2001,143,l),
(1872,500,l),
(1799,500,l),
(1670,143,l),
(1657,83,l),
(1647,83,l),
(1635,143,l),
(1515,500,l),
(1444,500,l),
(1324,143,l),
(1312,83,l),
(1302,83,l),
(1289,143,l),
(1160,500,l),
(1087,500,l),
(958,143,l),
(945,83,l),
(935,83,l),
(923,143,l),
(803,500,l),
(732,500,l),
(612,143,l),
(600,83,l),
(590,83,l),
(577,143,l),
(448,500,l),
(375,500,l),
(246,143,l),
(233,83,l),
(223,83,l),
(211,143,l),
(91,500,l),
(20,500,l),
(20,495,l),
(194,0,l),
(259,0,l),
(393,353,l),
(407,413,l),
(417,413,l),
(431,353,l),
(564,0,l)
);
}
);
width = 2257;
}
);
metricLeft = w;
metricRight = w;
},
{
glyphname = zero;
lastChange = "2022-10-29 20:53:33 +0000";
layers = (
{
layerId = m01;
shapes = (
{
closed = 1;
nodes = (
(479,-15,o),
(580,147,o),
(580,349,cs),
(580,551,o),
(479,715,o),
(311,715,cs),
(141,715,o),
(40,551,o),
(40,350,cs),
(40,147,o),
(141,-15,o),
(311,-15,cs)
);
},
{
closed = 1;
nodes = (
(181,50,o),
(118,176,o),
(118,350,cs),
(118,524,o),
(181,650,o),
(311,650,cs),
(439,650,o),
(505,524,o),
(505,349,cs),
(505,176,o),
(439,50,o),
(311,50,cs)
);
}
);
width = 630;
}
);
unicode = 48;
},
{
glyphname = one;
lastChange = "2022-11-02 21:27:45 +0000";
layers = (
{
layerId = m01;
shapes = (
{
closed = 1;
nodes = (
(278,0,l),
(278,700,l),
(218,700,l),
(208,630,l),
(208,0,l)
);
},
{
closed = 1;
nodes = (
(209,565,l),
(209,630,l),
(10,630,l),
(10,565,l)
);
}
);
width = 398;
}
);
unicode = 49;
},
{
glyphname = two;
lastChange = "2022-10-26 11:59:44 +0000";
layers = (
{
layerId = m01;
shapes = (
{
closed = 1;
nodes = (
(40,0,l),
(511,0,l),
(511,70,l),
(181,70,l),
(121,65,l),
(121,75,l),
(181,114,l),
(369,294,ls),
(442,364,o),
(499,425,o),
(499,523,cs),
(499,641,o),
(404,715,o),
(284,715,cs),
(155,715,o),
(70,630,o),
(40,507,c),
(104,480,l),
(134,591,o),
(199,650,o),
(284,650,cs),
(353,650,o),
(424,607,o),
(424,513,cs),
(424,430,o),
(369,391,o),
(288,313,cs),
(40,75,l)
);
}
);
width = 561;
}
);
unicode = 50;
},
{
glyphname = three;
lastChange = "2022-10-29 20:56:18 +0000";
layers = (
{
background = {
shapes = (
{
closed = 1;
nodes = (
(40,161,l),
(61,66,o),
(145,-15,o),
(277,-15,cs),
(416,-15,o),
(508,84,o),
(508,199,cs),
(508,290,o),
(453,382,o),
(348,404,c),
(288,404,l),
(288,414,l),
(348,469,l),
(479,624,l),
(479,700,l),
(90,700,l),
(90,635,l),
(415,635,l),
(415,625,l),
(372,595,l),
(217,409,l),
(216,348,l),
(294,348,ls),
(368,348,o),
(437,291,o),
(437,209,cs),
(437,132,o),
(381,50,o),
(277,50,cs),
(180,50,o),
(116,117,o),
(107,186,c)
);
},
{
closed = 1;
nodes = (
(155,535,l),
(155,700,l),
(85,700,l),
(85,535,l)
);
}
);
};
layerId = m01;
shapes = (
{
closed = 1;
nodes = (
(40,161,l),
(61,66,o),
(145,-15,o),
(277,-15,cs),
(416,-15,o),
(508,84,o),
(508,199,cs),
(508,290,o),
(453,382,o),
(348,404,c),
(288,404,l),
(288,414,l),
(348,469,l),
(479,624,l),
(479,700,l),
(90,700,l),
(90,635,l),
(415,635,l),
(415,625,l),
(372,595,l),
(217,409,l),
(216,348,l),
(294,348,ls),
(368,348,o),
(437,291,o),
(437,209,cs),
(437,132,o),
(381,50,o),
(277,50,cs),
(180,50,o),
(116,117,o),
(107,186,c)
);
},
{
closed = 1;
nodes = (
(155,535,l),
(155,700,l),
(85,700,l),
(85,535,l)
);
}
);
width = 558;
}
);
unicode = 51;
},
{
glyphname = four;
lastChange = "2022-11-02 21:21:07 +0000";
layers = (
{
background = {
shapes = (
{
closed = 1;
nodes = (
(350,217,l),
(350,0,l),
(420,0,l),
(420,222,l),
(515,222,l),
(515,282,l),
(420,282,l),
(420,500,l),
(350,500,l),
(350,282,l),
(125,282,l),
(313,695,l),
(313,700,l),
(245,700,l),
(45,270,l),
(45,217,l)
);
}
);
};
layerId = m01;
shapes = (
{
closed = 1;
nodes = (
(350,217,l),
(350,0,l),
(420,0,l),
(420,222,l),
(515,222,l),
(515,282,l),
(420,282,l),
(420,500,l),
(350,500,l),
(350,282,l),
(175,282,l),
(115,277,l),
(115,287,l),
(148,332,l),
(313,695,l),
(313,700,l),
(245,700,l),
(40,270,l),
(40,217,l)
);
}
);
width = 565;
}
);
unicode = 52;
},
{
glyphname = five;
lastChange = "2022-10-26 12:00:42 +0000";
layers = (
{
background = {
shapes = (
{
closed = 1;
nodes = (
(413,-15,o),
(511,89,o),
(511,219,cs),
(511,348,o),
(414,453,o),
(290,453,cs),
(255,453,o),
(218,445,o),
(185,427,c),
(135,377,l),
(125,377,l),
(143,437,l),
(174,635,l),
(469,635,l),
(469,700,l),
(120,700,l),
(55,306,l),
(121,279,l),
(142,344,o),
(208,388,o),
(280,388,cs),
(378,388,o),
(441,312,o),
(441,219,cs),
(441,126,o),
(376,50,o),
(268,50,cs),
(187,50,o),
(131,97,o),
(110,164,c),
(40,136,l),
(71,47,o),
(155,-15,o),
(268,-15,cs)
);
}
);
};
layerId = m01;
shapes = (
{
closed = 1;
nodes = (
(413,-15,o),
(511,89,o),
(511,219,cs),
(511,348,o),
(414,453,o),
(290,453,cs),
(255,453,o),
(218,445,o),
(185,427,c),
(135,377,l),
(125,377,l),
(143,437,l),
(174,635,l),
(469,635,l),
(469,700,l),
(120,700,l),
(55,306,l),
(119,280,l),
(121,280,l),
(143,344,o),
(208,388,o),
(280,388,cs),
(378,388,o),
(441,312,o),
(441,219,cs),
(441,126,o),
(376,50,o),
(268,50,cs),
(187,50,o),
(131,97,o),
(110,164,c),
(40,136,l),
(71,47,o),
(155,-15,o),
(268,-15,cs)
);
}
);
width = 561;
}
);
unicode = 53;
},
{
glyphname = six;
lastChange = "2022-11-02 21:17:02 +0000";
layers = (
{
background = {
shapes = (
{
closed = 1;
nodes = (
(413,-15,o),
(508,88,o),
(508,214,cs),
(508,341,o),
(413,445,o),
(282,445,cs),
(279,445,o),
(276,445,o),
(273,445,c),
(208,423,l),
(208,433,l),
(253,488,l),
(378,695,l),
(378,700,l),
(306,700,l),
(93,344,ls),
(70,306,o),
(55,263,o),
(55,215,cs),
(55,88,o),
(150,-15,o),
(282,-15,cs)
);
},
{
closed = 1;
nodes = (
(121,307,o),
(186,385,o),
(282,385,cs),
(377,385,o),
(444,307,o),
(444,214,cs),
(444,123,o),
(377,45,o),
(282,45,cs),
(186,45,o),
(121,123,o),
(121,215,cs)
);
}
);
};
layerId = m01;
shapes = (
{
closed = 1;
nodes = (
(418,-15,o),
(513,88,o),
(513,214,cs),
(513,341,o),
(418,445,o),
(282,445,cs),
(279,445,o),
(276,445,o),
(273,445,c),
(208,423,l),
(208,433,l),
(253,488,l),
(378,695,l),
(378,700,l),
(301,700,l),
(98,362,ls),
(65,306,o),
(50,263,o),
(50,215,cs),
(50,88,o),
(145,-15,o),
(282,-15,cs)
);
},
{
closed = 1;
nodes = (
(122,304,o),
(185,380,o),
(282,380,cs),
(378,380,o),
(443,304,o),
(443,214,cs),
(443,126,o),
(378,50,o),
(282,50,cs),
(185,50,o),
(122,126,o),
(122,215,cs)
);
}
);
width = 553;
}
);
unicode = 54;
},
{
glyphname = seven;
lastChange = "2022-11-12 16:45:18 +0000";
layers = (
{
background = {
shapes = (
{
closed = 1;
nodes = (
(63,5,l),
(63,0,l),
(145,0,l),
(465,635,l),
(465,700,l),
(5,700,l),
(5,635,l),
(385,635,l)
);
},
{
closed = 1;
nodes = (
(5,535,l),
(75,535,l),
(75,700,l),
(5,700,l)
);
},
{
closed = 1;
nodes = (
(335,585,l),
(385,585,l),
(385,635,l),
(335,635,l)
);
}
);
};
layerId = m01;
shapes = (
{
closed = 1;
nodes = (
(165,0,l),
(465,635,l),
(465,700,l),
(30,700,l),
(30,635,l),
(400,635,l),
(400,625,l),
(364,585,l),
(93,5,l),
(93,0,l)
);
},
{
closed = 1;
nodes = (
(100,535,l),
(100,700,l),
(30,700,l),
(30,535,l)
);
}
);
width = 505;
}
);
unicode = 55;
},
{
glyphname = eight;
lastChange = "2022-10-26 12:02:58 +0000";
layers = (
{
background = {
shapes = (
{
closed = 1;
nodes = (
(405,-15,o),
(498,79,o),
(498,196,cs),
(498,314,o),
(405,409,o),
(270,409,cs),
(134,409,o),
(40,313,o),
(40,197,cs),
(40,79,o),
(134,-15,o),
(270,-15,cs)
);
},
{
closed = 1;
nodes = (
(113,276,o),
(172,343,o),
(270,343,cs),
(367,343,o),
(428,276,o),
(428,196,cs),
(428,118,o),
(367,51,o),
(270,51,cs),
(172,51,o),
(113,118,o),
(113,197,cs)
);
},
{
closed = 1;
nodes = (
(387,357,o),
(466,437,o),
(466,535,cs),
(466,634,o),
(387,715,o),
(270,715,cs),
(152,715,o),
(73,633,o),
(73,536,cs),
(73,437,o),
(152,357,o),
(270,357,cs)
);
},
{
closed = 1;
nodes = (
(134,602,o),
(186,658,o),
(270,658,cs),
(353,658,o),
(406,602,o),
(406,535,cs),
(406,470,o),
(353,414,o),
(270,414,cs),
(186,414,o),
(134,470,o),
(134,536,cs)
);
}
);
};
layerId = m01;
shapes = (
{
closed = 1;
nodes = (
(405,-15,o),
(498,74,o),
(498,191,cs),
(498,247,o),
(469,309,o),
(409,347,c),
(349,365,l),
(349,365,o),
(349,375,o),
(349,375,c),
(409,400,l),
(449,431,o),
(471,478,o),
(471,535,cs),
(471,634,o),
(392,715,o),
(270,715,cs),
(147,715,o),
(68,633,o),
(68,536,cs),
(68,479,o),
(91,432,o),
(130,400,c),
(190,375,l),
(190,375,o),
(190,365,o),
(190,365,c),
(130,347,l),
(70,309,o),
(40,247,o),
(40,192,cs),
(40,74,o),
(134,-15,o),
(270,-15,cs)
);
},
{
closed = 1;
nodes = (
(113,261,o),
(172,333,o),
(270,333,cs),
(367,333,o),
(428,261,o),
(428,191,cs),
(428,113,o),
(367,51,o),
(270,51,cs),
(172,51,o),
(113,113,o),
(113,192,cs)
);
},
{
closed = 1;
nodes = (
(134,600,o),
(184,654,o),
(270,654,cs),
(355,654,o),
(406,600,o),
(406,535,cs),
(406,462,o),
(355,408,o),
(270,408,cs),
(184,408,o),
(134,462,o),
(134,536,cs)
);
}
);
width = 548;
}
);
unicode = 56;
},
{
glyphname = nine;
lastChange = "2022-11-02 21:22:20 +0000";
layers = (
{
layerId = m01;
shapes = (
{
closed = 1;
nodes = (
(135,700,o),
(40,597,o),
(40,471,cs),
(40,344,o),
(135,240,o),
(266,240,cs),
(269,240,o),
(272,240,o),
(275,240,c),
(340,262,l),
(340,252,l),
(295,197,l),
(170,-10,l),
(170,-15,l),
(242,-15,l),
(455,341,ls),
(478,379,o),
(493,422,o),
(493,470,cs),
(493,597,o),
(398,700,o),
(266,700,cs)
);
},
{
closed = 1;
nodes = (
(422,381,o),
(359,305,o),
(266,305,cs),
(174,305,o),
(109,381,o),
(109,471,cs),
(109,559,o),
(174,635,o),
(266,635,cs),
(359,635,o),
(422,559,o),
(422,470,cs)
);
}
);
width = 543;
}
);
unicode = 57;
},
{
glyphname = period;
kernLeft = .;
kernRight = .;
lastChange = "2022-11-02 21:17:05 +0000";
layers = (
{
layerId = m01;
shapes = (
{
closed = 1;
nodes = (
(155,-15,o),
(191,21,o),
(191,66,cs),
(191,110,o),
(155,146,o),
(111,146,cs),
(66,146,o),
(30,110,o),
(30,66,cs),
(30,21,o),
(66,-15,o),
(111,-15,cs)
);
}
);
width = 231;
}
);
unicode = 46;
},
{
glyphname = comma;
lastChange = "2022-11-02 21:27:49 +0000";
layers = (
{
layerId = m01;
shapes = (
{
closed = 1;
nodes = (
(76,-150,l),
(130,60,l),
(60,60,l),
(10,-150,l)
);
}
);
width = 150;
}
);
unicode = 44;
},
{
glyphname = colon;
lastChange = "2022-11-02 21:16:50 +0000";
layers = (
{
layerId = m01;
shapes = (
{
closed = 1;
nodes = (
(155,354,o),
(191,390,o),
(191,435,cs),
(191,479,o),
(155,515,o),
(111,515,cs),
(66,515,o),
(30,479,o),
(30,435,cs),
(30,390,o),
(66,354,o),
(111,354,cs)
);
},
{
closed = 1;
nodes = (
(155,-15,o),
(191,21,o),
(191,66,cs),
(191,110,o),
(155,146,o),
(111,146,cs),
(66,146,o),
(30,110,o),
(30,66,cs),
(30,21,o),
(66,-15,o),
(111,-15,cs)
);
}
);
width = 231;
}
);
unicode = 58;
},
{
glyphname = semicolon;
lastChange = "2022-10-31 11:51:03 +0000";
layers = (
{
layerId = m01;
shapes = (
{
closed = 1;
nodes = (
(175,354,o),
(211,390,o),
(211,435,cs),
(211,479,o),
(175,515,o),
(131,515,cs),
(86,515,o),
(50,479,o),
(50,435,cs),
(50,390,o),
(86,354,o),
(131,354,cs)
);
},
{
closed = 1;
nodes = (
(96,-150,l),
(150,60,l),
(80,60,l),
(30,-150,l)
);
}
);
width = 251;
}
);
unicode = 59;
},
{
glyphname = exclam;
lastChange = "2022-10-29 20:18:55 +0000";
layers = (
{
layerId = m01;
shapes = (
{
closed = 1;
nodes = (
(166,275,l),
(166,700,l),
(96,700,l),
(96,275,l)
);
},
{
closed = 1;
nodes = (
(175,-15,o),
(211,21,o),
(211,66,cs),
(211,110,o),
(175,146,o),
(131,146,cs),
(86,146,o),
(50,110,o),
(50,66,cs),
(50,21,o),
(86,-15,o),
(131,-15,cs)
);
}
);
width = 271;
}
);
unicode = 33;
},
{
glyphname = exclamdown;
lastChange = "2022-10-26 14:16:28 +0000";
layers = (
{
layerId = m01;
shapes = (
{
closed = 1;
nodes = (
(76,-200,l),
(146,-200,l),
(146,225,l),
(76,225,l)
);
},
{
closed = 1;
nodes = (
(66,515,o),
(30,479,o),
(30,434,cs),
(30,390,o),
(66,354,o),
(111,354,cs),
(155,354,o),
(191,390,o),
(191,434,cs),
(191,479,o),
(155,515,o),
(111,515,cs)
);
}
);
width = 231;
}
);
unicode = 161;
},
{
glyphname = question;
lastChange = "2022-11-11 14:58:18 +0000";
layers = (
{
background = {
shapes = (
{
closed = 1;
nodes = (
(94,586,o),
(144,650,o),
(244,650,cs),
(333,650,o),
(404,602,o),
(404,508,c),
(479,518,l),
(479,636,o),
(384,715,o),
(244,715,cs),
(105,715,o),
(30,630,o),
(10,557,c),
(74,525,l)
);
},
{
closed = 1;
nodes = (
(233,-15,o),
(269,21,o),
(269,66,cs),
(269,110,o),
(233,146,o),
(189,146,cs),
(144,146,o),
(108,110,o),
(108,66,cs),
(108,21,o),
(144,-15,o),
(189,-15,cs)
);
},
{
closed = 1;
nodes = (
(225,218,l),
(225,378,l),
(155,378,l),
(155,218,l)
);
},
{
closed = 1;
nodes = (
(274,318,l),
(264,378,l),
(155,378,l),
(155,318,l)
);
},
{
closed = 1;
nodes = (
(276,318,l),
(383,318,o),
(479,397,o),
(479,518,c),
(404,508,l),
(404,428,o),
(342,378,o),
(264,378,c),
(274,318,l)
);
}
);
};
layerId = m01;
shapes = (
{
closed = 1;
nodes = (
(89,588,o),
(144,655,o),
(244,655,cs),
(338,655,o),
(409,602,o),
(409,508,c),
(479,518,l),
(479,636,o),
(384,715,o),
(244,715,cs),
(110,715,o),
(30,630,o),
(10,557,c),
(69,527,l)
);
},
{
closed = 1;
nodes = (
(231,-15,o),
(267,21,o),
(267,66,cs),
(267,110,o),
(231,146,o),
(187,146,cs),
(142,146,o),
(106,110,o),
(106,66,cs),
(106,21,o),
(142,-15,o),
(187,-15,cs)
);
},
{
closed = 1;
nodes = (
(220,218,l),
(220,378,l),
(155,378,l),
(155,218,l)
);
},
{
closed = 1;
nodes = (
(274,323,l),
(264,378,l),
(155,378,l),
(155,323,l)
);
},
{
closed = 1;
nodes = (
(276,323,l),
(383,323,o),
(479,402,o),
(479,518,c),
(409,508,l),
(409,428,o),
(347,378,o),
(264,378,c),
(274,323,l)
);
}
);
width = 499;
}
);
unicode = 63;
},
{
glyphname = questiondown;
lastChange = "2022-11-11 14:57:01 +0000";
layers = (
{
layerId = m01;
shapes = (
{
closed = 1;
nodes = (
(410,-88,o),
(355,-155,o),
(255,-155,cs),
(161,-155,o),
(90,-102,o),
(90,-8,c),
(20,-18,l),
(20,-136,o),
(115,-215,o),
(255,-215,cs),
(389,-215,o),
(469,-130,o),
(489,-57,c),
(430,-27,l)
);
},
{
closed = 1;
nodes = (
(268,515,o),
(232,479,o),
(232,434,cs),
(232,390,o),
(268,354,o),
(312,354,cs),
(357,354,o),
(393,390,o),
(393,434,cs),
(393,479,o),
(357,515,o),
(312,515,cs)
);
},
{
closed = 1;
nodes = (
(279,282,l),
(279,122,l),
(344,122,l),
(344,282,l)
);
},
{
closed = 1;
nodes = (
(225,177,l),
(235,122,l),
(344,122,l),
(344,177,l)
);
},
{
closed = 1;
nodes = (
(223,177,l),
(116,177,o),
(20,98,o),
(20,-18,c),
(90,-8,l),
(90,72,o),
(152,122,o),
(235,122,c),
(225,177,l)
);
}
);
width = 499;
}
);
unicode = 191;
},
{
glyphname = periodcentered;
lastChange = "2022-11-12 16:45:22 +0000";
layers = (
{
layerId = m01;
shapes = (
{
closed = 1;
nodes = (
(155,195,o),
(191,231,o),
(191,276,cs),
(191,320,o),
(155,356,o),
(111,356,cs),
(66,356,o),
(30,320,o),
(30,276,cs),
(30,231,o),
(66,195,o),
(111,195,cs)
);
}
);
width = 231;
}
);
unicode = 183;
},
{
glyphname = bullet;
lastChange = "2022-11-12 16:45:15 +0000";
layers = (
{
layerId = m01;
shapes = (
{
closed = 1;
nodes = (
(194,170,o),
(241,217,o),
(241,276,cs),
(241,334,o),
(194,381,o),
(136,381,cs),
(77,381,o),
(30,334,o),
(30,276,cs),
(30,217,o),
(77,170,o),
(136,170,cs)
);
}
);
width = 281;
}
);
unicode = 8226;
},
{
glyphname = asterisk;
lastChange = "2022-10-30 19:36:56 +0000";
layers = (
{
layerId = m01;
shapes = (
{
closed = 1;
nodes = (
(186,679,l),
(197,610,l),
(127,619,l),
(20,620,l),
(20,574,l),
(127,574,l),
(197,583,l),
(188,514,l),
(188,408,l),
(232,408,l),
(232,514,l),
(221,583,l),
(292,573,l),
(404,573,l),
(404,620,l),
(291,620,l),
(221,610,l),
(233,680,l),
(233,785,l),
(186,785,l)
);
},
{
closed = 1;
nodes = (
(138,642,l),
(198,597,l),
(139,550,l),
(62,475,l),
(88,450,l),
(163,526,l),
(210,585,l),
(256,526,l),
(331,451,l),
(356,476,l),
(281,551,l),
(220,595,l),
(281,642,l),
(360,721,l),
(335,748,l),
(254,667,l),
(208,607,l),
(163,669,l),
(89,743,l),
(63,717,l)
);
}
);
width = 434;
}
);
unicode = 42;
},
{
glyphname = numbersign;
lastChange = "2022-11-12 18:29:15 +0000";
layers = (
{
background = {
shapes = (
{
closed = 1;
nodes = (
(140,0,l),
(228,206,l),
(453,206,l),
(367,5,l),
(367,0,l),
(440,0,l),
(528,206,l),
(661,206,l),
(692,265,l),
(692,270,l),
(556,270,l),
(627,436,l),
(754,436,l),
(785,495,l),
(785,500,l),
(654,500,l),
(738,695,l),
(738,700,l),
(665,700,l),
(579,500,l),
(354,500,l),
(438,695,l),
(438,700,l),
(365,700,l),
(279,500,l),
(132,500,l),
(103,441,l),
(103,436,l),
(252,436,l),
(181,270,l),
(39,270,l),
(10,211,l),
(10,206,l),
(153,206,l),
(67,5,l),
(67,0,l)
);
},
{
closed = 1;
nodes = (
(306,386,l),
(327,436,l),
(377,436,l),
(552,436,l),
(481,270,l),
(256,270,l)
);
}
);
};
layerId = m01;
shapes = (
{
closed = 1;
nodes = (
(354,500,l),
(438,695,l),
(438,700,l),
(365,700,l),
(279,500,l),
(132,500,l),
(103,441,l),
(103,436,l),
(252,436,l),
(181,270,l),
(39,270,l),
(10,211,l),
(10,206,l),
(153,206,l),
(67,5,l),
(67,0,l),
(140,0,l),
(228,206,l),
(453,206,l),
(367,5,l),
(367,0,l),
(440,0,l),
(528,206,l),
(661,206,l),
(692,265,l),
(692,270,l),
(556,270,l),
(627,436,l),
(754,436,l),
(785,495,l),
(785,500,l),
(654,500,l),
(738,695,l),
(738,700,l),
(665,700,l),
(579,500,l)
);
},
{
closed = 1;
nodes = (
(327,436,l),
(552,436,l),
(481,270,l),
(256,270,l)
);
}
);
width = 805;
}
);
unicode = 35;
},
{
glyphname = slash;
lastChange = "2022-11-12 16:51:33 +0000";
layers = (
{
background = {
shapes = (
{
closed = 1;
nodes = (
(83,-110,l),
(433,700,l),
(358,700,l),
(8,-110,l)
);
}
);
};
layerId = m01;
shapes = (
{
closed = 1;
nodes = (
(83,-110,l),
(431,695,l),
(431,700,l),
(358,700,l),
(10,-105,l),
(10,-110,l)
);
}
);
width = 451;
}
);
unicode = 47;
},
{
glyphname = backslash;
lastChange = "2022-10-27 20:47:47 +0000";
layers = (
{
layerId = m01;
shapes = (
{
closed = 1;
nodes = (
(441,-105,l),
(93,700,l),
(20,700,l),
(20,695,l),
(368,-110,l),
(441,-110,l)
);
}
);
width = 451;
}
);
unicode = 92;
},
{
glyphname = question.ss02;
lastChange = "2022-11-12 16:23:45 +0000";
layers = (
{
background = {
shapes = (
{
closed = 1;
nodes = (
(14,591,o),
(89,650,o),
(194,650,cs),
(273,650,o),
(344,602,o),
(344,508,c),
(419,518,l),
(419,636,o),
(324,715,o),
(194,715,cs),
(50,715,o),
(-50,630,o),
(-80,507,c),
(-16,480,l)
);
},
{
closed = 1;
nodes = (
(173,-15,o),
(209,21,o),
(209,66,cs),
(209,110,o),
(173,146,o),
(129,146,cs),
(84,146,o),
(48,110,o),
(48,66,cs),
(48,21,o),
(84,-15,o),
(129,-15,cs)
);
},
{
closed = 1;
nodes = (
(165,218,l),
(165,378,l),
(95,378,l),
(95,218,l)
);
},
{
closed = 1;
nodes = (
(224,318,l),
(214,378,l),
(95,378,l),
(95,318,l)
);
},
{
closed = 1;
nodes = (
(226,318,l),
(333,318,o),
(419,397,o),
(419,518,c),
(344,508,l),
(344,428,o),
(292,378,o),
(214,378,c),
(224,318,l)
);
}
);
};
layerId = m01;
shapes = (
{
closed = 1;
nodes = (
(173,-15,o),
(209,21,o),
(209,66,cs),
(209,110,o),
(173,146,o),
(129,146,cs),
(84,146,o),
(48,110,o),
(48,66,cs),
(48,21,o),
(84,-15,o),
(129,-15,cs)
);
},
{
closed = 1;
nodes = (
(165,218,l),
(165,378,l),
(95,378,l),
(95,218,l)
);
},
{
closed = 1;
nodes = (
(224,318,l),
(214,378,l),
(95,378,l),
(95,318,l)
);
},
{
closed = 1;
nodes = (
(410,700,l),
(340,700,l),
(340,314,l),
(410,314,l)
);
},
{
closed = 1;
nodes = (
(410,378,l),
(100,378,l),
(100,313,l),
(410,313,l)
);
},
{
closed = 1;
nodes = (
(410,700,l),
(30,700,l),
(30,635,l),
(410,635,l)
);
}
);
width = 450;
}
);
},
{
glyphname = questiondown.ss02;
lastChange = "2022-11-12 16:23:50 +0000";
layers = (
{
layerId = m01;
shapes = (
{
closed = 1;
nodes = (
(277,515,o),
(241,479,o),
(241,434,cs),
(241,390,o),
(277,354,o),
(321,354,cs),
(366,354,o),
(402,390,o),
(402,434,cs),
(402,479,o),
(366,515,o),
(321,515,cs)
);
},
{
closed = 1;
nodes = (
(285,282,l),
(285,122,l),
(355,122,l),
(355,282,l)
);
},
{
closed = 1;
nodes = (
(226,182,l),
(236,122,l),
(355,122,l),
(355,182,l)
);
},
{
closed = 1;
nodes = (
(40,-200,l),
(110,-200,l),
(110,186,l),
(40,186,l)
);
},
{
closed = 1;
nodes = (
(40,122,l),
(350,122,l),
(350,187,l),
(40,187,l)
);
},
{
closed = 1;
nodes = (
(40,-200,l),
(420,-200,l),
(420,-135,l),
(40,-135,l)
);
}
);
width = 450;
}
);
},
{
glyphname = numbersign.ss02;
lastChange = "2022-11-12 18:28:01 +0000";
layers = (
{
background = {
shapes = (
{
closed = 1;
nodes = (
(469,500,l),
(404,500,l),
(344,490,l),
(339,495,l),
(376,550,l),
(438,695,l),
(438,700,l),
(365,700,l),
(301,550,l),
(294,495,l),
(289,490,l),
(229,500,l),
(132,500,l),
(103,441,l),
(103,436,l),
(202,436,l),
(256,446,l),
(261,441,l),
(231,386,l),
(203,320,l),
(187,260,l),
(182,255,l),
(131,270,l),
(39,270,l),
(10,211,l),
(10,206,l),
(103,206,l),
(163,216,l),
(168,211,l),
(132,156,l),
(67,5,l),
(67,0,l),
(140,0,l),
(207,156,l),
(213,211,l),
(218,216,l),
(278,206,l),
(356,206,l),
(381,270,l),
(331,270,l),
(246,255,l),
(241,260,l),
(278,320,l),
(306,386,l),
(316,441,l),
(321,446,l),
(377,436,l),
(445,436,l)
);
},
{
closed = 1;
nodes = (
(445,436,l),
(552,436,l),
(481,270,l),
(381,270,l),
(356,206,l),
(453,206,l),
(367,5,l),
(367,0,l),
(440,0,l),
(528,206,l),
(661,206,l),
(692,265,l),
(692,270,l),
(556,270,l),
(627,436,l),
(754,436,l),
(785,495,l),
(785,500,l),
(654,500,l),
(738,695,l),
(738,700,l),
(665,700,l),
(579,500,l),
(469,500,l)
);
}
);
};
layerId = m01;
shapes = (
{
closed = 1;
nodes = (
(502,436,l),
(556,446,l),
(561,441,l),
(531,386,l),
(503,320,l),
(487,260,l),
(482,255,l),
(431,270,l),
(331,270,l),
(246,255,l),
(241,260,l),
(278,320,l),
(306,386,l),
(316,441,l),
(321,446,l),
(377,436,l)
);
},
{
closed = 1;
nodes = (
(103,206,l),
(163,216,l),
(168,211,l),
(132,156,l),
(67,5,l),
(67,0,l),
(140,0,l),
(207,156,l),
(213,211,l),
(218,216,l),
(278,206,l),
(403,206,l),
(463,216,l),
(468,211,l),
(432,156,l),
(367,5,l),
(367,0,l),
(440,0,l),
(507,156,l),
(513,211,l),
(518,216,l),
(578,206,l),
(661,206,l),
(692,265,l),
(692,270,l),
(631,270,l),
(546,255,l),
(541,260,l),
(578,320,l),
(606,386,l),
(616,441,l),
(621,446,l),
(677,436,l),
(754,436,l),
(785,495,l),
(785,500,l),
(704,500,l),
(644,490,l),
(639,495,l),
(676,550,l),
(738,695,l),
(738,700,l),
(665,700,l),
(601,550,l),
(594,495,l),
(589,490,l),
(529,500,l),
(404,500,l),
(344,490,l),
(339,495,l),
(376,550,l),
(438,695,l),
(438,700,l),
(365,700,l),
(301,550,l),
(294,495,l),
(289,490,l),
(229,500,l),
(132,500,l),
(103,441,l),
(103,436,l),
(202,436,l),
(256,446,l),
(261,441,l),
(231,386,l),
(203,320,l),
(187,260,l),
(182,255,l),
(131,270,l),
(39,270,l),
(10,211,l),
(10,206,l)
);
}
);
width = 805;
}
);
},
{
glyphname = hyphen;
kernLeft = "-";
kernRight = "-";
lastChange = "2022-11-03 15:58:42 +0000";
layers = (
{
layerId = m01;
shapes = (
{
closed = 1;
nodes = (
(392,240,l),
(392,304,l),
(31,304,l),
(31,240,l)
);
}
);
width = 432;
}
);
unicode = 45;
},
{
glyphname = endash;
kernLeft = "-";
kernRight = "-";
lastChange = "2022-11-03 15:56:02 +0000";
layers = (
{
layerId = m01;
shapes = (
{
closed = 1;
nodes = (
(572,240,l),
(572,305,l),
(31,304,l),
(31,240,l)
);
}
);
width = 612;
}
);
unicode = 8211;
},
{
glyphname = emdash;
kernLeft = "-";
kernRight = "-";
lastChange = "2022-10-30 12:30:32 +0000";
layers = (
{
layerId = m01;
shapes = (
{
closed = 1;
nodes = (
(1122,240,l),
(1122,305,l),
(41,304,l),
(41,240,l)
);
}
);
width = 1172;
}
);
unicode = 8212;
},
{
glyphname = underscore;
lastChange = "2022-10-30 12:30:38 +0000";
layers = (
{
layerId = m01;
shapes = (
{
closed = 1;
nodes = (
(492,-111,l),
(492,-46,l),
(11,-47,l),
(11,-111,l)
);
}
);
width = 512;
}
);
unicode = 95;
},
{
glyphname = hyphen.case;
kernLeft = "-";
kernRight = "-";
lastChange = "2022-11-03 16:01:02 +0000";
layers = (
{
layerId = m01;
shapes = (
{
closed = 1;
nodes = (
(392,291,l),
(392,356,l),
(30,356,l),
(30,291,l)
);
}
);
width = 432;
}
);
},
{
glyphname = endash.case;
kernLeft = "-";
kernRight = "-";
lastChange = "2022-11-03 16:02:59 +0000";
layers = (
{
layerId = m01;
shapes = (
{
closed = 1;
nodes = (
(572,291,l),
(572,356,l),
(30,356,l),
(30,291,l)
);
}
);
width = 612;
}
);
},
{
glyphname = emdash.case;
kernLeft = "-";
kernRight = "-";
lastChange = "2022-11-03 16:03:24 +0000";
layers = (
{
layerId = m01;
shapes = (
{
closed = 1;
nodes = (
(1112,292,l),
(1112,357,l),
(31,357,l),
(31,292,l)
);
}
);
width = 1152;
}
);
},
{
glyphname = parenleft;
lastChange = "2022-11-07 15:36:52 +0000";
layers = (
{
background = {
shapes = (
{
closed = 1;
nodes = (
(255,-131,l),
(278,-96,l),
(206,-21,o),
(128,113,o),
(128,322,cs),
(128,531,o),
(206,665,o),
(278,740,c),
(255,775,l),
(246,775,l),
(147,693,o),
(55,541,o),
(55,322,cs),
(55,103,o),
(147,-49,o),
(246,-131,c)
);
}
);
};
layerId = m01;
shapes = (
{
closed = 1;
nodes = (
(255,-131,l),
(285,-86,l),
(218,-16,o),
(123,113,o),
(123,322,cs),
(123,531,o),
(218,660,o),
(285,730,c),
(255,775,l),
(246,775,l),
(159,703,o),
(50,541,o),
(50,322,cs),
(50,103,o),
(159,-59,o),
(246,-131,c)
);
}
);
width = 295;
}
);
unicode = 40;
},
{
glyphname = parenright;
lastChange = "2022-11-07 15:36:47 +0000";
layers = (
{
background = {
shapes = (
{
closed = 1;
nodes = (
(47,-131,l),
(146,-49,o),
(238,103,o),
(238,322,cs),
(238,541,o),
(146,693,o),
(47,775,c),
(38,775,l),
(15,740,l),
(87,665,o),
(165,531,o),
(165,322,cs),
(165,113,o),
(87,-21,o),
(15,-96,c),
(38,-131,l)
);
}
);
};
layerId = m01;
shapes = (
{
closed = 1;
nodes = (
(136,-59,o),
(245,103,o),
(245,322,cs),
(245,541,o),
(136,703,o),
(49,775,c),
(40,775,l),
(10,730,l),
(77,660,o),
(172,531,o),
(172,322,cs),
(172,113,o),
(77,-16,o),
(10,-86,c),
(40,-131,l),
(49,-131,l)
);
}
);
width = 295;
}
);
unicode = 41;
},
{
glyphname = braceleft;
lastChange = "2022-11-02 21:29:16 +0000";
layers = (
{
background = {
shapes = (
{
closed = 1;
nodes = (
(112,427,ls),
(112,377,o),
(97,352,o),
(52,352,cs),
(30,352,l),
(30,292,l),
(52,292,ls),
(97,292,o),
(112,267,o),
(112,217,cs),
(112,-96,l),
(292,-96,l),
(292,-36,l),
(177,-36,l),
(177,232,ls),
(177,261,o),
(166,285,o),
(147,300,c),
(87,317,l),
(87,327,l),
(147,344,l),
(166,359,o),
(177,383,o),
(177,412,cs),
(177,680,l),
(292,680,l),
(292,740,l),
(112,740,l)
);
}
);
};
layerId = m01;
shapes = (
{
closed = 1;
nodes = (
(112,427,ls),
(112,377,o),
(97,352,o),
(52,352,cs),
(30,352,l),
(30,292,l),
(52,292,ls),
(97,292,o),
(112,267,o),
(112,217,cs),
(112,-96,l),
(292,-96,l),
(292,-36,l),
(177,-36,l),
(177,232,ls),
(177,261,o),
(166,285,o),
(147,300,c),
(87,317,l),
(87,327,l),
(147,344,l),
(166,359,o),
(177,383,o),
(177,412,cs),
(177,680,l),
(292,680,l),
(292,740,l),
(112,740,l)
);
}
);
width = 302;
}
);
unicode = 123;
},
{
glyphname = braceright;
lastChange = "2022-11-02 21:29:52 +0000";
layers = (
{
layerId = m01;
shapes = (
{
closed = 1;
nodes = (
(10,740,l),
(10,680,l),
(125,680,l),
(125,412,ls),
(125,383,o),
(136,359,o),
(155,344,c),
(215,327,l),
(215,317,l),
(155,300,l),
(136,285,o),
(125,261,o),
(125,232,cs),
(125,-36,l),
(10,-36,l),
(10,-96,l),
(190,-96,l),
(190,217,ls),
(190,267,o),
(205,292,o),
(250,292,cs),
(272,292,l),
(272,352,l),
(250,352,ls),
(205,352,o),
(190,377,o),
(190,427,cs),
(190,740,l)
);
}
);
width = 302;
}
);
unicode = 125;
},
{
glyphname = bracketleft;
lastChange = "2022-10-29 20:23:07 +0000";
layers = (
{
layerId = m01;
shapes = (
{
closed = 1;
nodes = (
(125,-96,l),
(125,740,l),
(60,740,l),
(60,-96,l)
);
},
{
closed = 1;
nodes = (
(240,680,l),
(240,740,l),
(60,740,l),
(60,680,l)
);
},
{
closed = 1;
nodes = (
(240,-96,l),
(240,-36,l),
(60,-36,l),
(60,-96,l)
);
}
);
width = 250;
}
);
unicode = 91;
},
{
glyphname = bracketright;
lastChange = "2022-10-29 20:23:12 +0000";
layers = (
{
layerId = m01;
shapes = (
{
closed = 1;
nodes = (
(190,740,l),
(125,740,l),
(125,-96,l),
(190,-96,l)
);
},
{
closed = 1;
nodes = (
(190,740,l),
(10,740,l),
(10,680,l),
(190,680,l)
);
},
{
closed = 1;
nodes = (
(190,-36,l),
(10,-36,l),
(10,-96,l),
(190,-96,l)
);
}
);
width = 250;
}
);
unicode = 93;
},
{
glyphname = parenleft.case;
lastChange = "2022-11-01 12:35:03 +0000";
layers = (
{
background = {
shapes = (
{
closed = 1;
nodes = (
(263,-61,l),
(191,14,o),
(113,148,o),
(113,357,cs),
(113,566,o),
(191,700,o),
(263,775,c),
(240,810,l),
(231,810,l),
(132,728,o),
(40,576,o),
(40,357,cs),
(40,138,o),
(132,-14,o),
(231,-96,c),
(240,-96,l)
);
}
);
};
layerId = m01;
shapes = (
{
closed = 1;
nodes = (
(240,-96,l),
(270,-51,l),
(203,19,o),
(108,148,o),
(108,357,cs),
(108,566,o),
(203,695,o),
(270,765,c),
(240,810,l),
(231,810,l),
(144,738,o),
(35,576,o),
(35,357,cs),
(35,138,o),
(144,-24,o),
(231,-96,c)
);
}
);
width = 280;
}
);
},
{
glyphname = parenright.case;
lastChange = "2022-11-01 12:35:12 +0000";
layers = (
{
background = {
shapes = (
{
closed = 1;
nodes = (
(49,-96,l),
(148,-14,o),
(240,138,o),
(240,357,cs),
(240,576,o),
(148,728,o),
(49,810,c),
(40,810,l),
(17,775,l),
(89,700,o),
(167,566,o),
(167,357,cs),
(167,148,o),
(89,14,o),
(17,-61,c),
(40,-96,l)
);
}
);
};
layerId = m01;
shapes = (
{
closed = 1;
nodes = (
(136,-24,o),
(245,138,o),
(245,357,cs),
(245,576,o),
(136,738,o),
(49,810,c),
(40,810,l),
(10,765,l),
(77,695,o),
(172,566,o),
(172,357,cs),
(172,148,o),
(77,19,o),
(10,-51,c),
(40,-96,l),
(49,-96,l)
);
}
);
width = 280;
}
);
},
{
glyphname = braceleft.case;
lastChange = "2022-10-31 11:13:15 +0000";
layers = (
{
layerId = m01;
shapes = (
{
closed = 1;
nodes = (
(112,447,ls),
(112,397,o),
(97,372,o),
(52,372,cs),
(30,372,l),
(30,312,l),
(52,312,ls),
(97,312,o),
(112,287,o),
(112,237,cs),
(112,-76,l),
(292,-76,l),
(292,-16,l),
(177,-16,l),
(177,252,ls),
(177,281,o),
(166,305,o),
(147,320,c),
(87,337,l),
(87,347,l),
(147,364,l),
(166,379,o),
(177,403,o),
(177,432,cs),
(177,700,l),
(292,700,l),
(292,760,l),
(112,760,l)
);
}
);
width = 302;
}
);
},
{
glyphname = braceright.case;
lastChange = "2022-10-31 11:13:20 +0000";
layers = (
{
layerId = m01;
shapes = (
{
closed = 1;
nodes = (
(10,760,l),
(10,700,l),
(125,700,l),
(125,432,ls),
(125,403,o),
(136,379,o),
(155,364,c),
(215,347,l),
(215,337,l),
(155,320,l),
(136,305,o),
(125,281,o),
(125,252,cs),
(125,-16,l),
(10,-16,l),
(10,-76,l),
(190,-76,l),
(190,237,ls),
(190,287,o),
(205,312,o),
(250,312,cs),
(272,312,l),
(272,372,l),
(250,372,ls),
(205,372,o),
(190,397,o),
(190,447,cs),
(190,760,l)
);
}
);
width = 302;
}
);
},
{
glyphname = bracketleft.case;
lastChange = "2022-10-31 11:13:37 +0000";
layers = (
{
layerId = m01;
shapes = (
{
closed = 1;
nodes = (
(95,-76,l),
(95,760,l),
(30,760,l),
(30,-76,l)
);
},
{
closed = 1;
nodes = (
(210,700,l),
(210,760,l),
(30,760,l),
(30,700,l)
);
},
{
closed = 1;
nodes = (
(210,-76,l),
(210,-16,l),
(30,-16,l),
(30,-76,l)
);
}
);
width = 220;
}
);
},
{
glyphname = bracketright.case;
lastChange = "2022-10-31 11:13:48 +0000";
layers = (
{
layerId = m01;
shapes = (
{
closed = 1;
nodes = (
(190,760,l),
(125,760,l),
(125,-76,l),
(190,-76,l)
);
},
{
closed = 1;
nodes = (
(190,760,l),
(10,760,l),
(10,700,l),
(190,700,l)
);
},
{
closed = 1;
nodes = (
(190,-16,l),
(10,-16,l),
(10,-76,l),
(190,-76,l)
);
}
);
width = 220;
}
);
},
{
glyphname = parenleft.ss02;
lastChange = "2022-10-30 10:02:30 +0000";
layers = (
{
layerId = m01;
shapes = (
{
closed = 1;
nodes = (
(240,-131,l),
(263,-96,l),
(263,740,l),
(240,775,l),
(231,775,l),
(132,693,o),
(40,541,o),
(40,322,cs),
(40,103,o),
(132,-49,o),
(231,-131,c)
);
}
);
width = 313;
}
);
},
{
glyphname = parenright.ss02;
lastChange = "2022-10-30 10:02:35 +0000";
layers = (
{
layerId = m01;
shapes = (
{
closed = 1;
nodes = (
(181,-49,o),
(273,103,o),
(273,322,cs),
(273,541,o),
(181,693,o),
(82,775,c),
(73,775,l),
(50,740,l),
(50,-96,l),
(73,-131,l),
(82,-131,l)
);
}
);
width = 313;
}
);
},
{
glyphname = parenleft.ss02.case;
lastChange = "2022-10-30 10:02:40 +0000";
layers = (
{
layerId = m01;
shapes = (
{
closed = 1;
nodes = (
(240,-96,l),
(263,-61,l),
(263,775,l),
(240,810,l),
(231,810,l),
(132,728,o),
(40,576,o),
(40,357,cs),
(40,138,o),
(132,-14,o),
(231,-96,c)
);
}
);
width = 313;
}
);
},
{
glyphname = parenright.ss02.case;
lastChange = "2022-10-30 10:02:47 +0000";
layers = (
{
layerId = m01;
shapes = (
{
closed = 1;
nodes = (
(181,-14,o),
(273,138,o),
(273,357,cs),
(273,576,o),
(181,728,o),
(82,810,c),
(73,810,l),
(50,775,l),
(50,-61,l),
(73,-96,l),
(82,-96,l)
);
}
);
width = 313;
}
);
},
{
glyphname = quoteleft;
lastChange = "2022-10-04 19:24:58 +0000";
layers = (
{
background = {
shapes = (
{
closed = 1;
nodes = (
(65,715,l),
(10,500,l),
(80,500,l),
(131,715,l)
);
}
);
};
layerId = m01;
shapes = (
{
closed = 1;
nodes = (
(66,700,l),
(11,505,l),
(11,500,l),
(80,500,l),
(127,695,l),
(127,700,l)
);
}
);
width = 151;
}
);
unicode = 8216;
},
{
glyphname = quoteright;
lastChange = "2022-10-04 19:25:07 +0000";
layers = (
{
background = {
shapes = (
{
closed = 1;
nodes = (
(77,505,l),
(131,715,l),
(61,715,l),
(11,505,l)
);
}
);
};
layerId = m01;
shapes = (
{
closed = 1;
nodes = (
(72,500,l),
(127,695,l),
(127,700,l),
(58,700,l),
(11,505,l),
(11,500,l)
);
}
);
width = 151;
}
);
unicode = 8217;
},
{
glyphname = guillemetleft;
lastChange = "2022-11-12 16:20:05 +0000";
layers = (
{
layerId = m01;
shapes = (
{
closed = 1;
nodes = (
(547,39,l),
(552,39,l),
(552,107,l),
(372,226,l),
(312,255,l),
(312,265,l),
(373,293,l),
(552,412,l),
(552,480,l),
(547,480,l),
(258,290,l),
(258,229,l)
);
},
{
closed = 1;
nodes = (
(319,39,l),
(324,39,l),
(324,107,l),
(144,226,l),
(84,255,l),
(84,265,l),
(145,293,l),
(324,412,l),
(324,480,l),
(319,480,l),
(30,290,l),
(30,229,l)
);
}
);
width = 592;
}
);
unicode = 171;
},
{
glyphname = guillemetright;
lastChange = "2022-11-12 16:16:57 +0000";
layers = (
{
layerId = m01;
shapes = (
{
closed = 1;
nodes = (
(324,290,l),
(35,480,l),
(30,480,l),
(30,412,l),
(209,293,l),
(270,265,l),
(270,255,l),
(210,226,l),
(30,107,l),
(30,39,l),
(35,39,l),
(324,229,l)
);
},
{
closed = 1;
nodes = (
(552,290,l),
(263,480,l),
(258,480,l),
(258,412,l),
(437,293,l),
(498,265,l),
(498,255,l),
(438,226,l),
(258,107,l),
(258,39,l),
(263,39,l),
(552,229,l)
);
}
);
width = 592;
}
);
unicode = 187;
},
{
glyphname = guilsinglleft;
lastChange = "2022-11-12 16:22:53 +0000";
layers = (
{
layerId = m01;
shapes = (
{
closed = 1;
nodes = (
(319,39,l),
(324,39,l),
(324,107,l),
(144,226,l),
(84,255,l),
(84,265,l),
(145,293,l),
(324,412,l),
(324,480,l),
(319,480,l),
(30,290,l),
(30,229,l)
);
}
);
width = 364;
}
);
unicode = 8249;
},
{
glyphname = guilsinglright;
lastChange = "2022-09-27 18:07:04 +0000";
layers = (
{
background = {
shapes = (
{
closed = 1;
nodes = (
(197,216,l),
(385,500,l),
(314,500,l),
(162,270,l),
(9,500,l),
(-62,500,l),
(126,216,l)
);
}
);
};
layerId = m01;
shapes = (
{
closed = 1;
nodes = (
(324,290,l),
(35,480,l),
(30,480,l),
(30,412,l),
(209,293,l),
(270,265,l),
(270,255,l),
(210,226,l),
(30,107,l),
(30,39,l),
(35,39,l),
(324,229,l)
);
}
);
width = 364;
}
);
unicode = 8250;
},
{
glyphname = quotedbl;
lastChange = "2022-09-27 13:16:41 +0000";
layers = (
{
layerId = m01;
shapes = (
{
closed = 1;
nodes = (
(100,500,l),
(100,715,l),
(30,715,l),
(30,500,l)
);
},
{
closed = 1;
nodes = (
(230,500,l),
(230,715,l),
(160,715,l),
(160,500,l)
);
}
);
width = 270;
}
);
unicode = 34;
},
{
glyphname = quotesingle;
lastChange = "2022-10-24 18:22:05 +0000";
layers = (
{
layerId = m01;
shapes = (
{
closed = 1;
nodes = (
(90,500,l),
(100,710,l),
(100,715,l),
(30,715,l),
(30,500,l)
);
}
);
width = 140;
}
);
unicode = 39;
},
{
glyphname = guillemetleft.case;
lastChange = "2022-11-12 16:20:18 +0000";
layers = (
{
layerId = m01;
shapes = (
{
closed = 1;
nodes = (
(547,119,l),
(552,119,l),
(552,187,l),
(372,306,l),
(312,335,l),
(312,345,l),
(373,373,l),
(552,492,l),
(552,560,l),
(547,560,l),
(258,370,l),
(258,309,l)
);
},
{
closed = 1;
nodes = (
(319,119,l),
(324,119,l),
(324,187,l),
(144,306,l),
(84,335,l),
(84,345,l),
(145,373,l),
(324,492,l),
(324,560,l),
(319,560,l),
(30,370,l),
(30,309,l)
);
}
);
width = 592;
}
);
},
{
glyphname = guillemetright.case;
lastChange = "2022-11-12 16:20:27 +0000";
layers = (
{
layerId = m01;
shapes = (
{
closed = 1;
nodes = (
(324,370,l),
(35,560,l),
(30,560,l),
(30,492,l),
(209,373,l),
(270,345,l),
(270,335,l),
(210,306,l),
(30,187,l),
(30,119,l),
(35,119,l),
(324,309,l)
);
},
{
closed = 1;
nodes = (
(552,370,l),
(263,560,l),
(258,560,l),
(258,492,l),
(437,373,l),
(498,345,l),
(498,335,l),
(438,306,l),
(258,187,l),
(258,119,l),
(263,119,l),
(552,309,l)
);
}
);
width = 592;
}
);
},
{
glyphname = guilsinglleft.case;
lastChange = "2022-11-12 16:21:52 +0000";
layers = (
{
layerId = m01;
shapes = (
{
closed = 1;
nodes = (
(319,119,l),
(324,119,l),
(324,187,l),
(144,306,l),
(84,335,l),
(84,345,l),
(145,373,l),
(324,492,l),
(324,560,l),
(319,560,l),
(30,370,l),
(30,309,l)
);
}
);
width = 364;
}
);
},
{
glyphname = guilsinglright.case;
lastChange = "2022-09-27 18:12:58 +0000";
layers = (
{
layerId = m01;
shapes = (
{
closed = 1;
nodes = (
(324,370,l),
(35,560,l),
(30,560,l),
(30,492,l),
(209,373,l),
(270,345,l),
(270,335,l),
(210,306,l),
(30,187,l),
(30,119,l),
(35,119,l),
(324,309,l)
);
}
);
width = 364;
}
);
},
{
glyphname = at;
lastChange = "2022-10-30 12:23:48 +0000";
layers = (
{
background = {
shapes = (
{
closed = 1;
nodes = (
(417,94,o),
(493,173,o),
(493,270,cs),
(493,367,o),
(417,446,o),
(323,446,cs),
(222,446,o),
(145,367,o),
(145,270,cs),
(145,173,o),
(222,94,o),
(323,94,cs)
);
},
{
closed = 1;
nodes = (
(618,-10,l),
(61,-10,l),
(60,-59,l),
(618,-60,l)
);
},
{
closed = 1;
nodes = (
(89,-60,l),
(90,574,l),
(30,574,l),
(30,-60,l)
);
},
{
closed = 1;
nodes = (
(252,145,o),
(200,200,o),
(200,270,cs),
(200,340,o),
(252,396,o),
(323,396,cs),
(392,396,o),
(446,340,o),
(446,270,cs),
(446,200,o),
(392,145,o),
(323,145,cs)
);
},
{
closed = 1;
nodes = (
(543,104,l),
(543,107,l),
(500,269,l),
(449,269,l),
(493,104,l)
);
},
{
closed = 1;
nodes = (
(555,530,l),
(555,580,l),
(31,580,l),
(30,530,l)
);
},
{
closed = 1;
nodes = (
(658,-60,l),
(659,580,l),
(603,580,l),
(603,-60,l)
);
},
{
closed = 1;
nodes = (
(500,269,l),
(555,530,l),
(555,535,l),
(505,535,l),
(449,269,l)
);
}
);
};
layerId = m01;
shapes = (
{
closed = 1;
nodes = (
(618,-10,l),
(61,-10,l),
(60,-59,l),
(618,-60,l)
);
},
{
closed = 1;
nodes = (
(89,-60,l),
(90,574,l),
(30,574,l),
(30,-60,l)
);
},
{
closed = 1;
nodes = (
(495,530,l),
(495,580,l),
(31,580,l),
(30,530,l)
);
},
{
closed = 1;
nodes = (
(658,-60,l),
(659,580,l),
(603,580,l),
(603,-60,l)
);
},
{
closed = 1;
nodes = (
(203,335,o),
(253,389,o),
(321,389,cs),
(388,389,o),
(439,335,o),
(439,269,cs),
(439,203,o),
(388,149,o),
(321,149,cs),
(253,149,o),
(203,203,o),
(203,269,cs)
);
},
{
closed = 1;
nodes = (
(376,94,o),
(415,121,o),
(446,163,c),
(462,202,l),
(468,202,l),
(473,163,l),
(489,104,l),
(540,104,l),
(497,268,l),
(497,580,l),
(445,580,l),
(445,408,l),
(445,369,l),
(438,369,l),
(418,408,l),
(390,431,o),
(359,444,o),
(321,444,cs),
(221,444,o),
(145,365,o),
(145,269,cs),
(145,173,o),
(221,94,o),
(321,94,cs)
);
}
);
width = 699;
}
);
unicode = 64;
},
{
glyphname = ampersand;
lastChange = "2022-11-05 16:15:03 +0000";
layers = (
{
background = {
shapes = (
{
closed = 1;
nodes = (
(966,60,l),
(881,60,o),
(800,106,o),
(800,200,cs),
(800,296,o),
(871,330,o),
(956,330,cs),
(1302,330,l),
(1302,390,l),
(996,390,ls),
(911,390,o),
(860,429,o),
(860,520,cs),
(860,601,o),
(921,655,o),
(1006,655,c),
(1005,715,l),
(891,715,o),
(790,639,o),
(790,530,cs),
(790,476,o),
(807,435,o),
(837,407,c),
(897,380,l),
(897,370,l),
(837,362,l),
(772,336,o),
(730,283,o),
(730,200,cs),
(730,75,o),
(831,0,o),
(955,0,c)
);
},
{
closed = 1;
nodes = (
(1221,547,l),
(1205,657,o),
(1122,715,o),
(1005,715,c),
(1005,655,l),
(1076,655,o),
(1148,625,o),
(1158,520,c)
);
},
{
closed = 1;
nodes = (
(1156,381,l),
(1156,255,ls),
(1156,135,o),
(1068,60,o),
(965,60,c),
(955,0,l),
(1053,0,o),
(1119,41,o),
(1154,106,c),
(1170,166,l),
(1180,166,l),
(1184,106,l),
(1204,0,l),
(1276,0,l),
(1276,5,l),
(1226,260,l),
(1226,381,l)
);
},
{
closed = 1;
nodes = (
(276,60,l),
(191,60,o),
(110,106,o),
(110,200,cs),
(110,296,o),
(181,330,o),
(266,330,cs),
(612,330,l),
(612,390,l),
(306,390,ls),
(221,390,o),
(160,441,o),
(160,530,c),
(90,530,l),
(90,465,o),
(117,433,o),
(147,407,c),
(207,380,l),
(207,370,l),
(147,362,l),
(82,336,o),
(40,283,o),
(40,200,cs),
(40,75,o),
(141,0,o),
(265,0,c)
);
},
{
closed = 1;
nodes = (
(466,381,l),
(466,255,ls),
(466,135,o),
(378,60,o),
(275,60,c),
(265,0,l),
(363,0,o),
(429,41,o),
(464,106,c),
(480,166,l),
(490,166,l),
(494,106,l),
(514,0,l),
(586,0,l),
(586,5,l),
(536,260,l),
(536,381,l)
);
},
{
closed = 1;
nodes = (
(536,564,l),
(506,646,o),
(438,715,o),
(311,715,cs),
(189,715,o),
(90,653,o),
(90,530,c),
(160,530,l),
(160,604,o),
(216,655,o),
(311,655,cs),
(410,655,o),
(455,601,o),
(475,541,c)
);
}
);
};
layerId = m01;
shapes = (
{
closed = 1;
nodes = (
(276,60,l),
(191,60,o),
(110,106,o),
(110,200,cs),
(110,296,o),
(181,330,o),
(266,330,cs),
(612,330,l),
(612,390,l),
(306,390,ls),
(221,390,o),
(160,441,o),
(160,530,c),
(90,530,l),
(90,465,o),
(117,433,o),
(147,407,c),
(207,380,l),
(207,370,l),
(147,362,l),
(82,336,o),
(40,283,o),
(40,200,cs),
(40,75,o),
(141,0,o),
(265,0,c)
);
},
{
closed = 1;
nodes = (
(466,381,l),
(466,255,ls),
(466,135,o),
(378,60,o),
(275,60,c),
(265,0,l),
(363,0,o),
(429,41,o),
(464,106,c),
(480,166,l),
(490,166,l),
(494,106,l),
(514,0,l),
(586,0,l),
(586,5,l),
(536,260,l),
(536,381,l)
);
},
{
closed = 1;
nodes = (
(536,564,l),
(506,646,o),
(438,715,o),
(311,715,cs),
(189,715,o),
(90,653,o),
(90,530,c),
(160,530,l),
(160,604,o),
(216,655,o),
(311,655,cs),
(410,655,o),
(455,601,o),
(475,541,c)
);
}
);
width = 642;
}
);
unicode = 38;
},
{
glyphname = paragraph;
lastChange = "2022-10-29 17:38:23 +0000";
layers = (
{
layerId = m01;
shapes = (
{
closed = 1;
nodes = (
(460,-100,l),
(460,700,l),
(390,700,l),
(390,-100,l)
);
},
{
closed = 1;
nodes = (
(20,405,o),
(101,320,o),
(225,320,cs),
(266,320,l),
(266,-100,l),
(336,-100,l),
(336,700,l),
(225,700,ls),
(101,700,o),
(20,614,o),
(20,510,cs)
);
}
);
width = 520;
}
);
unicode = 182;
},
{
glyphname = section;
lastChange = "2022-10-30 10:45:10 +0000";
layers = (
{
background = {
shapes = (
{
closed = 1;
nodes = (
(58,511,o),
(98,478,o),
(145,454,c),
(98,445,o),
(58,407,o),
(58,349,cs),
(58,268,o),
(138,239,o),
(204,208,cs),
(264,180,o),
(308,165,o),
(308,119,cs),
(308,70,o),
(270,42,o),
(210,42,cs),
(141,42,o),
(106,76,o),
(86,147,c),
(30,130,l),
(51,44,o),
(111,-15,o),
(210,-15,cs),
(305,-15,o),
(372,44,o),
(372,119,cs),
(372,189,o),
(333,221,o),
(285,244,c),
(333,254,o),
(372,295,o),
(372,349,cs),
(372,428,o),
(296,457,o),
(227,488,cs),
(167,515,o),
(122,531,o),
(122,581,cs),
(122,632,o),
(160,658,o),
(212,658,cs),
(268,658,o),
(306,625,o),
(323,567,c),
(379,584,l),
(360,660,o),
(302,715,o),
(212,715,cs),
(125,715,o),
(58,663,o),
(58,581,cs)
);
},
{
closed = 1;
nodes = (
(122,404,o),
(156,426,o),
(204,428,c),
(264,402,o),
(308,390,o),
(308,339,cs),
(308,295,o),
(275,271,o),
(226,268,c),
(166,293,o),
(122,309,o),
(122,359,cs)
);
}
);
};
layerId = m01;
shapes = (
{
closed = 1;
nodes = (
(58,538,o),
(73,509,o),
(95,488,c),
(155,459,l),
(155,449,l),
(95,431,l),
(73,412,o),
(58,384,o),
(58,349,cs),
(58,268,o),
(138,239,o),
(204,208,cs),
(264,180,o),
(308,165,o),
(308,119,cs),
(308,70,o),
(270,42,o),
(210,42,cs),
(141,42,o),
(106,76,o),
(86,147,c),
(30,130,l),
(51,44,o),
(111,-15,o),
(210,-15,cs),
(305,-15,o),
(372,44,o),
(372,119,cs),
(372,162,o),
(357,191,o),
(335,212,c),
(275,239,l),
(275,249,l),
(335,268,l),
(357,288,o),
(372,316,o),
(372,349,cs),
(372,428,o),
(296,457,o),
(227,488,cs),
(167,515,o),
(122,531,o),
(122,581,cs),
(122,632,o),
(160,658,o),
(212,658,cs),
(268,658,o),
(306,625,o),
(323,567,c),
(379,584,l),
(360,660,o),
(302,715,o),
(212,715,cs),
(125,715,o),
(58,663,o),
(58,581,cs)
);
},
{
closed = 1;
nodes = (
(122,404,o),
(156,426,o),
(204,428,c),
(264,402,o),
(308,390,o),
(308,339,cs),
(308,295,o),
(275,271,o),
(226,268,c),
(166,293,o),
(122,309,o),
(122,359,cs)
);
}
);
width = 419;
}
);
unicode = 167;
},
{
glyphname = copyright;
lastChange = "2022-10-05 20:27:06 +0000";
layers = (
{
background = {
shapes = (
{
closed = 1;
nodes = (
(422,85,o),
(485,132,o),
(508,198,c),
(469,215,l),
(452,162,o),
(405,124,o),
(345,124,cs),
(269,124,o),
(215,186,o),
(215,260,cs),
(215,334,o),
(267,396,o),
(344,396,cs),
(403,396,o),
(449,358,o),
(466,305,c),
(506,321,l),
(482,388,o),
(421,435,o),
(344,435,cs),
(243,435,o),
(171,357,o),
(171,260,cs),
(171,163,o),
(244,85,o),
(345,85,cs)
);
}
);
};
layerId = m01;
shapes = (
{
closed = 1;
nodes = (
(658,-60,l),
(659,580,l),
(31,580,l),
(30,-60,l)
);
},
{
closed = 1;
nodes = (
(86,530,l),
(603,530,l),
(603,-10,l),
(85,-10,l)
);
},
{
closed = 1;
nodes = (
(458,220,l),
(440,170,o),
(398,136,o),
(345,136,cs),
(276,136,o),
(227,190,o),
(227,260,cs),
(227,330,o),
(276,384,o),
(345,384,cs),
(398,384,o),
(440,351,o),
(458,301,c),
(508,322,l),
(484,388,o),
(422,436,o),
(349,436,cs),
(243,436,o),
(171,357,o),
(171,260,cs),
(171,163,o),
(243,84,o),
(349,84,cs),
(422,84,o),
(484,131,o),
(508,198,c)
);
}
);
width = 699;
}
);
unicode = 169;
},
{
glyphname = registered;
lastChange = "2022-11-02 18:30:42 +0000";
layers = (
{
background = {
shapes = (
{
closed = 1;
nodes = (
(311,390,o),
(394,476,o),
(394,583,cs),
(394,689,o),
(311,775,o),
(196,775,cs),
(80,775,o),
(-3,689,o),
(-3,583,cs),
(-3,476,o),
(80,390,o),
(196,390,cs)
);
},
{
closed = 1;
nodes = (
(106,422,o),
(36,483,o),
(39,583,cs),
(36,682,o),
(106,742,o),
(197,742,cs),
(286,742,o),
(353,682,o),
(353,583,cs),
(353,483,o),
(286,422,o),
(197,422,cs)
);
},
{
closed = 1;
nodes = (
(205,560,l),
(246,479,l),
(277,479,l),
(277,480,l),
(241,551,l),
(230,562,l),
(230,565,l),
(251,574,o),
(269,594,o),
(269,621,cs),
(269,656,o),
(242,681,o),
(207,681,cs),
(122,681,l),
(122,479,l),
(152,479,l),
(152,560,l)
);
},
{
closed = 1;
nodes = (
(152,654,l),
(201,654,ls),
(222,654,o),
(238,642,o),
(238,621,cs),
(238,599,o),
(222,586,o),
(201,586,cs),
(152,586,l)
);
}
);
};
layerId = m01;
shapes = (
{
closed = 1;
nodes = (
(158,429,l),
(158,510,l),
(201,510,l),
(242,429,l),
(278,429,l),
(278,430,l),
(242,501,l),
(231,512,l),
(231,515,l),
(252,524,o),
(270,544,o),
(270,571,cs),
(270,606,o),
(243,631,o),
(208,631,cs),
(123,631,l),
(123,429,l)
);
},
{
closed = 1;
nodes = (
(158,600,l),
(201,600,ls),
(220,600,o),
(234,589,o),
(234,571,cs),
(234,551,o),
(220,540,o),
(201,540,cs),
(158,540,l)
);
},
{
closed = 1;
nodes = (
(362,362,l),
(363,700,l),
(31,700,l),
(30,362,l)
);
},
{
closed = 1;
nodes = (
(71,665,l),
(322,665,l),
(322,397,l),
(70,397,l)
);
}
);
width = 403;
}
);
unicode = 174;
},
{
glyphname = trademark;
lastChange = "2022-11-20 15:27:38 +0000";
layers = (
{
background = {
shapes = (
{
closed = 1;
nodes = (
(126,450,l),
(126,696,l),
(101,696,l),
(101,450,l)
);
},
{
closed = 1;
nodes = (
(206,677,l),
(206,700,l),
(20,700,l),
(20,677,l)
);
},
{
closed = 1;
nodes = (
(263,450,l),
(263,625,l),
(261,645,l),
(265,645,l),
(271,625,l),
(352,450,l),
(377,450,l),
(459,625,l),
(465,645,l),
(469,645,l),
(467,625,l),
(467,450,l),
(492,450,l),
(492,700,l),
(467,700,l),
(373,495,l),
(367,474,l),
(363,474,l),
(357,495,l),
(263,700,l),
(238,700,l),
(238,450,l)
);
}
);
};
layerId = m01;
shapes = (
{
closed = 1;
nodes = (
(136,450,l),
(136,696,l),
(91,696,l),
(91,450,l)
);
},
{
closed = 1;
nodes = (
(206,657,l),
(206,700,l),
(20,700,l),
(20,657,l)
);
},
{
closed = 1;
nodes = (
(273,450,l),
(273,585,l),
(271,605,l),
(275,605,l),
(281,585,l),
(342,450,l),
(387,450,l),
(449,585,l),
(455,605,l),
(459,605,l),
(457,585,l),
(457,450,l),
(502,450,l),
(502,700,l),
(457,700,l),
(373,515,l),
(367,494,l),
(363,494,l),
(357,515,l),
(273,700,l),
(228,700,l),
(228,450,l)
);
}
);
width = 532;
}
);
unicode = 8482;
},
{
glyphname = degree;
lastChange = "2022-11-02 21:31:24 +0000";
layers = (
{
layerId = m01;
shapes = (
{
closed = 1;
nodes = (
(231,515,o),
(287,573,o),
(287,645,cs),
(287,716,o),
(231,774,o),
(154,774,cs),
(76,774,o),
(20,716,o),
(20,645,cs),
(20,573,o),
(76,515,o),
(154,515,cs)
);
},
{
closed = 1;
nodes = (
(111,568,o),
(80,597,o),
(81,645,cs),
(80,692,o),
(111,720,o),
(154,720,cs),
(196,720,o),
(226,692,o),
(226,645,cs),
(226,597,o),
(196,568,o),
(154,568,cs)
);
}
);
width = 337;
}
);
unicode = 176;
},
{
glyphname = bar;
lastChange = "2022-10-04 19:16:09 +0000";
layers = (
{
layerId = m01;
shapes = (
{
closed = 1;
nodes = (
(50,-130,l),
(115,-130,l),
(115,760,l),
(50,760,l)
);
}
);
width = 175;
}
);
unicode = 124;
},
{
glyphname = brokenbar;
lastChange = "2022-10-27 21:03:21 +0000";
layers = (
{
layerId = m01;
shapes = (
{
closed = 1;
nodes = (
(50,-130,l),
(115,-130,l),
(115,240,l),
(50,240,l)
);
},
{
closed = 1;
nodes = (
(50,390,l),
(115,390,l),
(115,760,l),
(50,760,l)
);
}
);
width = 175;
}
);
unicode = 166;
},
{
glyphname = dagger;
lastChange = "2022-10-26 12:39:32 +0000";
layers = (
{
layerId = m01;
shapes = (
{
closed = 1;
nodes = (
(196,564,l),
(316,564,l),
(316,623,l),
(196,623,l),
(196,760,l),
(130,760,l),
(130,623,l),
(10,623,l),
(10,564,l),
(130,564,l),
(130,283,l),
(195,283,l)
);
}
);
width = 346;
}
);
unicode = 8224;
},
{
glyphname = daggerdbl;
lastChange = "2022-10-26 12:40:30 +0000";
layers = (
{
layerId = m01;
shapes = (
{
closed = 1;
nodes = (
(130,410,l),
(130,273,l),
(196,273,l),
(196,410,l),
(316,410,l),
(316,469,l),
(196,469,l),
(196,564,l),
(316,564,l),
(316,623,l),
(196,623,l),
(196,760,l),
(130,760,l),
(130,623,l),
(10,623,l),
(10,564,l),
(130,564,l),
(130,469,l),
(10,469,l),
(10,410,l)
);
}
);
width = 346;
}
);
unicode = 8225;
},
{
glyphname = ampersand.ss01;
lastChange = "2022-11-05 16:17:46 +0000";
layers = (
{
background = {
shapes = (
{
closed = 1;
nodes = (
(276,60,l),
(191,60,o),
(110,106,o),
(110,200,cs),
(110,296,o),
(181,330,o),
(266,330,cs),
(612,330,l),
(612,390,l),
(306,390,ls),
(221,390,o),
(170,429,o),
(170,520,cs),
(170,601,o),
(231,655,o),
(316,655,c),
(315,715,l),
(201,715,o),
(100,639,o),
(100,530,cs),
(100,476,o),
(117,435,o),
(147,407,c),
(207,380,l),
(207,370,l),
(147,362,l),
(82,336,o),
(40,283,o),
(40,200,cs),
(40,75,o),
(141,0,o),
(265,0,c)
);
},
{
closed = 1;
nodes = (
(531,547,l),
(515,657,o),
(432,715,o),
(315,715,c),
(315,655,l),
(386,655,o),
(458,625,o),
(468,520,c)
);
},
{
closed = 1;
nodes = (
(466,381,l),
(466,255,ls),
(466,135,o),
(378,60,o),
(275,60,c),
(265,0,l),
(363,0,o),
(429,41,o),
(464,106,c),
(480,166,l),
(490,166,l),
(494,106,l),
(514,0,l),
(586,0,l),
(586,5,l),
(536,260,l),
(536,381,l)
);
}
);
};
layerId = m01;
shapes = (
{
closed = 1;
nodes = (
(276,60,l),
(191,60,o),
(110,106,o),
(110,200,cs),
(110,296,o),
(181,330,o),
(266,330,cs),
(612,330,l),
(612,390,l),
(306,390,ls),
(221,390,o),
(170,429,o),
(170,520,c),
(170,640,l),
(515,640,l),
(515,700,l),
(100,700,l),
(100,530,l),
(100,476,o),
(117,435,o),
(147,407,c),
(207,380,l),
(207,370,l),
(147,362,l),
(82,336,o),
(40,283,o),
(40,200,cs),
(40,75,o),
(141,0,o),
(265,0,c)
);
},
{
closed = 1;
nodes = (
(466,381,l),
(466,255,ls),
(466,135,o),
(378,60,o),
(275,60,c),
(265,0,l),
(363,0,o),
(429,41,o),
(464,106,c),
(480,166,l),
(490,166,l),
(494,106,l),
(514,0,l),
(586,0,l),
(586,5,l),
(536,260,l),
(536,381,l)
);
}
);
width = 662;
}
);
},
{
glyphname = cent;
lastChange = "2022-11-02 18:30:11 +0000";
layers = (
{
layerId = m01;
shapes = (
{
closed = 1;
nodes = (
(411,15,o),
(506,86,o),
(541,186,c),
(481,211,l),
(456,132,o),
(384,75,o),
(294,75,cs),
(178,75,o),
(97,168,o),
(97,280,cs),
(97,392,o),
(176,485,o),
(292,485,cs),
(382,485,o),
(451,428,o),
(477,349,c),
(537,372,l),
(502,473,o),
(409,545,o),
(292,545,cs),
(140,545,o),
(30,426,o),
(30,280,cs),
(30,133,o),
(142,15,o),
(294,15,cs)
);
},
{
closed = 1;
nodes = (
(262,-69,l),
(322,-50,l),
(322,629,l),
(317,629,l),
(257,610,l),
(257,-69,l)
);
}
);
width = 581;
}
);
unicode = 162;
},
{
glyphname = currency;
lastChange = "2022-10-31 13:59:52 +0000";
layers = (
{
layerId = m01;
shapes = (
{
closed = 1;
nodes = (
(335,96,o),
(412,176,o),
(412,275,cs),
(412,373,o),
(335,453,o),
(229,453,cs),
(122,453,o),
(45,373,o),
(45,275,cs),
(45,176,o),
(122,96,o),
(229,96,cs)
);
},
{
closed = 1;
nodes = (
(162,154,o),
(113,200,o),
(115,275,cs),
(113,350,o),
(162,393,o),
(229,393,cs),
(296,393,o),
(342,350,o),
(342,275,cs),
(342,200,o),
(296,154,o),
(229,154,cs)
);
},
{
closed = 1;
nodes = (
(156,158,l),
(110,204,l),
(20,113,l),
(66,67,l)
);
},
{
closed = 1;
nodes = (
(436,438,l),
(390,484,l),
(300,393,l),
(346,347,l)
);
},
{
closed = 1;
nodes = (
(112,348,l),
(158,394,l),
(66,484,l),
(20,438,l)
);
},
{
closed = 1;
nodes = (
(392,68,l),
(438,114,l),
(347,204,l),
(300,158,l)
);
}
);
width = 468;
}
);
unicode = 164;
},
{
glyphname = dollar;
kernLeft = S;
kernRight = S;
lastChange = "2022-10-26 12:34:02 +0000";
layers = (
{
background = {
shapes = (
{
closed = 1;
nodes = (
(189,346,o),
(289,314,cs),
(375,286,o),
(459,264,o),
(459,177,cs),
(459,93,o),
(383,45,o),
(304,45,cs),
(199,45,o),
(129,106,o),
(99,217,c),
(40,193,l),
(70,70,o),
(155,-15,o),
(304,-15,cs),
(434,-15,o),
(529,69,o),
(529,177,cs),
(529,315,o),
(421,347,o),
(322,379,cs),
(235,406,o),
(150,433,o),
(150,523,cs),
(150,617,o),
(226,655,o),
(300,655,cs),
(380,655,o),
(454,600,o),
(480,503,c),
(539,527,l),
(512,636,o),
(429,715,o),
(300,715,cs),
(175,715,o),
(80,641,o),
(80,523,cs),
(80,383,o)
);
},
{
closed = 1;
nodes = (
(274,-124,l),
(334,-105,l),
(334,775,l),
(329,775,l),
(269,756,l),
(269,-124,l)
);
}
);
};
layerId = m01;
shapes = (
{
closed = 1;
nodes = (
(189,346,o),
(289,314,cs),
(375,286,o),
(459,264,o),
(459,177,cs),
(459,93,o),
(383,45,o),
(304,45,cs),
(199,45,o),
(129,106,o),
(99,217,c),
(40,193,l),
(70,70,o),
(155,-15,o),
(304,-15,cs),
(434,-15,o),
(529,69,o),
(529,177,cs),
(529,315,o),
(421,347,o),
(322,379,cs),
(235,406,o),
(150,433,o),
(150,523,cs),
(150,617,o),
(226,655,o),
(300,655,cs),
(380,655,o),
(454,600,o),
(480,503,c),
(539,527,l),
(512,636,o),
(429,715,o),
(300,715,cs),
(175,715,o),
(80,641,o),
(80,523,cs),
(80,383,o)
);
},
{
closed = 1;
nodes = (
(274,-124,l),
(334,-105,l),
(334,775,l),
(329,775,l),
(269,756,l),
(269,-124,l)
);
}
);
width = 589;
}
);
metricLeft = S;
metricRight = S;
unicode = 36;
},
{
glyphname = euro;
lastChange = "2022-10-30 16:25:21 +0000";
layers = (
{
background = {
shapes = (
{
closed = 1;
nodes = (
(640,-15,o),
(767,82,o),
(816,220,c),
(752,246,l),
(714,128,o),
(611,50,o),
(479,50,cs),
(309,50,o),
(191,176,o),
(191,350,cs),
(191,524,o),
(309,650,o),
(479,650,cs),
(612,650,o),
(715,571,o),
(753,452,c),
(817,477,l),
(768,616,o),
(641,715,o),
(479,715,cs),
(269,715,o),
(118,551,o),
(118,350,cs),
(118,147,o),
(269,-15,o),
(479,-15,cs)
);
},
{
closed = 1;
nodes = (
(528,390,l),
(548,455,l),
(68,455,l),
(48,390,l)
);
},
{
closed = 1;
nodes = (
(488,244,l),
(508,309,l),
(28,309,l),
(8,244,l)
);
}
);
};
layerId = m01;
shapes = (
{
closed = 1;
nodes = (
(640,-15,o),
(767,82,o),
(816,220,c),
(752,246,l),
(714,128,o),
(611,50,o),
(479,50,cs),
(309,50,o),
(191,176,o),
(191,350,cs),
(191,524,o),
(309,650,o),
(479,650,cs),
(612,650,o),
(715,571,o),
(753,452,c),
(817,477,l),
(768,616,o),
(641,715,o),
(479,715,cs),
(269,715,o),
(118,551,o),
(118,350,cs),
(118,147,o),
(269,-15,o),
(479,-15,cs)
);
},
{
closed = 1;
nodes = (
(528,390,l),
(547,450,l),
(547,455,l),
(68,455,l),
(50,395,l),
(50,390,l)
);
},
{
closed = 1;
nodes = (
(488,244,l),
(507,304,l),
(507,309,l),
(28,309,l),
(10,249,l),
(10,244,l)
);
}
);
width = 857;
}
);
unicode = 8364;
},
{
glyphname = plus;
lastChange = "2022-10-30 16:28:04 +0000";
layers = (
{
layerId = m01;
shapes = (
{
closed = 1;
nodes = (
(429,264,l),
(429,324,l),
(31,322,l),
(31,263,l)
);
},
{
closed = 1;
nodes = (
(263,285,l),
(263,495,l),
(196,495,l),
(196,285,l)
);
},
{
closed = 1;
nodes = (
(197,285,l),
(197,91,l),
(262,91,l),
(262,285,l)
);
}
);
width = 469;
}
);
unicode = 43;
},
{
glyphname = minus;
lastChange = "2022-10-30 16:31:29 +0000";
layers = (
{
layerId = m01;
shapes = (
{
closed = 1;
nodes = (
(409,259,l),
(409,324,l),
(31,324,l),
(31,259,l)
);
}
);
width = 449;
}
);
unicode = 8722;
},
{
glyphname = multiply;
lastChange = "2022-09-27 13:21:07 +0000";
layers = (
{
layerId = m01;
shapes = (
{
closed = 1;
nodes = (
(452,412,l),
(406,458,l),
(48,97,l),
(92,51,l)
);
},
{
closed = 1;
nodes = (
(274,271,l),
(87,458,l),
(40,412,l),
(227,224,l)
);
},
{
closed = 1;
nodes = (
(232,229,l),
(408,52,l),
(454,99,l),
(278,275,l)
);
}
);
width = 504;
}
);
unicode = 215;
},
{
glyphname = divide;
lastChange = "2022-10-30 16:27:22 +0000";
layers = (
{
layerId = m01;
shapes = (
{
closed = 1;
nodes = (
(449,217,l),
(449,282,l),
(31,280,l),
(31,216,l)
);
},
{
closed = 1;
nodes = (
(284,-15,o),
(320,21,o),
(320,66,cs),
(320,110,o),
(284,146,o),
(240,146,cs),
(195,146,o),
(159,110,o),
(159,66,cs),
(159,21,o),
(195,-15,o),
(240,-15,cs)
);
},
{
closed = 1;
nodes = (
(284,354,o),
(320,390,o),
(320,435,cs),
(320,479,o),
(284,515,o),
(240,515,cs),
(195,515,o),
(159,479,o),
(159,435,cs),
(159,390,o),
(195,354,o),
(240,354,cs)
);
}
);
width = 489;
}
);
unicode = 247;
},
{
glyphname = equal;
lastChange = "2022-10-30 16:26:39 +0000";
layers = (
{
layerId = m01;
shapes = (
{
closed = 1;
nodes = (
(463,314,l),
(463,379,l),
(41,378,l),
(41,313,l)
);
},
{
closed = 1;
nodes = (
(463,139,l),
(463,204,l),
(41,203,l),
(41,138,l)
);
}
);
width = 513;
}
);
unicode = 61;
},
{
glyphname = notequal;
lastChange = "2022-10-30 16:27:08 +0000";
layers = (
{
layerId = m01;
shapes = (
{
closed = 1;
nodes = (
(463,314,l),
(463,379,l),
(41,378,l),
(41,313,l)
);
},
{
closed = 1;
nodes = (
(463,139,l),
(463,204,l),
(41,203,l),
(41,138,l)
);
},
{
closed = 1;
nodes = (
(133,40,l),
(441,475,l),
(441,480,l),
(368,480,l),
(60,45,l),
(60,40,l)
);
}
);
width = 513;
}
);
unicode = 8800;
},
{
glyphname = greater;
lastChange = "2022-10-29 17:21:50 +0000";
layers = (
{
background = {
shapes = (
{
closed = 1;
nodes = (
(434,325,l),
(145,515,l),
(140,515,l),
(140,447,l),
(319,328,l),
(380,300,l),
(380,290,l),
(320,261,l),
(140,142,l),
(140,74,l),
(145,74,l),
(434,264,l)
);
}
);
};
layerId = m01;
shapes = (
{
closed = 1;
nodes = (
(324,325,l),
(35,515,l),
(30,515,l),
(30,447,l),
(209,328,l),
(270,300,l),
(270,290,l),
(210,261,l),
(30,142,l),
(30,74,l),
(35,74,l),
(324,264,l)
);
}
);
width = 364;
}
);
unicode = 62;
},
{
glyphname = less;
lastChange = "2022-10-29 17:22:02 +0000";
layers = (
{
layerId = m01;
shapes = (
{
closed = 1;
nodes = (
(319,74,l),
(324,74,l),
(324,142,l),
(144,261,l),
(84,290,l),
(84,300,l),
(145,328,l),
(324,447,l),
(324,515,l),
(319,515,l),
(30,325,l),
(30,264,l)
);
}
);
width = 364;
}
);
unicode = 60;
},
{
glyphname = greaterequal;
lastChange = "2022-10-29 17:29:25 +0000";
layers = (
{
layerId = m01;
shapes = (
{
closed = 1;
nodes = (
(324,360,l),
(35,500,l),
(30,500,l),
(30,432,l),
(205,353,l),
(265,335,l),
(265,325,l),
(205,307,l),
(30,227,l),
(30,159,l),
(35,159,l),
(324,299,l)
);
},
{
closed = 1;
nodes = (
(324,0,l),
(324,61,l),
(31,59,l),
(30,0,l)
);
}
);
width = 364;
}
);
unicode = 8805;
},
{
glyphname = lessequal;
lastChange = "2022-10-29 17:29:15 +0000";
layers = (
{
layerId = m01;
shapes = (
{
closed = 1;
nodes = (
(319,159,l),
(324,159,l),
(324,227,l),
(149,307,l),
(89,325,l),
(89,335,l),
(149,353,l),
(324,432,l),
(324,500,l),
(319,500,l),
(30,360,l),
(30,299,l)
);
},
{
closed = 1;
nodes = (
(323,59,l),
(30,61,l),
(30,0,l),
(324,0,l)
);
}
);
width = 364;
}
);
unicode = 8804;
},
{
glyphname = plusminus;
lastChange = "2022-10-30 16:29:17 +0000";
layers = (
{
layerId = m01;
shapes = (
{
closed = 1;
nodes = (
(429,299,l),
(429,359,l),
(31,357,l),
(31,297,l)
);
},
{
closed = 1;
nodes = (
(263,320,l),
(263,500,l),
(198,500,l),
(198,320,l)
);
},
{
closed = 1;
nodes = (
(198,320,l),
(198,155,l),
(263,156,l),
(263,320,l)
);
},
{
closed = 1;
nodes = (
(429,0,l),
(429,65,l),
(31,65,l),
(31,0,l)
);
}
);
width = 600;
}
);
unicode = 177;
},
{
glyphname = approxequal;
lastChange = "2022-10-29 17:56:58 +0000";
layers = (
{
layerId = m01;
shapes = (
{
closed = 1;
nodes = (
(175,331,o),
(201,314,cs),
(231,295,o),
(263,274,o),
(294,274,cs),
(335,274,o),
(376,311,o),
(376,359,c),
(334,380,l),
(329,380,l),
(329,360,o),
(315,333,o),
(284,333,cs),
(270,333,o),
(250,346,o),
(228,360,cs),
(197,381,o),
(160,405,o),
(122,405,cs),
(81,405,o),
(40,368,o),
(40,320,c),
(82,299,l),
(87,299,l),
(87,319,o),
(101,346,o),
(132,346,cs),
(151,346,o)
);
},
{
closed = 1;
nodes = (
(175,171,o),
(201,154,cs),
(231,135,o),
(263,114,o),
(294,114,cs),
(335,114,o),
(376,151,o),
(376,199,c),
(334,220,l),
(329,220,l),
(329,200,o),
(315,173,o),
(284,173,cs),
(270,173,o),
(250,186,o),
(228,200,cs),
(197,221,o),
(160,245,o),
(122,245,cs),
(81,245,o),
(40,208,o),
(40,160,c),
(82,139,l),
(87,139,l),
(87,159,o),
(101,186,o),
(132,186,cs),
(151,186,o)
);
}
);
width = 426;
}
);
unicode = 8776;
},
{
glyphname = asciitilde;
lastChange = "2022-10-29 17:30:30 +0000";
layers = (
{
background = {
shapes = (
{
closed = 1;
nodes = (
(175,261,o),
(201,244,cs),
(231,225,o),
(263,204,o),
(294,204,cs),
(335,204,o),
(376,241,o),
(376,289,c),
(329,313,l),
(329,290,o),
(315,263,o),
(284,263,cs),
(270,263,o),
(250,276,o),
(228,290,cs),
(197,311,o),
(160,335,o),
(122,335,cs),
(81,335,o),
(40,298,o),
(40,250,c),
(87,226,l),
(87,249,o),
(101,276,o),
(132,276,cs),
(151,276,o)
);
}
);
};
layerId = m01;
shapes = (
{
closed = 1;
nodes = (
(175,261,o),
(201,244,cs),
(231,225,o),
(263,204,o),
(294,204,cs),
(335,204,o),
(376,241,o),
(376,289,c),
(334,310,l),
(329,310,l),
(329,290,o),
(315,263,o),
(284,263,cs),
(270,263,o),
(250,276,o),
(228,290,cs),
(197,311,o),
(160,335,o),
(122,335,cs),
(81,335,o),
(40,298,o),
(40,250,c),
(82,229,l),
(87,229,l),
(87,249,o),
(101,276,o),
(132,276,cs),
(151,276,o)
);
}
);
width = 426;
}
);
unicode = 126;
},
{
glyphname = logicalnot;
lastChange = "2022-10-30 11:59:10 +0000";
layers = (
{
layerId = m01;
shapes = (
{
closed = 1;
nodes = (
(572,305,l),
(572,366,l),
(30,365,l),
(30,305,l)
);
},
{
closed = 1;
nodes = (
(508,133,l),
(573,133,l),
(572,365,l),
(508,365,l)
);
}
);
width = 613;
}
);
unicode = 172;
},
{
glyphname = asciicircum;
lastChange = "2022-10-27 21:01:08 +0000";
layers = (
{
background = {
shapes = (
{
closed = 1;
nodes = (
(312,524,l),
(312,529,l),
(197,700,l),
(136,700,l),
(20,529,l),
(20,524,l),
(92,524,l),
(133,585,l),
(161,646,l),
(171,646,l),
(200,586,l),
(241,524,l)
);
}
);
};
layerId = m01;
shapes = (
{
closed = 1;
nodes = (
(312,524,l),
(312,529,l),
(197,700,l),
(136,700,l),
(20,529,l),
(20,524,l),
(92,524,l),
(133,585,l),
(161,646,l),
(171,646,l),
(200,586,l),
(241,524,l)
);
}
);
width = 342;
}
);
unicode = 94;
},
{
glyphname = infinity;
lastChange = "2022-10-30 11:49:56 +0000";
layers = (
{
layerId = m01;
shapes = (
{
closed = 1;
nodes = (
(239,165,o),
(271,175,o),
(297,192,c),
(342,252,l),
(352,252,l),
(396,192,l),
(423,174,o),
(456,164,o),
(493,164,cs),
(593,164,o),
(665,242,o),
(665,338,cs),
(665,435,o),
(593,514,o),
(493,514,cs),
(457,514,o),
(424,504,o),
(398,486,c),
(353,426,l),
(343,426,l),
(300,486,l),
(273,504,o),
(240,515,o),
(203,515,cs),
(102,515,o),
(30,436,o),
(30,340,cs),
(30,243,o),
(102,165,o),
(203,165,cs)
);
},
{
closed = 1;
nodes = (
(91,404,o),
(136,458,o),
(203,458,cs),
(269,458,o),
(315,404,o),
(315,339,cs),
(315,276,o),
(269,222,o),
(203,222,cs),
(136,222,o),
(91,276,o),
(91,340,cs)
);
},
{
closed = 1;
nodes = (
(381,403,o),
(426,457,o),
(493,457,cs),
(559,457,o),
(605,403,o),
(605,338,cs),
(605,275,o),
(559,221,o),
(493,221,cs),
(426,221,o),
(381,275,o),
(381,339,cs)
);
}
);
width = 705;
}
);
unicode = 8734;
},
{
glyphname = integral;
lastChange = "2022-10-29 20:28:45 +0000";
layers = (
{
background = {
shapes = (
{
closed = 1;
nodes = (
(115,-110,ls),
(155,-110,o),
(178,-96,o),
(192,-55,cs),
(416,620,l),
(421,636,l),
(439,636,l),
(582,636,l),
(582,700,l),
(368,700,l),
(128,-21,l),
(123,-36,o),
(117,-46,o),
(102,-46,c),
(-40,-46,l),
(-39,-110,l)
);
},
{
closed = 1;
nodes = (
(453,586,o),
(464,597,o),
(464,611,cs),
(464,625,o),
(453,636,o),
(439,636,cs),
(425,636,o),
(414,625,o),
(414,611,cs),
(414,597,o),
(425,586,o),
(439,586,cs)
);
}
);
};
layerId = m01;
shapes = (
{
closed = 1;
nodes = (
(131,-11,l),
(126,-26,o),
(120,-36,o),
(105,-36,c),
(13,-36,l),
(14,-100,l),
(118,-100,ls),
(158,-100,o),
(181,-86,o),
(195,-45,cs),
(416,620,ls),
(420,631,o),
(430,636,o),
(439,636,cs),
(532,636,l),
(532,700,l),
(427,700,ls),
(387,700,o),
(364,686,o),
(350,645,cs)
);
}
);
width = 552;
}
);
unicode = 8747;
},
{
glyphname = product;
lastChange = "2022-10-29 17:39:57 +0000";
layers = (
{
layerId = m01;
shapes = (
{
closed = 1;
nodes = (
(120,-100,l),
(185,-100,l),
(185,700,l),
(120,700,l)
);
},
{
closed = 1;
nodes = (
(420,-100,l),
(485,-100,l),
(485,700,l),
(420,700,l)
);
},
{
closed = 1;
nodes = (
(585,635,l),
(585,700,l),
(20,700,l),
(20,635,l)
);
}
);
width = 615;
}
);
unicode = 8719;
},
{
glyphname = summation;
lastChange = "2022-10-29 20:32:33 +0000";
layers = (
{
layerId = m01;
shapes = (
{
closed = 1;
nodes = (
(40,-41,l),
(40,-100,l),
(295,-100,l),
(295,-36,l),
(164,-36,l),
(104,-36,l),
(104,-26,l),
(139,14,l),
(259,301,l),
(140,586,l),
(104,626,l),
(104,636,l),
(164,636,l),
(285,636,l),
(285,700,l),
(40,700,l),
(40,641,l),
(189,301,l)
);
}
);
width = 345;
}
);
unicode = 8721;
},
{
glyphname = radical;
lastChange = "2022-10-29 20:54:23 +0000";
layers = (
{
background = {
shapes = (
{
closed = 1;
nodes = (
(229,56,l),
(217,-4,l),
(207,-4,l),
(190,56,l),
(82,299,l),
(8,299,l),
(185,-100,l),
(250,-100,l),
(492,620,ls),
(496,631,o),
(506,636,o),
(515,636,cs),
(608,636,l),
(608,700,l),
(503,700,ls),
(463,700,o),
(440,686,o),
(426,645,cs)
);
}
);
};
layerId = m01;
shapes = (
{
closed = 1;
nodes = (
(229,56,l),
(217,-4,l),
(207,-4,l),
(190,56,l),
(82,299,l),
(10,299,l),
(10,294,l),
(185,-100,l),
(250,-100,l),
(518,696,l),
(629,696,l),
(629,760,l),
(465,760,l)
);
}
);
width = 649;
}
);
unicode = 8730;
},
{
glyphname = partialdiff;
lastChange = "2022-10-30 11:41:07 +0000";
layers = (
{
layerId = m01;
shapes = (
{
closed = 1;
nodes = (
(450,-15,o),
(563,107,o),
(563,259,cs),
(563,261,o),
(563,277,o),
(563,279,cs),
(562,379,o),
(535,471,o),
(480,564,cs),
(445,624,o),
(406,692,o),
(363,760,c),
(293,760,l),
(293,755,l),
(349,665,o),
(428,538,o),
(469,462,c),
(495,401,l),
(485,401,l),
(436,461,l),
(398,495,o),
(352,515,o),
(287,515,cs),
(145,515,o),
(30,396,o),
(30,250,cs),
(30,104,o),
(145,-15,o),
(297,-15,cs)
);
},
{
closed = 1;
nodes = (
(95,362,o),
(181,455,o),
(297,455,cs),
(412,455,o),
(499,362,o),
(499,250,cs),
(499,138,o),
(412,45,o),
(297,45,cs),
(181,45,o),
(95,138,o),
(95,250,cs)
);
}
);
width = 600;
}
);
unicode = 8706;
},
{
glyphname = percent;
lastChange = "2022-10-29 20:47:21 +0000";
layers = (
{
background = {
shapes = (
{
closed = 1;
nodes = (
(116,-110,l),
(464,695,l),
(464,700,l),
(391,700,l),
(43,-105,l),
(43,-110,l)
);
}
);
};
layerId = m01;
shapes = (
{
closed = 1;
nodes = (
(146,0,l),
(524,695,l),
(524,700,l),
(451,700,l),
(73,5,l),
(73,0,l)
);
},
{
closed = 1;
nodes = (
(221,455,o),
(277,513,o),
(277,585,cs),
(277,656,o),
(221,714,o),
(144,714,cs),
(66,714,o),
(10,656,o),
(10,585,cs),
(10,513,o),
(66,455,o),
(144,455,cs)
);
},
{
closed = 1;
nodes = (
(101,508,o),
(70,537,o),
(71,585,cs),
(70,632,o),
(101,660,o),
(144,660,cs),
(186,660,o),
(216,632,o),
(216,585,cs),
(216,537,o),
(186,508,o),
(144,508,cs)
);
},
{
closed = 1;
nodes = (
(532,-15,o),
(588,43,o),
(588,115,cs),
(588,186,o),
(532,244,o),
(455,244,cs),
(377,244,o),
(321,186,o),
(321,115,cs),
(321,43,o),
(377,-15,o),
(455,-15,cs)
);
},
{
closed = 1;
nodes = (
(412,38,o),
(381,67,o),
(382,115,cs),
(381,162,o),
(412,190,o),
(455,190,cs),
(497,190,o),
(527,162,o),
(527,115,cs),
(527,67,o),
(497,38,o),
(455,38,cs)
);
}
);
width = 608;
}
);
unicode = 37;
},
{
glyphname = perthousand;
lastChange = "2022-10-29 20:46:55 +0000";
layers = (
{
layerId = m01;
shapes = (
{
closed = 1;
nodes = (
(146,0,l),
(524,695,l),
(524,700,l),
(451,700,l),
(73,5,l),
(73,0,l)
);
},
{
closed = 1;
nodes = (
(221,455,o),
(277,513,o),
(277,585,cs),
(277,656,o),
(221,714,o),
(144,714,cs),
(66,714,o),
(10,656,o),
(10,585,cs),
(10,513,o),
(66,455,o),
(144,455,cs)
);
},
{
closed = 1;
nodes = (
(101,508,o),
(70,537,o),
(71,585,cs),
(70,632,o),
(101,660,o),
(144,660,cs),
(186,660,o),
(216,632,o),
(216,585,cs),
(216,537,o),
(186,508,o),
(144,508,cs)
);
},
{
closed = 1;
nodes = (
(532,-15,o),
(588,43,o),
(588,115,cs),
(588,186,o),
(532,244,o),
(455,244,cs),
(377,244,o),
(321,186,o),
(321,115,cs),
(321,43,o),
(377,-15,o),
(455,-15,cs)
);
},
{
closed = 1;
nodes = (
(412,38,o),
(381,67,o),
(382,115,cs),
(381,162,o),
(412,190,o),
(455,190,cs),
(497,190,o),
(527,162,o),
(527,115,cs),
(527,67,o),
(497,38,o),
(455,38,cs)
);
},
{
closed = 1;
nodes = (
(849,-15,o),
(905,43,o),
(905,115,cs),
(905,186,o),
(849,244,o),
(772,244,cs),
(694,244,o),
(638,186,o),
(638,115,cs),
(638,43,o),
(694,-15,o),
(772,-15,cs)
);
},
{
closed = 1;
nodes = (
(729,38,o),
(698,67,o),
(699,115,cs),
(698,162,o),
(729,190,o),
(772,190,cs),
(814,190,o),
(844,162,o),
(844,115,cs),
(844,67,o),
(814,38,o),
(772,38,cs)
);
}
);
width = 925;
}
);
unicode = 8240;
},
{
glyphname = upArrow;
lastChange = "2022-10-30 11:41:20 +0000";
layers = (
{
layerId = m01;
shapes = (
{
closed = 1;
nodes = (
(250,700,l),
(195,630,l),
(20,436,l),
(20,431,l),
(93,431,l),
(183,530,l),
(223,590,l),
(228,590,l),
(228,0,l),
(293,0,l),
(293,591,l),
(298,591,l),
(339,530,l),
(428,431,l),
(501,431,l),
(501,436,l),
(326,630,l),
(271,700,l)
);
}
);
width = 531;
}
);
unicode = 8593;
},
{
glyphname = rightArrow;
lastChange = "2022-10-05 20:20:41 +0000";
layers = (
{
layerId = m01;
shapes = (
{
closed = 1;
nodes = (
(650,340,l),
(456,515,l),
(451,515,l),
(451,442,l),
(550,353,l),
(611,312,l),
(611,307,l),
(20,307,l),
(20,242,l),
(610,242,l),
(610,237,l),
(550,197,l),
(451,107,l),
(451,34,l),
(456,34,l),
(650,209,l),
(720,264,l),
(720,285,l)
);
}
);
width = 750;
}
);
unicode = 8594;
},
{
glyphname = downArrow;
lastChange = "2022-10-04 20:30:48 +0000";
layers = (
{
layerId = m01;
shapes = (
{
closed = 1;
nodes = (
(271,0,l),
(326,70,l),
(501,264,l),
(501,269,l),
(428,269,l),
(338,170,l),
(298,110,l),
(293,110,l),
(293,700,l),
(228,700,l),
(228,109,l),
(223,109,l),
(182,170,l),
(93,269,l),
(20,269,l),
(20,264,l),
(195,70,l),
(250,0,l)
);
}
);
width = 531;
}
);
unicode = 8595;
},
{
glyphname = leftArrow;
lastChange = "2022-10-05 20:20:18 +0000";
layers = (
{
background = {
shapes = (
{
closed = 1;
nodes = (
(484,39,l),
(489,39,l),
(489,107,l),
(309,226,l),
(249,255,l),
(249,265,l),
(310,293,l),
(519,432,l),
(519,500,l),
(514,500,l),
(195,290,l),
(195,229,l)
);
}
);
};
layerId = m01;
shapes = (
{
closed = 1;
nodes = (
(20,264,l),
(90,209,l),
(284,34,l),
(289,34,l),
(289,107,l),
(190,197,l),
(130,237,l),
(130,242,l),
(720,242,l),
(720,307,l),
(129,307,l),
(129,312,l),
(190,353,l),
(289,442,l),
(289,515,l),
(284,515,l),
(90,340,l),
(20,285,l)
);
}
);
width = 750;
}
);
unicode = 8592;
},
{
glyphname = dieresiscomb;
lastChange = "2022-09-17 11:23:27 +0000";
layers = (
{
anchors = (
{
name = _top;
pos = (206,500);
},
{
name = top;
pos = (206,725);
}
);
layerId = m01;
shapes = (
{
closed = 1;
nodes = (
(333,594,o),
(362,623,o),
(362,660,cs),
(362,696,o),
(333,725,o),
(297,725,cs),
(260,725,o),
(231,696,o),
(231,660,cs),
(231,623,o),
(260,594,o),
(297,594,cs)
);
},
{
closed = 1;
nodes = (
(152,594,o),
(181,623,o),
(181,660,cs),
(181,696,o),
(152,725,o),
(116,725,cs),
(79,725,o),
(50,696,o),
(50,660,cs),
(50,623,o),
(79,594,o),
(116,594,cs)
);
}
);
width = 600;
}
);
unicode = 776;
},
{
glyphname = dotaccentcomb;
lastChange = "2022-10-05 20:34:13 +0000";
layers = (
{
anchors = (
{
name = _top;
pos = (86,500);
},
{
name = top;
pos = (86,725);
}
);
layerId = m01;
shapes = (
{
closed = 1;
nodes = (
(122,594,o),
(151,623,o),
(151,660,cs),
(151,696,o),
(122,725,o),
(86,725,cs),
(49,725,o),
(20,696,o),
(20,660,cs),
(20,623,o),
(49,594,o),
(86,594,cs)
);
}
);
width = 181;
}
);
unicode = 775;
},
{
glyphname = gravecomb;
lastChange = "2022-10-05 20:43:47 +0000";
layers = (
{
anchors = (
{
name = _top;
pos = (113,500);
},
{
name = top;
pos = (78,760);
}
);
background = {
shapes = (
{
closed = 1;
nodes = (
(81,760,l),
(9,760,l),
(84,545,l),
(152,545,l)
);
}
);
};
layerId = m01;
shapes = (
{
closed = 1;
nodes = (
(146,565,l),
(79,760,l),
(10,760,l),
(10,755,l),
(85,560,l),
(146,560,l)
);
}
);
width = 166;
}
);
unicode = 768;
},
{
glyphname = acutecomb;
lastChange = "2022-10-05 20:44:20 +0000";
layers = (
{
anchors = (
{
name = _top;
pos = (33,500);
},
{
name = top;
pos = (78,760);
}
);
layerId = m01;
shapes = (
{
closed = 1;
nodes = (
(71,560,l),
(146,755,l),
(146,760,l),
(77,760,l),
(10,565,l),
(10,560,l)
);
}
);
width = 166;
}
);
unicode = 769;
},
{
glyphname = circumflexcomb;
lastChange = "2022-10-05 20:40:47 +0000";
layers = (
{
anchors = (
{
name = _top;
pos = (227,500);
},
{
name = top;
pos = (227,760);
}
);
background = {
shapes = (
{
closed = 1;
nodes = (
(376,584,l),
(258,760,l),
(197,760,l),
(78,584,l),
(153,584,l),
(194,645,l),
(222,706,l),
(232,706,l),
(261,646,l),
(302,584,l)
);
}
);
};
layerId = m01;
shapes = (
{
closed = 1;
nodes = (
(373,584,l),
(373,589,l),
(258,760,l),
(197,760,l),
(81,589,l),
(81,584,l),
(153,584,l),
(194,645,l),
(222,706,l),
(232,706,l),
(261,646,l),
(302,584,l)
);
}
);
width = 600;
}
);
unicode = 770;
},
{
glyphname = ringcomb;
lastChange = "2022-10-14 10:43:56 +0000";
layers = (
{
anchors = (
{
name = _top;
pos = (121,500);
},
{
name = top;
pos = (136,760);
}
);
layerId = m01;
shapes = (
{
closed = 1;
nodes = (
(199,549,o),
(246,596,o),
(246,655,cs),
(246,713,o),
(199,760,o),
(136,760,cs),
(72,760,o),
(25,713,o),
(25,655,cs),
(25,596,o),
(72,549,o),
(136,549,cs)
);
},
{
closed = 1;
nodes = (
(106,597,o),
(82,621,o),
(83,655,cs),
(82,688,o),
(106,711,o),
(136,711,cs),
(165,711,o),
(188,688,o),
(188,655,cs),
(188,621,o),
(165,597,o),
(136,597,cs)
);
}
);
width = 276;
}
);
unicode = 778;
},
{
glyphname = tildecomb;
lastChange = "2022-11-12 18:41:05 +0000";
layers = (
{
anchors = (
{
name = _top;
pos = (198,500);
},
{
name = top;
pos = (198,715);
}
);
background = {
shapes = (
{
closed = 1;
nodes = (
(165,641,o),
(191,624,cs),
(221,605,o),
(253,584,o),
(284,584,cs),
(325,584,o),
(366,621,o),
(366,669,c),
(324,690,l),
(319,690,l),
(319,670,o),
(305,643,o),
(274,643,cs),
(260,643,o),
(240,656,o),
(218,670,cs),
(187,691,o),
(150,715,o),
(112,715,cs),
(71,715,o),
(30,678,o),
(30,630,c),
(72,609,l),
(77,609,l),
(77,629,o),
(91,656,o),
(122,656,cs),
(141,656,o)
);
}
);
};
layerId = m01;
shapes = (
{
closed = 1;
nodes = (
(165,641,o),
(191,624,cs),
(221,605,o),
(253,584,o),
(284,584,cs),
(325,584,o),
(366,621,o),
(366,669,c),
(324,690,l),
(319,690,l),
(319,670,o),
(305,643,o),
(274,643,cs),
(260,643,o),
(240,656,o),
(218,670,cs),
(187,691,o),
(150,715,o),
(112,715,cs),
(71,715,o),
(30,678,o),
(30,630,c),
(72,609,l),
(77,609,l),
(77,629,o),
(91,656,o),
(122,656,cs),
(141,656,o)
);
}
);
width = 416;
}
);
unicode = 771;
},
{
glyphname = cedillacomb;
lastChange = "2022-10-13 09:03:12 +0000";
layers = (
{
anchors = (
{
name = _bottom;
pos = (143,0);
},
{
name = bottom;
pos = (143,-248);
}
);
background = {
shapes = (
{
closed = 1;
nodes = (
(30,-200,l),
(30,-248,l),
(145,-248,ls),
(208,-248,o),
(255,-201,o),
(255,-142,cs),
(255,-84,o),
(213,-37,o),
(165,-37,c),
(127,-60,l),
(117,-60,l),
(136,-10,l),
(141,5,l),
(141,10,l),
(92,10,l),
(45,-91,l),
(45,-96,l),
(96,-118,l),
(104,-99,o),
(123,-86,o),
(145,-86,cs),
(174,-86,o),
(197,-109,o),
(197,-142,cs),
(197,-176,o),
(174,-200,o),
(145,-200,cs)
);
}
);
};
layerId = m01;
shapes = (
{
closed = 1;
nodes = (
(30,-200,l),
(30,-248,l),
(145,-248,ls),
(208,-248,o),
(255,-206,o),
(255,-147,cs),
(255,-89,o),
(213,-47,o),
(165,-47,c),
(114,-70,l),
(104,-70,l),
(136,-15,l),
(141,0,l),
(141,5,l),
(95,5,l),
(35,-101,l),
(96,-128,l),
(104,-109,o),
(123,-96,o),
(145,-96,cs),
(174,-96,o),
(197,-114,o),
(197,-147,cs),
(197,-181,o),
(174,-200,o),
(145,-200,cs)
);
}
);
width = 285;
}
);
unicode = 807;
},
{
glyphname = downarrow.ss02;
lastChange = "2022-10-30 11:45:23 +0000";
layers = (
{
layerId = m01;
shapes = (
{
closed = 1;
nodes = (
(421,259,l),
(421,269,l),
(253,268,l),
(253,700,l),
(188,700,l),
(188,269,l),
(20,269,l),
(20,259,l),
(215,0,l),
(226,0,l)
);
}
);
width = 451;
}
);
},
{
glyphname = leftarrow.ss02;
lastChange = "2022-10-30 11:47:47 +0000";
layers = (
{
layerId = m01;
shapes = (
{
closed = 1;
nodes = (
(279,73,l),
(289,73,l),
(288,241,l),
(720,241,l),
(720,306,l),
(289,306,l),
(289,474,l),
(279,474,l),
(20,279,l),
(20,268,l)
);
}
);
width = 750;
}
);
},
{
glyphname = rightarrow.ss02;
lastChange = "2022-10-30 11:48:05 +0000";
layers = (
{
layerId = m01;
shapes = (
{
closed = 1;
nodes = (
(461,474,l),
(451,474,l),
(452,306,l),
(20,306,l),
(20,241,l),
(451,241,l),
(451,73,l),
(461,73,l),
(720,268,l),
(720,279,l)
);
}
);
width = 751;
}
);
},
{
glyphname = uparrow.ss02;
lastChange = "2022-10-30 11:45:42 +0000";
layers = (
{
layerId = m01;
shapes = (
{
closed = 1;
nodes = (
(215,700,l),
(20,441,l),
(20,431,l),
(188,431,l),
(188,0,l),
(253,0,l),
(253,432,l),
(421,431,l),
(421,441,l),
(226,700,l)
);
}
